<?xml version="1.0" encoding="UTF-8" standalone="no"?>
<!-- Created with Inkscape (http://www.inkscape.org/) -->

<svg
   width="200"
   height="200"
   viewBox="0 0 52.916665 52.916666"
   version="1.1"
   id="svg1"
   inkscape:version="1.3.2 (091e20ef0f, 2023-11-25, custom)"
   sodipodi:docname="clear-night.svg"
   xmlns:inkscape="http://www.inkscape.org/namespaces/inkscape"
   xmlns:sodipodi="http://sodipodi.sourceforge.net/DTD/sodipodi-0.dtd"
   xmlns="http://www.w3.org/2000/svg"
   xmlns:svg="http://www.w3.org/2000/svg">
  <sodipodi:namedview
     id="namedview1"
     pagecolor="#ffffff"
     bordercolor="#000000"
     borderopacity="0.25"
     inkscape:showpageshadow="2"
     inkscape:pageopacity="0.0"
     inkscape:pagecheckerboard="0"
     inkscape:deskcolor="#d1d1d1"
     inkscape:document-units="mm"
     inkscape:zoom="2.56"
     inkscape:cx="199.21875"
     inkscape:cy="118.75"
     inkscape:window-width="1920"
     inkscape:window-height="1012"
     inkscape:window-x="0"
     inkscape:window-y="31"
     inkscape:window-maximized="1"
     inkscape:current-layer="layer1"
     showgrid="false" />
  <defs
     id="defs1">
    <linearGradient
       x1="0"
       y1="0"
       x2="1"
       y2="0"
       gradientUnits="userSpaceOnUse"
       gradientTransform="matrix(466.421,466.421,466.421,-466.421,1157.15,3169.41)"
       spreadMethod="pad"
       id="linearGradient163">
      <stop
         style="stop-opacity:1;stop-color:#e8e8e7"
         offset="0"
         id="stop162" />
      <stop
         style="stop-opacity:1;stop-color:#fcfcfc"
         offset="1"
         id="stop163" />
    </linearGradient>
    <clipPath
       clipPathUnits="userSpaceOnUse"
       id="clipPath163">
      <path
         d="m 1705.69,3462.67 -2.01,1.58 -0.3,0.27 -67.91,54.59 9.41,86.62 c 1.58,14.56 -3.52,29.07 -13.89,39.44 -10.37,10.38 -24.88,15.48 -39.45,13.88 l -86.59,-9.42 -54.61,67.92 c -9.18,11.43 -23.05,18.08 -37.72,18.08 -14.66,0 -28.53,-6.65 -37.7,-18.08 l -54.6,-67.92 -86.61,9.42 c -14.59,1.6 -29.08,-3.5 -39.44,-13.88 -10.36,-10.37 -15.48,-24.88 -13.9,-39.44 l 9.41,-86.61 -65.08,-52.33 -2.63,-2.05 -2.33,-1.89 c -11.41,-9.18 -18.04,-23.03 -18.07,-37.65 -0.01,-14.64 6.59,-28.49 17.98,-37.69 l 69.77,-56.41 -9.05,-83.19 -0.09,-2 -0.21,-1.8 c -1.56,-14.55 3.55,-29.05 13.91,-39.39 10.35,-10.36 24.87,-15.47 39.4,-13.89 l 85.36,9.21 56.36,-69.19 c 9.19,-11.29 22.97,-17.84 37.52,-17.84 h 0.06 c 14.58,0.03 28.37,6.59 37.54,17.91 l 56.13,69.26 85.11,-9.39 c 14.61,-1.62 29.11,3.48 39.51,13.83 9.55,9.57 14.59,22.67 14.08,36.08 0.1,2.4 0.09,4.78 -0.18,7.2 l -9.04,83.1 69.92,56.19 c 11.43,9.18 18.08,23.06 18.08,37.74 -0.01,14.69 -6.68,28.57 -18.14,37.74"
         id="path163" />
    </clipPath>
    <clipPath
       clipPathUnits="userSpaceOnUse"
       id="clipPath171">
      <path
         d="m 1412.62,3269.84 c -86.06,0 -155.93,69.26 -156.94,155.07 -0.01,0.63 -0.02,1.26 -0.02,1.89 0,-2.84 0.09,-5.68 0.24,-8.49 49.14,5.53 101.82,8.56 156.72,8.56 54.91,0 107.62,-3.03 156.77,-8.56 -4.41,-82.73 -72.9,-148.47 -156.77,-148.47 m 156.78,148.59 c 0.13,2.77 0.22,5.57 0.22,8.37 0,-0.63 0,-1.26 -0.01,-1.89 -0.03,-2.17 -0.1,-4.33 -0.21,-6.48"
         transform="matrix(0.00301023,0,0,-0.00574053,-3.7564721,19.719288)"
         id="path171" />
    </clipPath>
  </defs>
  <g
     inkscape:label="Capa 1"
     inkscape:groupmode="layer"
     id="layer1">
    <path
       id="path1082-1"
       d="m 44.396761,26.181142 c 0,-9.172227 -6.569429,-16.8606653 -15.61747,-18.2816514 -1.139476,-0.1778 -2.281766,0.283632 -2.976742,1.20297 -0.694267,0.9200464 -0.826204,2.1463004 -0.3429,3.1926384 0.750009,1.621366 1.1303,3.350682 1.1303,5.142092 0,0.20955 -0.0057,0.4191 -0.01694,0.625824 l -0.0042,0.06492 c -0.359124,6.439605 -5.711471,11.569701 -12.239271,11.569701 -0.63853,0 -1.283404,-0.0508 -1.918404,-0.15098 l -0.14042,-0.012 -0.14604,-0.02186 c -1.128886,-0.17568 -2.261304,0.277284 -2.956274,1.1811 -0.69568,0.904522 -0.843846,2.115253 -0.385234,3.160183 2.941418,6.69925 9.85516,11.200691 17.202816,11.200691 9.980083,0 18.410766,-8.396817 18.410766,-18.33527 0,-0.0882 -0.0042,-0.17498 -0.0042,-0.262466 0,-0.09244 0.0042,-0.18344 0.0042,-0.27587"
       style="fill:#ffffff;fill-opacity:1;fill-rule:nonzero;stroke:none;stroke-width:0.0705554" />
    <path
       id="path1084-0"
       d="m 28.153077,11.168238 c 0.908759,1.962854 1.416759,4.147254 1.416759,6.452304 0,8.495597 -6.886226,15.38323 -15.38041,15.38323 -0.819854,0 -1.622774,-0.06492 -2.404532,-0.18838 2.440516,5.272617 7.773812,8.933037 13.96365,8.933037 8.497003,0 15.383229,-6.888337 15.383229,-15.383228 0,-7.679971 -5.625396,-14.042671 -12.978696,-15.196959"
       style="fill:#fab40a;fill-opacity:1;fill-rule:nonzero;stroke:none;stroke-width:0.0705554" />
    <path
       id="path1"
       style="fill:#d79c15;stroke-width:1.05833;stroke-linecap:square;stroke-linejoin:round"
       d="M 24.871867 28.682487 C 22.104879 31.356098 18.340345 33.00367 14.189315 33.00367 C 13.369462 33.00367 12.566568 32.939028 11.78481 32.815568 C 14.225324 38.08818 19.558467 41.748356 25.748299 41.748356 C 32.516149 41.748356 38.258064 37.376208 40.316402 31.305066 A 30.639519 14.966878 0 0 0 24.871867 28.682487 z " />
  </g>
</svg>
