<?xml version="1.0" encoding="UTF-8" standalone="no"?>
<!-- Created with Inkscape (http://www.inkscape.org/) -->

<svg
   width="200"
   height="200"
   viewBox="0 0 52.916665 52.916666"
   version="1.1"
   id="svg1"
   inkscape:version="1.3.2 (091e20ef0f, 2023-11-25, custom)"
   sodipodi:docname="cloudy-3-night.svg"
   xmlns:inkscape="http://www.inkscape.org/namespaces/inkscape"
   xmlns:sodipodi="http://sodipodi.sourceforge.net/DTD/sodipodi-0.dtd"
   xmlns:xlink="http://www.w3.org/1999/xlink"
   xmlns="http://www.w3.org/2000/svg"
   xmlns:svg="http://www.w3.org/2000/svg">
  <sodipodi:namedview
     id="namedview1"
     pagecolor="#ffffff"
     bordercolor="#000000"
     borderopacity="0.25"
     inkscape:showpageshadow="2"
     inkscape:pageopacity="0.0"
     inkscape:pagecheckerboard="0"
     inkscape:deskcolor="#d1d1d1"
     inkscape:document-units="mm"
     inkscape:zoom="2.56"
     inkscape:cx="98.828125"
     inkscape:cy="52.539063"
     inkscape:window-width="1920"
     inkscape:window-height="1043"
     inkscape:window-x="1920"
     inkscape:window-y="0"
     inkscape:window-maximized="1"
     inkscape:current-layer="layer1" />
  <defs
     id="defs1">
    <linearGradient
       x1="0"
       y1="0"
       x2="1"
       y2="0"
       gradientUnits="userSpaceOnUse"
       gradientTransform="matrix(466.421,466.421,466.421,-466.421,1157.15,3169.41)"
       spreadMethod="pad"
       id="linearGradient163">
      <stop
         style="stop-opacity:1;stop-color:#e8e8e7"
         offset="0"
         id="stop162" />
      <stop
         style="stop-opacity:1;stop-color:#fcfcfc"
         offset="1"
         id="stop163" />
    </linearGradient>
    <clipPath
       clipPathUnits="userSpaceOnUse"
       id="clipPath163">
      <path
         d="m 1705.69,3462.67 -2.01,1.58 -0.3,0.27 -67.91,54.59 9.41,86.62 c 1.58,14.56 -3.52,29.07 -13.89,39.44 -10.37,10.38 -24.88,15.48 -39.45,13.88 l -86.59,-9.42 -54.61,67.92 c -9.18,11.43 -23.05,18.08 -37.72,18.08 -14.66,0 -28.53,-6.65 -37.7,-18.08 l -54.6,-67.92 -86.61,9.42 c -14.59,1.6 -29.08,-3.5 -39.44,-13.88 -10.36,-10.37 -15.48,-24.88 -13.9,-39.44 l 9.41,-86.61 -65.08,-52.33 -2.63,-2.05 -2.33,-1.89 c -11.41,-9.18 -18.04,-23.03 -18.07,-37.65 -0.01,-14.64 6.59,-28.49 17.98,-37.69 l 69.77,-56.41 -9.05,-83.19 -0.09,-2 -0.21,-1.8 c -1.56,-14.55 3.55,-29.05 13.91,-39.39 10.35,-10.36 24.87,-15.47 39.4,-13.89 l 85.36,9.21 56.36,-69.19 c 9.19,-11.29 22.97,-17.84 37.52,-17.84 h 0.06 c 14.58,0.03 28.37,6.59 37.54,17.91 l 56.13,69.26 85.11,-9.39 c 14.61,-1.62 29.11,3.48 39.51,13.83 9.55,9.57 14.59,22.67 14.08,36.08 0.1,2.4 0.09,4.78 -0.18,7.2 l -9.04,83.1 69.92,56.19 c 11.43,9.18 18.08,23.06 18.08,37.74 -0.01,14.69 -6.68,28.57 -18.14,37.74"
         id="path163" />
    </clipPath>
    <clipPath
       clipPathUnits="userSpaceOnUse"
       id="clipPath171">
      <path
         d="m 1412.62,3269.84 c -86.06,0 -155.93,69.26 -156.94,155.07 -0.01,0.63 -0.02,1.26 -0.02,1.89 0,-2.84 0.09,-5.68 0.24,-8.49 49.14,5.53 101.82,8.56 156.72,8.56 54.91,0 107.62,-3.03 156.77,-8.56 -4.41,-82.73 -72.9,-148.47 -156.77,-148.47 m 156.78,148.59 c 0.13,2.77 0.22,5.57 0.22,8.37 0,-0.63 0,-1.26 -0.01,-1.89 -0.03,-2.17 -0.1,-4.33 -0.21,-6.48"
         transform="matrix(0.00301023,0,0,-0.00574053,-3.7564721,19.719288)"
         id="path171" />
    </clipPath>
    <linearGradient
       inkscape:collect="always"
       xlink:href="#linearGradient1224"
       id="linearGradient1225"
       x1="-156.12976"
       y1="175.55699"
       x2="-179.3593"
       y2="195.3158"
       gradientUnits="userSpaceOnUse"
       gradientTransform="matrix(0.52916666,0,0,0.52916666,112.07251,-82.220805)" />
    <linearGradient
       id="linearGradient1224"
       inkscape:collect="always">
      <stop
         style="stop-color:#23435c;stop-opacity:1;"
         offset="0"
         id="stop1224" />
      <stop
         style="stop-color:#346991;stop-opacity:1;"
         offset="1"
         id="stop1225" />
    </linearGradient>
    <linearGradient
       inkscape:collect="always"
       xlink:href="#linearGradient1224"
       id="linearGradient9"
       gradientUnits="userSpaceOnUse"
       gradientTransform="matrix(0.52916666,0,0,0.52916666,126.61215,-72.419618)"
       x1="-156.12976"
       y1="175.55699"
       x2="-179.3593"
       y2="195.3158" />
    <linearGradient
       inkscape:collect="always"
       xlink:href="#linearGradient1224"
       id="linearGradient12"
       gradientUnits="userSpaceOnUse"
       gradientTransform="matrix(0.52916666,0,0,0.52916666,112.04638,-62.773939)"
       x1="-156.12976"
       y1="175.55699"
       x2="-179.3593"
       y2="195.3158" />
  </defs>
  <g
     inkscape:label="Capa 1"
     inkscape:groupmode="layer"
     id="layer1">
    <path
       id="path1082-1"
       d="m 43.533645,19.908179 c 0,-9.172227 -6.569429,-16.860665 -15.61747,-18.281651 -1.139476,-0.1778 -2.281766,0.283632 -2.976742,1.20297 -0.694267,0.920046 -0.826204,2.1463 -0.3429,3.192638 0.750009,1.621366 1.1303,3.350682 1.1303,5.142092 0,0.20955 -0.0057,0.4191 -0.01694,0.625824 l -0.0042,0.06492 c -0.359124,6.439605 -5.711471,11.569701 -12.239271,11.569701 -0.63853,0 -1.283404,-0.0508 -1.918404,-0.15098 l -0.14042,-0.012 -0.14604,-0.02186 c -1.128886,-0.17568 -2.2613035,0.277284 -2.9562735,1.1811 -0.69568,0.904522 -0.843846,2.115253 -0.385234,3.160183 2.9414175,6.69925 9.8551595,11.200691 17.2028155,11.200691 9.980083,0 18.410766,-8.396817 18.410766,-18.33527 0,-0.0882 -0.0042,-0.17498 -0.0042,-0.262466 0,-0.09244 0.0042,-0.18344 0.0042,-0.27587"
       style="fill:#ffffff;fill-opacity:1;fill-rule:nonzero;stroke:none;stroke-width:0.0705554" />
    <path
       id="path10"
       style="fill:#ffffff;fill-opacity:1;stroke-width:2.11666;stroke-linecap:square;stroke-linejoin:round"
       d="m 18.777669,24.568529 c -2.461091,0.0489 -4.857559,1.389962 -6.173269,3.472658 -2.081006,0.329702 -3.9995836,1.56836 -5.1531716,3.332098 -3.033009,0.321378 -5.798191,2.633092 -6.46885596,5.637896 -0.728155,2.881312 0.56499096,6.122347 3.06014896,7.73095 0.246163,0.182626 0.5851,0.270489 0.624369,0.621802 1.163775,2.771453 4.12469,4.650264 7.1284406,4.524322 0.307472,0.02133 0.642657,-0.08883 0.930301,-0.04138 3.223864,2.387182 7.791307,2.81214 11.374718,0.985309 0.934138,-0.45393 1.799024,-1.046459 2.571411,-1.740059 3.046042,0.206909 6.16993,-1.609693 7.356655,-4.448307 2.664481,-1.491742 4.176998,-4.788971 3.523276,-7.781487 -0.628544,-3.138672 -3.50302,-5.65342 -6.699361,-5.85435 -0.299233,-0.08352 -0.712179,0.11368 -0.873278,-0.23102 -1.140941,-1.311772 -2.745475,-2.21255 -4.460711,-2.498036 -1.355286,-2.338594 -4.04251,-3.807588 -6.740673,-3.710368 z" />
    <path
       id="path7"
       style="fill:#ffffff;fill-opacity:1;stroke-width:2.11666;stroke-linecap:square;stroke-linejoin:round"
       d="m 33.343434,14.92285 c -2.461091,0.0489 -4.857559,1.389962 -6.173269,3.472658 -2.081006,0.329702 -3.999584,1.56836 -5.153172,3.332098 -3.033009,0.321378 -5.798191,2.633092 -6.468856,5.637896 -0.728155,2.881312 0.564991,6.122347 3.060149,7.73095 0.246163,0.182626 0.5851,0.270489 0.624369,0.621802 1.163775,2.771453 4.12469,4.650264 7.128441,4.524322 0.307472,0.02133 0.642657,-0.08883 0.930301,-0.04138 3.223864,2.387182 7.791307,2.81214 11.374718,0.985309 0.934138,-0.45393 1.799024,-1.046459 2.571411,-1.740059 3.046042,0.206909 6.16993,-1.609693 7.356655,-4.448307 2.664481,-1.491742 4.176998,-4.788971 3.523276,-7.781487 -0.628544,-3.138672 -3.50302,-5.65342 -6.699361,-5.85435 -0.299233,-0.08352 -0.712179,0.11368 -0.873278,-0.23102 -1.140941,-1.311772 -2.745475,-2.21255 -4.460711,-2.498036 -1.355286,-2.338594 -4.04251,-3.807588 -6.740673,-3.710368 z" />
    <path
       id="path1224"
       style="fill:#ffffff;fill-opacity:1;stroke-width:2.11666;stroke-linecap:square;stroke-linejoin:round"
       d="m 18.803785,5.1216626 c -2.461091,0.0489 -4.857559,1.389962 -6.173269,3.472658 -2.081006,0.329702 -3.9995844,1.5683604 -5.1531724,3.3320984 -3.033009,0.321378 -5.798191,2.633092 -6.468856,5.637896 -0.72815499,2.881312 0.564991,6.122347 3.060149,7.73095 0.246163,0.182626 0.5851,0.270489 0.624369,0.621802 1.163775,2.771453 4.12469,4.650264 7.1284414,4.524322 0.307472,0.02133 0.642657,-0.08883 0.930301,-0.04138 3.223864,2.387182 7.791307,2.81214 11.374718,0.985309 0.934138,-0.45393 1.799024,-1.046459 2.571411,-1.740059 3.046042,0.206909 6.16993,-1.609693 7.356655,-4.448307 2.664481,-1.491742 4.176998,-4.788971 3.523276,-7.781487 -0.628544,-3.138672 -3.50302,-5.65342 -6.699361,-5.85435 -0.299233,-0.08352 -0.712179,0.11368 -0.873278,-0.23102 -1.140941,-1.311772 -2.745475,-2.2125504 -4.460711,-2.4980364 -1.355286,-2.338594 -4.04251,-3.807588 -6.740673,-3.710368 z" />
    <path
       id="path1084-0"
       d="m 27.289949,4.895264 c 0.908759,1.962854 1.416759,4.147254 1.416759,6.452304 0,8.495597 -6.886226,15.38323 -15.38041,15.38323 -0.819854,0 -1.622774,-0.06492 -2.404532,-0.18838 2.440516,5.272617 7.773812,8.933037 13.96365,8.933037 8.497003,0 15.383229,-6.888337 15.383229,-15.383228 0,-7.679971 -5.625396,-14.042671 -12.978696,-15.196959"
       style="fill:#fab40a;fill-opacity:1;fill-rule:nonzero;stroke:none;stroke-width:0.0705554" />
    <path
       id="path1216"
       style="fill:url(#linearGradient1225);fill-opacity:1;stroke-width:2.11666;stroke-linecap:square;stroke-linejoin:round"
       d="m 19.010319,8.2868366 a 4.3520876,4.1894452 0 0 0 -4.279842,3.4674864 4.3520876,4.1894452 0 0 0 -0.887799,-0.08888 4.3520876,4.1894452 0 0 0 -4.3005158,3.560508 4.3520876,4.1894452 0 0 0 -1.2154266,-0.16846 4.3520876,4.1894452 0 0 0 -4.35219,4.189926 4.3520876,4.1894452 0 0 0 3.317626,4.059697 4.3520876,4.1894452 0 0 0 4.3366854,3.972888 4.3520876,4.1894452 0 0 0 1.878954,-0.416512 7.9375,7.9375 0 0 0 5.754688,2.494936 7.9375,7.9375 0 0 0 6.316926,-3.164665 4.3520876,4.1894452 0 0 0 1.569932,0.294555 4.3520876,4.1894452 0 0 0 4.30775,-3.591512 4.3520876,4.1894452 0 0 0 3.095413,-4.008021 4.3520876,4.1894452 0 0 0 -4.352184,-4.189924 4.3520876,4.1894452 0 0 0 -1.718759,0.347264 4.3520876,4.1894452 0 0 0 -4.217829,-3.156398 4.3520876,4.1894452 0 0 0 -0.931212,0.10748 4.3520876,4.1894452 0 0 0 -4.322217,-3.7103684 z" />
    <path
       id="path13"
       style="fill:#d79c15;fill-opacity:1;stroke-width:1.05833;stroke-linecap:square;stroke-linejoin:round"
       d="m 24.793061,21.595442 c -2.816434,3.150355 -6.909303,5.135604 -11.467,5.135604 -0.819853,0 -1.622747,-0.06516 -2.404504,-0.188619 2.440513,5.272611 7.774173,8.932788 13.964005,8.932788 6.604292,0 12.233619,-4.161891 14.414624,-10.004557 A 31.190863,19.996109 0 0 0 24.793061,21.595442 Z" />
    <path
       id="path1222"
       style="fill:#23435c;fill-opacity:1;stroke-width:2.11666;stroke-linecap:square;stroke-linejoin:round"
       d="m 20.200081,16.963837 a 29.489176,13.783931 0 0 0 -16.2222654,2.30787 4.3520876,4.1894452 0 0 0 3.314526,4.034897 4.3520876,4.1894452 0 0 0 4.3366894,3.972882 4.3520876,4.1894452 0 0 0 1.878955,-0.416512 7.9375,7.9375 0 0 0 5.754687,2.494936 7.9375,7.9375 0 0 0 6.316927,-3.164665 4.3520876,4.1894452 0 0 0 1.569926,0.294555 4.3520876,4.1894452 0 0 0 4.30775,-3.591512 4.3520876,4.1894452 0 0 0 3.095419,-4.008021 4.3520876,4.1894452 0 0 0 -0.0083,-0.17984 29.489176,13.783931 0 0 0 -14.344343,-1.744594 z" />
    <path
       id="path8"
       style="fill:url(#linearGradient9);fill-opacity:1;stroke-width:2.11666;stroke-linecap:square;stroke-linejoin:round"
       d="m 33.549968,18.088024 a 4.3520876,4.1894452 0 0 0 -4.279842,3.467486 4.3520876,4.1894452 0 0 0 -0.887799,-0.08888 4.3520876,4.1894452 0 0 0 -4.300516,3.560508 4.3520876,4.1894452 0 0 0 -1.215426,-0.16846 4.3520876,4.1894452 0 0 0 -4.35219,4.189926 4.3520876,4.1894452 0 0 0 3.317626,4.059697 4.3520876,4.1894452 0 0 0 4.336685,3.972888 4.3520876,4.1894452 0 0 0 1.878954,-0.416512 7.9375,7.9375 0 0 0 5.754688,2.494936 7.9375,7.9375 0 0 0 6.316926,-3.164665 4.3520876,4.1894452 0 0 0 1.569932,0.294555 4.3520876,4.1894452 0 0 0 4.30775,-3.591512 4.3520876,4.1894452 0 0 0 3.095413,-4.008021 4.3520876,4.1894452 0 0 0 -4.352184,-4.189924 4.3520876,4.1894452 0 0 0 -1.718759,0.347264 4.3520876,4.1894452 0 0 0 -4.217829,-3.156398 4.3520876,4.1894452 0 0 0 -0.931212,0.10748 4.3520876,4.1894452 0 0 0 -4.322217,-3.710368 z" />
    <path
       id="path9"
       style="fill:#23435c;fill-opacity:1;stroke-width:2.11666;stroke-linecap:square;stroke-linejoin:round"
       d="m 34.73973,26.765024 a 29.489176,13.783931 0 0 0 -16.222265,2.30787 4.3520876,4.1894452 0 0 0 3.314526,4.034897 4.3520876,4.1894452 0 0 0 4.336689,3.972882 4.3520876,4.1894452 0 0 0 1.878955,-0.416512 7.9375,7.9375 0 0 0 5.754687,2.494936 7.9375,7.9375 0 0 0 6.316927,-3.164665 4.3520876,4.1894452 0 0 0 1.569926,0.294555 4.3520876,4.1894452 0 0 0 4.30775,-3.591512 4.3520876,4.1894452 0 0 0 3.095419,-4.008021 4.3520876,4.1894452 0 0 0 -0.0083,-0.17984 29.489176,13.783931 0 0 0 -14.344343,-1.744594 z" />
    <path
       id="path11"
       style="fill:url(#linearGradient12);fill-opacity:1;stroke-width:2.11666;stroke-linecap:square;stroke-linejoin:round"
       d="m 18.984203,27.733703 a 4.3520876,4.1894452 0 0 0 -4.279842,3.467486 4.3520876,4.1894452 0 0 0 -0.887799,-0.08888 4.3520876,4.1894452 0 0 0 -4.3005156,3.560508 4.3520876,4.1894452 0 0 0 -1.215426,-0.16846 4.3520876,4.1894452 0 0 0 -4.35219,4.189926 4.3520876,4.1894452 0 0 0 3.317626,4.059697 4.3520876,4.1894452 0 0 0 4.3366846,3.972888 4.3520876,4.1894452 0 0 0 1.878954,-0.416512 7.9375,7.9375 0 0 0 5.754688,2.494936 7.9375,7.9375 0 0 0 6.316926,-3.164665 4.3520876,4.1894452 0 0 0 1.569932,0.294555 4.3520876,4.1894452 0 0 0 4.30775,-3.591512 4.3520876,4.1894452 0 0 0 3.095413,-4.008021 4.3520876,4.1894452 0 0 0 -4.352184,-4.189924 4.3520876,4.1894452 0 0 0 -1.718759,0.347264 4.3520876,4.1894452 0 0 0 -4.217829,-3.156398 4.3520876,4.1894452 0 0 0 -0.931212,0.10748 4.3520876,4.1894452 0 0 0 -4.322217,-3.710368 z" />
    <path
       id="path12"
       style="fill:#23435c;fill-opacity:1;stroke-width:2.11666;stroke-linecap:square;stroke-linejoin:round"
       d="m 20.173965,36.410703 a 29.489176,13.783931 0 0 0 -16.2222646,2.30787 4.3520876,4.1894452 0 0 0 3.314526,4.034897 4.3520876,4.1894452 0 0 0 4.3366886,3.972882 4.3520876,4.1894452 0 0 0 1.878955,-0.416512 7.9375,7.9375 0 0 0 5.754687,2.494936 7.9375,7.9375 0 0 0 6.316927,-3.164665 4.3520876,4.1894452 0 0 0 1.569926,0.294555 4.3520876,4.1894452 0 0 0 4.30775,-3.591512 4.3520876,4.1894452 0 0 0 3.095419,-4.008021 4.3520876,4.1894452 0 0 0 -0.0083,-0.17984 29.489176,13.783931 0 0 0 -14.344343,-1.744594 z" />
  </g>
</svg>
