<?xml version="1.0" encoding="UTF-8" standalone="no"?>
<!-- Created with Inkscape (http://www.inkscape.org/) -->

<svg
   width="200"
   height="200"
   viewBox="0 0 52.916665 52.916666"
   version="1.1"
   id="svg1"
   inkscape:version="1.3.2 (091e20ef0f, 2023-11-25, custom)"
   sodipodi:docname="fog-day.svg"
   xmlns:inkscape="http://www.inkscape.org/namespaces/inkscape"
   xmlns:sodipodi="http://sodipodi.sourceforge.net/DTD/sodipodi-0.dtd"
   xmlns="http://www.w3.org/2000/svg"
   xmlns:svg="http://www.w3.org/2000/svg">
  <sodipodi:namedview
     id="namedview1"
     pagecolor="#ffffff"
     bordercolor="#000000"
     borderopacity="0.25"
     inkscape:showpageshadow="2"
     inkscape:pageopacity="0.0"
     inkscape:pagecheckerboard="0"
     inkscape:deskcolor="#d1d1d1"
     inkscape:document-units="mm"
     inkscape:zoom="3.6203867"
     inkscape:cx="97.77961"
     inkscape:cy="103.30388"
     inkscape:window-width="1920"
     inkscape:window-height="1012"
     inkscape:window-x="0"
     inkscape:window-y="31"
     inkscape:window-maximized="1"
     inkscape:current-layer="layer1" />
  <defs
     id="defs1">
    <linearGradient
       x1="0"
       y1="0"
       x2="1"
       y2="0"
       gradientUnits="userSpaceOnUse"
       gradientTransform="matrix(466.421,466.421,466.421,-466.421,1157.15,3169.41)"
       spreadMethod="pad"
       id="linearGradient163">
      <stop
         style="stop-opacity:1;stop-color:#e8e8e7"
         offset="0"
         id="stop162" />
      <stop
         style="stop-opacity:1;stop-color:#fcfcfc"
         offset="1"
         id="stop163" />
    </linearGradient>
    <clipPath
       clipPathUnits="userSpaceOnUse"
       id="clipPath163">
      <path
         d="m 1705.69,3462.67 -2.01,1.58 -0.3,0.27 -67.91,54.59 9.41,86.62 c 1.58,14.56 -3.52,29.07 -13.89,39.44 -10.37,10.38 -24.88,15.48 -39.45,13.88 l -86.59,-9.42 -54.61,67.92 c -9.18,11.43 -23.05,18.08 -37.72,18.08 -14.66,0 -28.53,-6.65 -37.7,-18.08 l -54.6,-67.92 -86.61,9.42 c -14.59,1.6 -29.08,-3.5 -39.44,-13.88 -10.36,-10.37 -15.48,-24.88 -13.9,-39.44 l 9.41,-86.61 -65.08,-52.33 -2.63,-2.05 -2.33,-1.89 c -11.41,-9.18 -18.04,-23.03 -18.07,-37.65 -0.01,-14.64 6.59,-28.49 17.98,-37.69 l 69.77,-56.41 -9.05,-83.19 -0.09,-2 -0.21,-1.8 c -1.56,-14.55 3.55,-29.05 13.91,-39.39 10.35,-10.36 24.87,-15.47 39.4,-13.89 l 85.36,9.21 56.36,-69.19 c 9.19,-11.29 22.97,-17.84 37.52,-17.84 h 0.06 c 14.58,0.03 28.37,6.59 37.54,17.91 l 56.13,69.26 85.11,-9.39 c 14.61,-1.62 29.11,3.48 39.51,13.83 9.55,9.57 14.59,22.67 14.08,36.08 0.1,2.4 0.09,4.78 -0.18,7.2 l -9.04,83.1 69.92,56.19 c 11.43,9.18 18.08,23.06 18.08,37.74 -0.01,14.69 -6.68,28.57 -18.14,37.74"
         id="path163" />
    </clipPath>
    <clipPath
       clipPathUnits="userSpaceOnUse"
       id="clipPath171">
      <path
         d="m 1412.62,3269.84 c -86.06,0 -155.93,69.26 -156.94,155.07 -0.01,0.63 -0.02,1.26 -0.02,1.89 0,-2.84 0.09,-5.68 0.24,-8.49 49.14,5.53 101.82,8.56 156.72,8.56 54.91,0 107.62,-3.03 156.77,-8.56 -4.41,-82.73 -72.9,-148.47 -156.77,-148.47 m 156.78,148.59 c 0.13,2.77 0.22,5.57 0.22,8.37 0,-0.63 0,-1.26 -0.01,-1.89 -0.03,-2.17 -0.1,-4.33 -0.21,-6.48"
         transform="matrix(0.00301023,0,0,-0.00574053,-3.7564721,19.719288)"
         id="path171" />
    </clipPath>
  </defs>
  <g
     inkscape:label="Capa 1"
     inkscape:groupmode="layer"
     id="layer1">
    <path
       id="path774"
       style="fill:#ffffff;fill-opacity:1;stroke-width:2.11667;stroke-linecap:square;stroke-linejoin:round"
       d="m 31.50218,31.747089 c -2.765446,0.05712 -5.534449,-0.05223 -8.297868,0.06748 -2.211557,0.282003 -3.797474,2.797402 -3.064743,4.911026 0.513154,1.782694 2.437691,2.914174 4.24615,2.707735 2.629149,-0.02005 5.260906,0.04784 7.888271,-0.0481 2.2517,-0.247957 3.856382,-2.813849 3.117358,-4.949941 -0.496342,-1.655355 -2.187284,-2.752313 -3.889168,-2.688209 z" />
    <path
       id="path773"
       style="fill:#ffffff;fill-opacity:1;stroke-width:2.11667;stroke-linecap:square;stroke-linejoin:round"
       d="m 34.982075,28.405693 c -4.814771,0.03223 -9.630521,-0.01201 -14.444736,0.03344 -2.238354,0.151352 -3.944165,2.603479 -3.329999,4.75651 0.42617,1.853205 2.374736,3.103996 4.233439,2.895378 4.740318,-0.0072 9.481709,0.02513 14.221312,-0.02889 2.255864,-0.177419 3.923342,-2.697723 3.24739,-4.847288 -0.45185,-1.717098 -2.17877,-2.880201 -3.927406,-2.809129 z" />
    <path
       id="path772"
       style="fill:#ffffff;fill-opacity:1;stroke-width:2.11667;stroke-linecap:square;stroke-linejoin:round"
       d="m 40.587934,25.063259 c -5.438457,0.02937 -10.877909,-0.0037 -16.315811,0.02466 -1.661478,-5.29e-4 -3.184187,1.249448 -3.578305,2.850727 -0.502062,1.683851 0.369761,3.626945 1.957213,4.376378 0.835142,0.449215 1.801908,0.493506 2.726875,0.433657 5.296213,-0.007 10.593494,0.02461 15.889013,-0.029 2.236983,-0.176647 3.899657,-2.657221 3.261334,-4.797298 -0.436621,-1.745091 -2.168933,-2.928387 -3.940319,-2.859119 z" />
    <path
       id="path228"
       style="fill:#ffffff;fill-opacity:1;stroke-width:2.11667;stroke-linecap:square;stroke-linejoin:round"
       d="m 45.862028,21.723927 c -8.770885,0.02053 -17.542399,0.0011 -26.312919,0.02005 -1.306703,-0.05695 -2.587355,0.640106 -3.271578,1.74988 -0.841872,1.23861 -0.84664,2.965133 0.007,4.199297 0.837279,1.271778 2.43939,1.885093 3.92494,1.712976 8.74685,-0.0016 17.494234,0.0084 26.240746,-0.01725 2.245312,-0.119083 3.982783,-2.557488 3.394032,-4.720462 -0.405934,-1.78734 -2.172377,-3.035803 -3.982185,-2.944527 z" />
    <path
       id="path2"
       style="fill:#ffffff;fill-opacity:1;stroke-width:2.11667;stroke-linecap:square;stroke-linejoin:round"
       d="m 30.871396,16.932098 c -5.438457,0.02937 -10.877909,-0.0037 -16.315811,0.02466 -1.661478,-5.29e-4 -3.184187,1.249448 -3.578305,2.850727 -0.502062,1.683851 0.369761,3.626945 1.957213,4.376378 0.835142,0.449215 1.801908,0.493506 2.726875,0.433657 5.296213,-0.007 10.593494,0.02461 15.889013,-0.029 2.236983,-0.176647 3.899657,-2.657221 3.261334,-4.797298 -0.436621,-1.745091 -2.168933,-2.928387 -3.940319,-2.859119 z" />
    <path
       id="path162"
       d="m 1705.69,3462.67 -2.01,1.58 -0.3,0.27 -67.91,54.59 9.41,86.62 c 1.58,14.56 -3.52,29.07 -13.89,39.44 -10.37,10.38 -24.88,15.48 -39.45,13.88 l -86.59,-9.42 -54.61,67.92 c -9.18,11.43 -23.05,18.08 -37.72,18.08 -14.66,0 -28.53,-6.65 -37.7,-18.08 l -54.6,-67.92 -86.61,9.42 c -14.59,1.6 -29.08,-3.5 -39.44,-13.88 -10.36,-10.37 -15.48,-24.88 -13.9,-39.44 l 9.41,-86.61 -65.08,-52.33 -2.63,-2.05 -2.33,-1.89 c -11.41,-9.18 -18.04,-23.03 -18.07,-37.65 -0.01,-14.64 6.59,-28.49 17.98,-37.69 l 69.77,-56.41 -9.05,-83.19 -0.09,-2 -0.21,-1.8 c -1.56,-14.55 3.55,-29.05 13.91,-39.39 10.35,-10.36 24.87,-15.47 39.4,-13.89 l 85.36,9.21 56.36,-69.19 c 9.19,-11.29 22.97,-17.84 37.52,-17.84 h 0.06 c 14.58,0.03 28.37,6.59 37.54,17.91 l 56.13,69.26 85.11,-9.39 c 14.61,-1.62 29.11,3.48 39.51,13.83 9.55,9.57 14.59,22.67 14.08,36.08 0.1,2.4 0.09,4.78 -0.18,7.2 l -9.04,83.1 69.92,56.19 c 11.43,9.18 18.08,23.06 18.08,37.74 -0.01,14.69 -6.68,28.57 -18.14,37.74"
       style="fill:#ffffff;fill-opacity:1;fill-rule:nonzero;stroke:none"
       transform="matrix(0.07654783,0,0,-0.07654783,-81.583004,288.58261)"
       clip-path="url(#clipPath163)" />
    <g
       id="g1195"
       transform="matrix(0.57410871,0,0,0.57410871,228.92993,-51.836505)">
      <path
         id="path1172-4"
         d="m -333.34955,136.37706 c 0,10.57333 -8.57068,19.144 -19.14668,19.144 -10.572,0 -19.14267,-8.57067 -19.14267,-19.144 0,-10.57334 8.57067,-19.14534 19.14267,-19.14534 10.576,0 19.14667,8.572 19.14667,19.14534"
         style="fill:#fab40a;fill-opacity:1;fill-rule:nonzero;stroke:none;stroke-width:0.133333" />
      <path
         id="path1173-7"
         d="m -343.90022,157.13706 c -2.71334,0.868 -5.59734,1.352 -8.59467,1.352 -3,0 -5.87467,-0.484 -8.588,-1.34934 -2.53333,-1.30266 -4.92133,-3.00266 -7.04667,-5.12666 -2.12,-2.124 -3.81733,-4.50534 -5.12533,-7.04 -0.864,-2.71334 -1.352,-5.59467 -1.352,-8.596 0,-2.99867 0.488,-5.88267 1.352,-8.59467 1.308,-2.536 3.00533,-4.91867 5.12533,-7.03867 2.12534,-2.12533 4.51067,-3.82266 7.044,-5.12533 2.716,-0.86933 5.59067,-1.35333 8.59067,-1.35333 3,0 5.88133,0.484 8.592,1.35333 2.536,1.30267 4.92133,3.00133 7.044,5.12533 2.12267,2.12134 3.82,4.50267 5.12267,7.03467 0.86933,2.716 1.35333,5.596 1.35333,8.59867 0,3.00266 -0.484,5.88266 -1.35333,8.59733 -1.30267,2.53467 -3,4.91733 -5.12267,7.03867 -2.12267,2.124 -4.508,3.82133 -7.04133,5.124 m 12.36666,-12.076 10.8,-8.684 -10.8,-8.68267 1.49734,-13.77333 -13.776,1.49733 -8.68267,-10.80267 -8.68133,10.80267 -13.776,-1.49733 1.5,13.77333 -10.80267,8.68267 10.80267,8.684 -1.5,13.772 13.77333,-1.49867 8.684,10.80267 8.68267,-10.80134 13.776,1.49867 -1.49734,-13.77333"
         style="fill:#fab40a;fill-opacity:1;fill-rule:nonzero;stroke:none;stroke-width:0.133333" />
    </g>
    <path
       id="path1"
       style="fill:#d79c15;fill-opacity:1;stroke-width:1.05833;stroke-linecap:square;stroke-linejoin:round"
       d="M 26.86451 24.988139 A 41.756626 15.683649 0 0 0 15.605766 25.592236 C 15.583426 25.87842 15.568559 26.166933 15.568559 26.45885 C 15.568559 32.529079 20.489121 37.449394 26.558586 37.449394 C 32.630348 37.449394 37.551196 32.529079 37.551196 26.45885 C 37.551196 26.137946 37.534219 25.820895 37.507271 25.50697 A 41.756626 15.683649 0 0 0 26.86451 24.988139 z M 39.234298 25.693005 C 39.246482 25.946903 39.254451 26.201744 39.254451 26.45885 C 39.254451 28.182699 38.976326 29.835954 38.477238 31.394466 C 37.729365 32.84964 36.754974 34.217685 35.536332 35.435563 C 34.317691 36.654968 32.948088 37.62963 31.493685 38.377502 C 29.935935 38.875828 28.280409 39.153682 26.559619 39.153682 C 24.837297 39.153682 23.186913 38.875333 21.629171 38.378536 C 20.174766 37.630669 18.803597 36.654968 17.583423 35.435563 C 16.366315 34.216158 15.391899 32.849118 14.640967 31.393949 C 14.144937 29.836201 13.864787 28.181936 13.864787 26.45885 C 13.864787 26.236134 13.870018 26.014741 13.879256 25.794291 A 41.756626 15.683649 0 0 0 8.5100749 26.606645 L 14.527795 31.444076 L 13.666349 39.351086 L 21.573877 38.490674 L 26.559619 44.692362 L 31.544328 38.491191 L 39.453406 39.351603 L 38.59351 31.444076 L 44.740422 26.501742 A 41.756626 15.683649 0 0 0 39.234298 25.693005 z " />
    <path
       id="rect221"
       style="fill:#7191d8;fill-opacity:1;stroke-width:2.11667;stroke-linecap:square;stroke-linejoin:round"
       d="m 35.877002,32.254666 c 0,-0.365316 -0.296143,-0.661458 -0.661459,-0.661458 H 20.928017 c -0.365316,0 -0.661458,0.296142 -0.661458,0.661458 0,0.365315 0.296142,0.661458 0.661458,0.661458 h 14.287526 c 0.365316,0 0.661459,-0.296143 0.661459,-0.661458 z"
       sodipodi:nodetypes="sssssss" />
    <path
       id="path222"
       style="fill:#7191d8;fill-opacity:1;stroke-width:2.11667;stroke-linecap:square;stroke-linejoin:round"
       d="m 41.481935,28.911994 c 0,-0.365315 -0.296143,-0.661458 -0.661458,-0.661458 h -16.43026 c -0.365316,0 -0.661458,0.296143 -0.661458,0.661458 0,0.365316 0.296142,0.661459 0.661458,0.661459 h 16.43026 c 0.365315,0 0.661458,-0.296143 0.661458,-0.661459 z"
       sodipodi:nodetypes="sssssss" />
    <path
       id="path226"
       style="fill:#7191d8;fill-opacity:1;stroke-width:2.11667;stroke-linecap:square;stroke-linejoin:round"
       d="m 32.393529,35.597338 a 0.66145832,0.66145832 0 0 0 -0.661458,-0.661459 h -7.9375 a 0.66145832,0.66145832 0 0 0 -0.661458,0.661459 0.66145832,0.66145832 0 0 0 0.661458,0.661458 h 7.9375 a 0.66145832,0.66145832 0 0 0 0.661458,-0.661458 z" />
    <path
       id="path227"
       style="fill:#7191d8;fill-opacity:1;stroke-width:2.11667;stroke-linecap:square;stroke-linejoin:round"
       d="m 46.773602,25.569322 c 0,-0.365315 -0.296143,-0.661458 -0.661458,-0.661458 H 19.480175 c -0.365316,0 -0.661459,0.296143 -0.661459,0.661458 0,0.365316 0.296143,0.661459 0.661459,0.661459 h 26.631969 c 0.365315,0 0.661458,-0.296143 0.661458,-0.661459 z"
       sodipodi:nodetypes="sssssss" />
    <path
       id="path3"
       style="fill:#7191d8;fill-opacity:1;stroke-width:2.11667;stroke-linecap:square;stroke-linejoin:round"
       d="m 31.765397,20.780833 c 0,-0.365315 -0.296143,-0.661458 -0.661458,-0.661458 h -16.43026 c -0.365316,0 -0.661458,0.296143 -0.661458,0.661458 0,0.365316 0.296142,0.661459 0.661458,0.661459 h 16.43026 c 0.365315,0 0.661458,-0.296143 0.661458,-0.661459 z"
       sodipodi:nodetypes="sssssss" />
  </g>
</svg>
