<?xml version="1.0" encoding="UTF-8" standalone="no"?>
<!-- Created with Inkscape (http://www.inkscape.org/) -->

<svg
   width="200"
   height="200"
   viewBox="0 0 52.916665 52.916666"
   version="1.1"
   id="svg1"
   inkscape:version="1.3.2 (091e20ef0f, 2023-11-25, custom)"
   sodipodi:docname="isolated-thunderstorms-night.svg"
   xmlns:inkscape="http://www.inkscape.org/namespaces/inkscape"
   xmlns:sodipodi="http://sodipodi.sourceforge.net/DTD/sodipodi-0.dtd"
   xmlns:xlink="http://www.w3.org/1999/xlink"
   xmlns="http://www.w3.org/2000/svg"
   xmlns:svg="http://www.w3.org/2000/svg">
  <sodipodi:namedview
     id="namedview1"
     pagecolor="#ffffff"
     bordercolor="#000000"
     borderopacity="0.25"
     inkscape:showpageshadow="2"
     inkscape:pageopacity="0.0"
     inkscape:pagecheckerboard="0"
     inkscape:deskcolor="#d1d1d1"
     inkscape:document-units="mm"
     inkscape:zoom="2.56"
     inkscape:cx="125.78125"
     inkscape:cy="97.265625"
     inkscape:window-width="1920"
     inkscape:window-height="1012"
     inkscape:window-x="0"
     inkscape:window-y="31"
     inkscape:window-maximized="1"
     inkscape:current-layer="layer1" />
  <defs
     id="defs1">
    <linearGradient
       x1="0"
       y1="0"
       x2="1"
       y2="0"
       gradientUnits="userSpaceOnUse"
       gradientTransform="matrix(466.421,466.421,466.421,-466.421,1157.15,3169.41)"
       spreadMethod="pad"
       id="linearGradient163">
      <stop
         style="stop-opacity:1;stop-color:#e8e8e7"
         offset="0"
         id="stop162" />
      <stop
         style="stop-opacity:1;stop-color:#fcfcfc"
         offset="1"
         id="stop163" />
    </linearGradient>
    <clipPath
       clipPathUnits="userSpaceOnUse"
       id="clipPath163">
      <path
         d="m 1705.69,3462.67 -2.01,1.58 -0.3,0.27 -67.91,54.59 9.41,86.62 c 1.58,14.56 -3.52,29.07 -13.89,39.44 -10.37,10.38 -24.88,15.48 -39.45,13.88 l -86.59,-9.42 -54.61,67.92 c -9.18,11.43 -23.05,18.08 -37.72,18.08 -14.66,0 -28.53,-6.65 -37.7,-18.08 l -54.6,-67.92 -86.61,9.42 c -14.59,1.6 -29.08,-3.5 -39.44,-13.88 -10.36,-10.37 -15.48,-24.88 -13.9,-39.44 l 9.41,-86.61 -65.08,-52.33 -2.63,-2.05 -2.33,-1.89 c -11.41,-9.18 -18.04,-23.03 -18.07,-37.65 -0.01,-14.64 6.59,-28.49 17.98,-37.69 l 69.77,-56.41 -9.05,-83.19 -0.09,-2 -0.21,-1.8 c -1.56,-14.55 3.55,-29.05 13.91,-39.39 10.35,-10.36 24.87,-15.47 39.4,-13.89 l 85.36,9.21 56.36,-69.19 c 9.19,-11.29 22.97,-17.84 37.52,-17.84 h 0.06 c 14.58,0.03 28.37,6.59 37.54,17.91 l 56.13,69.26 85.11,-9.39 c 14.61,-1.62 29.11,3.48 39.51,13.83 9.55,9.57 14.59,22.67 14.08,36.08 0.1,2.4 0.09,4.78 -0.18,7.2 l -9.04,83.1 69.92,56.19 c 11.43,9.18 18.08,23.06 18.08,37.74 -0.01,14.69 -6.68,28.57 -18.14,37.74"
         id="path163" />
    </clipPath>
    <clipPath
       clipPathUnits="userSpaceOnUse"
       id="clipPath171">
      <path
         d="m 1412.62,3269.84 c -86.06,0 -155.93,69.26 -156.94,155.07 -0.01,0.63 -0.02,1.26 -0.02,1.89 0,-2.84 0.09,-5.68 0.24,-8.49 49.14,5.53 101.82,8.56 156.72,8.56 54.91,0 107.62,-3.03 156.77,-8.56 -4.41,-82.73 -72.9,-148.47 -156.77,-148.47 m 156.78,148.59 c 0.13,2.77 0.22,5.57 0.22,8.37 0,-0.63 0,-1.26 -0.01,-1.89 -0.03,-2.17 -0.1,-4.33 -0.21,-6.48"
         transform="matrix(0.00301023,0,0,-0.00574053,-3.7564721,19.719288)"
         id="path171" />
    </clipPath>
    <linearGradient
       inkscape:collect="always"
       xlink:href="#linearGradient1224"
       id="linearGradient1225"
       x1="-156.12976"
       y1="175.55699"
       x2="-179.3593"
       y2="195.3158"
       gradientUnits="userSpaceOnUse"
       gradientTransform="matrix(0.52916666,0,0,0.52916666,126.51651,-73.676074)" />
    <linearGradient
       id="linearGradient1224"
       inkscape:collect="always">
      <stop
         style="stop-color:#23435c;stop-opacity:1;"
         offset="0"
         id="stop1224" />
      <stop
         style="stop-color:#346991;stop-opacity:1;"
         offset="1"
         id="stop1225" />
    </linearGradient>
  </defs>
  <g
     inkscape:label="Capa 1"
     inkscape:groupmode="layer"
     id="layer1">
    <path
       id="path1082-1"
       d="m 44.396737,26.181148 c 0,-9.172226 -6.569429,-16.8606629 -15.61747,-18.28165 -1.139476,-0.1778 -2.281767,0.2836333 -2.976743,1.2029704 -0.694266,0.9200466 -0.826203,2.1462996 -0.3429,3.1926376 0.75001,1.621366 1.1303,3.350683 1.1303,5.142092 0,0.20955 -0.0057,0.4191 -0.01693,0.625824 l -0.0042,0.06491 c -0.359124,6.439604 -5.711471,11.5697 -12.239271,11.5697 -0.638529,0 -1.283403,-0.0508 -1.918403,-0.150987 l -0.140409,-0.01201 -0.14605,-0.02185 c -1.128887,-0.175683 -2.2613037,0.277283 -2.9562741,1.1811 -0.6956795,0.90452 -0.8438462,2.115254 -0.3852333,3.160183 2.9414574,6.69925 9.8551994,11.200691 17.2028534,11.200691 9.980083,0 18.410766,-8.396817 18.410766,-18.33527 0,-0.0882 -0.0042,-0.17498 -0.0042,-0.262467 0,-0.09243 0.0042,-0.183446 0.0042,-0.27587"
       style="fill:#ffffff;fill-opacity:1;fill-rule:nonzero;stroke:none;stroke-width:0.0705554" />
    <path
       id="path1228"
       style="fill:#ffffff;fill-opacity:1;fill-rule:nonzero;stroke:none;stroke-width:0.0705554"
       d="m 25.281042,32.533143 c -1.353068,0.09483 -2.371804,1.09148 -3.255803,2.019167 -1.851428,1.845289 -4.005543,3.421523 -5.529252,5.571035 -0.659532,0.951685 -0.830231,2.288688 -0.171826,3.28603 0.295778,0.500713 0.745252,0.881523 1.182677,1.254294 -0.379413,0.799905 -0.961057,1.482434 -1.378199,2.263886 -0.701003,1.091507 -1.35436,2.414667 -0.991679,3.73988 0.452136,1.519418 2.360485,2.334874 3.777546,1.632977 1.122966,-0.50473 1.921065,-1.486667 2.953671,-2.133277 1.763802,-1.27335 3.733874,-2.352008 5.120983,-4.067583 0.798074,-1.04304 1.021869,-2.582587 0.266425,-3.709828 -0.267419,-0.432927 -0.671713,-0.752962 -1.060905,-1.070552 0.345615,-1.832107 1.439625,-3.428328 1.766549,-5.263436 0.198522,-1.124066 -0.0854,-2.445908 -1.104053,-3.094709 -0.46083,-0.309171 -1.021567,-0.467249 -1.576134,-0.427884 z" />
    <path
       id="path1228-8"
       style="fill:#ffffff;fill-opacity:1;fill-rule:nonzero;stroke:none;stroke-width:0.0705554"
       d="m 34.109872,32.451802 c -1.353068,0.09483 -2.371804,1.09148 -3.255803,2.019167 -1.851428,1.845289 -4.005543,3.421523 -5.529252,5.571035 -0.659532,0.951685 -0.830231,2.288688 -0.171826,3.28603 0.295778,0.500713 0.745252,0.881523 1.182677,1.254294 -0.379413,0.799905 -0.961057,1.482434 -1.378199,2.263886 -0.701003,1.091507 -1.35436,2.414667 -0.991679,3.73988 0.452136,1.519418 2.360485,2.334874 3.777546,1.632977 1.122966,-0.50473 1.921065,-1.486667 2.953671,-2.133277 1.763802,-1.27335 3.733874,-2.352008 5.120983,-4.067583 0.798074,-1.04304 1.021869,-2.582587 0.266425,-3.709828 -0.267419,-0.432927 -0.671713,-0.752962 -1.060905,-1.070552 0.345615,-1.832107 1.439625,-3.428328 1.766549,-5.263436 0.198522,-1.124066 -0.0854,-2.445908 -1.104053,-3.094709 -0.46083,-0.309171 -1.021567,-0.467249 -1.576134,-0.427884 z" />
    <path
       id="path1228-2"
       style="fill:#ffffff;fill-opacity:1;fill-rule:nonzero;stroke:none;stroke-width:0.0705554"
       d="m 43.096439,32.757266 c -1.353068,0.09483 -2.371804,1.09148 -3.255803,2.019167 -1.851428,1.845289 -4.005543,3.421523 -5.529252,5.571035 -0.659532,0.951685 -0.830231,2.288688 -0.171826,3.28603 0.295778,0.500713 0.745252,0.881523 1.182677,1.254294 -0.379413,0.799905 -0.961057,1.482434 -1.378199,2.263886 -0.701003,1.091507 -1.35436,2.414667 -0.991679,3.73988 0.452136,1.519418 2.360485,2.334874 3.777546,1.632977 1.122966,-0.50473 1.921065,-1.486667 2.953671,-2.133277 1.763802,-1.27335 3.733874,-2.352008 5.120983,-4.067583 0.798074,-1.04304 1.021869,-2.582587 0.266425,-3.709828 -0.267419,-0.432927 -0.671713,-0.752962 -1.060905,-1.070552 0.345615,-1.832107 1.439625,-3.428328 1.766549,-5.263436 0.198522,-1.124066 -0.0854,-2.445908 -1.104053,-3.094709 -0.46083,-0.309171 -1.021567,-0.467249 -1.576134,-0.427884 z" />
    <path
       id="path1224"
       style="fill:#ffffff;fill-opacity:1;stroke-width:2.11667;stroke-linecap:square;stroke-linejoin:round"
       d="m 33.247784,13.666393 c -2.46109,0.0489 -4.857559,1.389962 -6.173268,3.472656 -2.081006,0.329703 -3.999585,1.56836 -5.153173,3.3321 -3.033009,0.321379 -5.798191,2.633091 -6.468857,5.637895 -0.728154,2.881313 0.564992,6.122348 3.06015,7.730951 0.246163,0.182626 0.5851,0.270489 0.624369,0.621802 1.163775,2.771453 4.12469,4.650264 7.128441,4.524323 0.307473,0.02132 0.642657,-0.08883 0.930302,-0.04138 3.223863,2.387181 7.791307,2.812139 11.374718,0.985308 0.934137,-0.45393 1.799023,-1.046459 2.571411,-1.740059 3.046042,0.20691 6.16993,-1.609693 7.356655,-4.448307 2.664481,-1.491742 4.176998,-4.788969 3.523276,-7.781486 -0.628544,-3.138673 -3.50302,-5.653421 -6.699361,-5.854351 -0.299233,-0.08352 -0.712179,0.113681 -0.873279,-0.231018 -1.140941,-1.311773 -2.745475,-2.212553 -4.46071,-2.498038 -1.355286,-2.338594 -4.042511,-3.807587 -6.740674,-3.710368 z" />
    <path
       id="path1084-0"
       d="m 28.153077,11.16824 c 0.908759,1.962854 1.416759,4.147254 1.416759,6.452304 0,8.495596 -6.886225,15.383229 -15.380408,15.383229 -0.819854,0 -1.622775,-0.06491 -2.404534,-0.188383 2.440517,5.272617 7.773813,8.933037 13.96365,8.933037 8.497004,0 15.383229,-6.888337 15.383229,-15.383229 0,-7.679971 -5.625396,-14.042671 -12.978696,-15.196958"
       style="fill:#fab40a;fill-opacity:1;fill-rule:nonzero;stroke:none;stroke-width:0.0705554" />
    <path
       id="path1216"
       style="fill:url(#linearGradient1225);fill-opacity:1;stroke-width:2.11667;stroke-linecap:square;stroke-linejoin:round"
       d="m 33.454318,16.831566 a 4.3520875,4.1894453 0 0 0 -4.279842,3.467488 4.3520875,4.1894453 0 0 0 -0.887798,-0.08888 4.3520875,4.1894453 0 0 0 -4.300517,3.560508 4.3520875,4.1894453 0 0 0 -1.215427,-0.168465 4.3520875,4.1894453 0 0 0 -4.352189,4.189925 4.3520875,4.1894453 0 0 0 3.317626,4.059698 4.3520875,4.1894453 0 0 0 4.336685,3.972888 4.3520875,4.1894453 0 0 0 1.878954,-0.416512 7.9374999,7.9374999 0 0 0 5.754688,2.494936 7.9374999,7.9374999 0 0 0 6.316927,-3.164665 4.3520875,4.1894453 0 0 0 1.569932,0.294555 4.3520875,4.1894453 0 0 0 4.307749,-3.591512 4.3520875,4.1894453 0 0 0 3.095414,-4.00802 4.3520875,4.1894453 0 0 0 -4.352184,-4.189926 4.3520875,4.1894453 0 0 0 -1.71876,0.347266 4.3520875,4.1894453 0 0 0 -4.217829,-3.1564 4.3520875,4.1894453 0 0 0 -0.931211,0.10749 4.3520875,4.1894453 0 0 0 -4.322218,-3.71037 z" />
    <path
       id="path1222"
       style="fill:#23435c;fill-opacity:1;stroke-width:2.11667;stroke-linecap:square;stroke-linejoin:round"
       d="m 34.644081,25.508567 a 29.489175,13.783931 0 0 0 -16.222266,2.307871 4.3520875,4.1894453 0 0 0 3.314526,4.034895 4.3520875,4.1894453 0 0 0 4.33669,3.972883 4.3520875,4.1894453 0 0 0 1.878954,-0.416512 7.9374999,7.9374999 0 0 0 5.754687,2.494936 7.9374999,7.9374999 0 0 0 6.316927,-3.164665 4.3520875,4.1894453 0 0 0 1.569927,0.294555 4.3520875,4.1894453 0 0 0 4.30775,-3.591512 4.3520875,4.1894453 0 0 0 3.095418,-4.00802 4.3520875,4.1894453 0 0 0 -0.0083,-0.179837 29.489175,13.783931 0 0 0 -14.344342,-1.744594 z" />
    <path
       id="path764"
       d="m 24.559857,36.513667 -5.41937,5.415846 2.372783,1.962854 -2.605617,4.519787 5.67055,-4.361741 -0.09807,-0.09948 -2.274009,-2.096912 2.353733,-5.34035"
       style="fill:#fbc108;fill-opacity:1;fill-rule:nonzero;stroke:none;stroke-width:0.0705554" />
    <path
       id="path1229"
       style="fill:#f9b30a;fill-opacity:1;stroke-width:2.11667;stroke-linecap:square;stroke-linejoin:round"
       d="m 19.430507,42.169612 2.082562,1.722887 -2.605527,4.519618 5.670973,-4.361487 -0.09819,-0.09922 -1.276408,-1.177184 a 16.536816,7.3704751 10 0 0 -1.365287,-0.26769 16.536816,7.3704751 10 0 0 -2.408126,-0.336925 z" />
    <path
       id="path764-9"
       d="m 33.388687,36.432326 -5.41937,5.415846 2.372783,1.962854 -2.605617,4.519787 5.67055,-4.361741 -0.09807,-0.09948 -2.274009,-2.096912 2.353733,-5.34035"
       style="fill:#fbc108;fill-opacity:1;fill-rule:nonzero;stroke:none;stroke-width:0.0705554" />
    <path
       id="path1229-7"
       style="fill:#f9b30a;fill-opacity:1;stroke-width:2.11667;stroke-linecap:square;stroke-linejoin:round"
       d="m 28.259337,42.088271 2.082562,1.722887 -2.605527,4.519618 5.670973,-4.361487 -0.09819,-0.09922 -1.276408,-1.177184 A 16.536816,7.3704751 10 0 0 30.66746,42.425195 16.536816,7.3704751 10 0 0 28.259334,42.08827 Z" />
    <path
       id="path764-93"
       d="m 42.375254,36.73779 -5.41937,5.415846 2.372783,1.962854 -2.605617,4.519787 5.67055,-4.361741 -0.09807,-0.09948 -2.274009,-2.096912 2.353733,-5.34035"
       style="fill:#fbc108;fill-opacity:1;fill-rule:nonzero;stroke:none;stroke-width:0.0705554" />
    <path
       id="path1229-1"
       style="fill:#f9b30a;fill-opacity:1;stroke-width:2.11667;stroke-linecap:square;stroke-linejoin:round"
       d="m 37.245904,42.393735 2.082562,1.722887 -2.605527,4.519618 5.670973,-4.361487 -0.09819,-0.09922 -1.276408,-1.177184 a 16.536816,7.3704751 10 0 0 -1.365287,-0.26769 16.536816,7.3704751 10 0 0 -2.408126,-0.336925 z" />
  </g>
</svg>
