<?xml version="1.0" encoding="UTF-8" standalone="no"?>
<!-- Created with Inkscape (http://www.inkscape.org/) -->

<svg
   width="200"
   height="200"
   viewBox="0 0 52.916665 52.916666"
   version="1.1"
   id="svg1"
   inkscape:version="1.3.2 (091e20ef0f, 2023-11-25, custom)"
   sodipodi:docname="na.svg"
   xmlns:inkscape="http://www.inkscape.org/namespaces/inkscape"
   xmlns:sodipodi="http://sodipodi.sourceforge.net/DTD/sodipodi-0.dtd"
   xmlns="http://www.w3.org/2000/svg"
   xmlns:svg="http://www.w3.org/2000/svg">
  <sodipodi:namedview
     id="namedview1"
     pagecolor="#ffffff"
     bordercolor="#000000"
     borderopacity="0.25"
     inkscape:showpageshadow="2"
     inkscape:pageopacity="0.0"
     inkscape:pagecheckerboard="0"
     inkscape:deskcolor="#d1d1d1"
     inkscape:document-units="mm"
     inkscape:zoom="1.8101934"
     inkscape:cx="97.77961"
     inkscape:cy="117.66699"
     inkscape:window-width="1920"
     inkscape:window-height="1012"
     inkscape:window-x="0"
     inkscape:window-y="31"
     inkscape:window-maximized="1"
     inkscape:current-layer="layer1" />
  <defs
     id="defs1">
    <linearGradient
       x1="0"
       y1="0"
       x2="1"
       y2="0"
       gradientUnits="userSpaceOnUse"
       gradientTransform="matrix(466.421,466.421,466.421,-466.421,1157.15,3169.41)"
       spreadMethod="pad"
       id="linearGradient163">
      <stop
         style="stop-opacity:1;stop-color:#e8e8e7"
         offset="0"
         id="stop162" />
      <stop
         style="stop-opacity:1;stop-color:#fcfcfc"
         offset="1"
         id="stop163" />
    </linearGradient>
    <clipPath
       clipPathUnits="userSpaceOnUse"
       id="clipPath163">
      <path
         d="m 1705.69,3462.67 -2.01,1.58 -0.3,0.27 -67.91,54.59 9.41,86.62 c 1.58,14.56 -3.52,29.07 -13.89,39.44 -10.37,10.38 -24.88,15.48 -39.45,13.88 l -86.59,-9.42 -54.61,67.92 c -9.18,11.43 -23.05,18.08 -37.72,18.08 -14.66,0 -28.53,-6.65 -37.7,-18.08 l -54.6,-67.92 -86.61,9.42 c -14.59,1.6 -29.08,-3.5 -39.44,-13.88 -10.36,-10.37 -15.48,-24.88 -13.9,-39.44 l 9.41,-86.61 -65.08,-52.33 -2.63,-2.05 -2.33,-1.89 c -11.41,-9.18 -18.04,-23.03 -18.07,-37.65 -0.01,-14.64 6.59,-28.49 17.98,-37.69 l 69.77,-56.41 -9.05,-83.19 -0.09,-2 -0.21,-1.8 c -1.56,-14.55 3.55,-29.05 13.91,-39.39 10.35,-10.36 24.87,-15.47 39.4,-13.89 l 85.36,9.21 56.36,-69.19 c 9.19,-11.29 22.97,-17.84 37.52,-17.84 h 0.06 c 14.58,0.03 28.37,6.59 37.54,17.91 l 56.13,69.26 85.11,-9.39 c 14.61,-1.62 29.11,3.48 39.51,13.83 9.55,9.57 14.59,22.67 14.08,36.08 0.1,2.4 0.09,4.78 -0.18,7.2 l -9.04,83.1 69.92,56.19 c 11.43,9.18 18.08,23.06 18.08,37.74 -0.01,14.69 -6.68,28.57 -18.14,37.74"
         id="path163" />
    </clipPath>
    <clipPath
       clipPathUnits="userSpaceOnUse"
       id="clipPath171">
      <path
         d="m 1412.62,3269.84 c -86.06,0 -155.93,69.26 -156.94,155.07 -0.01,0.63 -0.02,1.26 -0.02,1.89 0,-2.84 0.09,-5.68 0.24,-8.49 49.14,5.53 101.82,8.56 156.72,8.56 54.91,0 107.62,-3.03 156.77,-8.56 -4.41,-82.73 -72.9,-148.47 -156.77,-148.47 m 156.78,148.59 c 0.13,2.77 0.22,5.57 0.22,8.37 0,-0.63 0,-1.26 -0.01,-1.89 -0.03,-2.17 -0.1,-4.33 -0.21,-6.48"
         transform="matrix(0.00301023,0,0,-0.00574053,-3.7564721,19.719288)"
         id="path171" />
    </clipPath>
    <clipPath
       clipPathUnits="userSpaceOnUse"
       id="clipPath163-2">
      <path
         d="m 1705.69,3462.67 -2.01,1.58 -0.3,0.27 -67.91,54.59 9.41,86.62 c 1.58,14.56 -3.52,29.07 -13.89,39.44 -10.37,10.38 -24.88,15.48 -39.45,13.88 l -86.59,-9.42 -54.61,67.92 c -9.18,11.43 -23.05,18.08 -37.72,18.08 -14.66,0 -28.53,-6.65 -37.7,-18.08 l -54.6,-67.92 -86.61,9.42 c -14.59,1.6 -29.08,-3.5 -39.44,-13.88 -10.36,-10.37 -15.48,-24.88 -13.9,-39.44 l 9.41,-86.61 -65.08,-52.33 -2.63,-2.05 -2.33,-1.89 c -11.41,-9.18 -18.04,-23.03 -18.07,-37.65 -0.01,-14.64 6.59,-28.49 17.98,-37.69 l 69.77,-56.41 -9.05,-83.19 -0.09,-2 -0.21,-1.8 c -1.56,-14.55 3.55,-29.05 13.91,-39.39 10.35,-10.36 24.87,-15.47 39.4,-13.89 l 85.36,9.21 56.36,-69.19 c 9.19,-11.29 22.97,-17.84 37.52,-17.84 h 0.06 c 14.58,0.03 28.37,6.59 37.54,17.91 l 56.13,69.26 85.11,-9.39 c 14.61,-1.62 29.11,3.48 39.51,13.83 9.55,9.57 14.59,22.67 14.08,36.08 0.1,2.4 0.09,4.78 -0.18,7.2 l -9.04,83.1 69.92,56.19 c 11.43,9.18 18.08,23.06 18.08,37.74 -0.01,14.69 -6.68,28.57 -18.14,37.74"
         id="path163-0" />
    </clipPath>
  </defs>
  <g
     inkscape:label="Capa 1"
     inkscape:groupmode="layer"
     id="layer1">
    <path
       id="path3"
       style="font-weight:bold;font-size:21.1667px;line-height:1;font-family:Ubuntu;-inkscape-font-specification:'Ubuntu Bold';text-align:center;text-anchor:middle;fill:#ffffff;stroke-width:1.05833;stroke-linecap:square;stroke-linejoin:round"
       d="m 30.678097,13.558654 c -1.468266,-0.02996 -3.33887,-0.07171 -4.193603,1.367525 -1.048726,2.196942 -1.625921,4.578151 -2.501226,6.844516 -0.228026,0.657184 -0.456052,1.314368 -0.684078,1.971553 -0.01201,-2.093016 0.03765,-4.196437 -0.138672,-6.28125 -0.540962,-1.691027 -2.559366,-2.204392 -4.140624,-1.980469 -1.510143,-0.179617 -3.467271,0.172076 -4.046876,1.791016 -0.205206,0.364171 -0.156602,1.229126 -0.308918,1.322589 -0.876882,-1.047727 -1.763381,-2.183149 -2.970414,-2.851469 -1.391339,-0.430229 -2.9023037,-0.319829 -4.3178893,-0.112879 -1.6558763,0.550114 -2.276007,2.514579 -1.9827417,4.099571 0.047608,4.573379 -0.1412686,9.158604 0.1287912,13.723828 0.5412631,1.691869 2.560782,2.204439 4.1425784,1.980469 1.5087064,0.176009 3.4650164,-0.184104 4.0292974,-1.808594 0.221595,-0.717617 0.274156,-1.473476 0.265625,-2.220703 0.753375,1.127057 1.33217,2.411459 2.27539,3.386719 0.850478,0.628197 1.95368,0.694148 2.972657,0.660156 -0.469907,1.249695 0.02754,2.731429 1.183727,3.411498 1.213701,0.812504 2.705691,0.452465 4.067336,0.490402 1.266183,-0.01254 2.52189,-0.748287 2.914952,-1.997603 0.433406,-0.907258 0.700999,-2.06014 1.060547,-2.878906 0.934233,0.978194 2.371358,1.123218 3.639518,0.970999 1.469644,0.118018 3.283813,-0.167957 3.970746,-1.663447 0.264412,-0.473667 0.398463,-1.004774 0.547939,-1.522396 0.64768,0.0181 1.295692,-0.01475 1.943359,0.002 0.371481,1.483628 1.394762,3.152926 3.113623,3.1434 1.268824,0.02793 2.563061,0.111265 3.81824,-0.06228 1.679595,-0.434262 2.630722,-2.491625 1.849077,-4.050177 -1.764747,-4.9712 -3.557831,-9.95808 -5.966486,-14.6618 -1.03389,-1.380037 -2.910928,-1.164427 -4.430807,-1.161867 -0.852136,-0.06288 -1.74147,0.116636 -2.44224,0.622804 -0.241042,-1.767488 -2.126574,-2.805553 -3.798828,-2.535156 z" />
    <path
       d="M 17.790569,32.791224 Q 16.3724,30.272387 14.721397,27.817049 13.070395,25.361712 11.207725,23.181542 v 9.609682 H 7.9480534 V 18.122701 h 2.6881706 q 0.698501,0.698501 1.545169,1.714502 0.846668,1.016002 1.714503,2.180171 0.889001,1.143001 1.756836,2.391837 0.867835,1.227668 1.629836,2.37067 v -8.65718 h 3.280839 v 14.668523 z m 6.96385,3.91584 h -3.238505 l 7.112011,-20.489366 h 3.196172 z m 16.679355,-3.91584 Q 41.20094,32.029223 40.904606,31.224888 40.629439,30.420554 40.354272,29.616219 h -5.715009 q -0.275167,0.804335 -0.571501,1.608669 -0.275167,0.804335 -0.508001,1.566336 h -3.429005 q 0.825501,-2.37067 1.566335,-4.381507 0.740835,-2.010836 1.439336,-3.788839 0.719668,-1.778003 1.397002,-3.365506 0.698501,-1.608669 1.439336,-3.132671 h 3.153838 q 0.719668,1.524002 1.418169,3.132671 0.698501,1.587503 1.397002,3.365506 0.719668,1.778003 1.460503,3.788839 0.740834,2.010837 1.566336,4.381507 z M 37.475601,21.445873 q -0.105834,0.3175 -0.317501,0.867834 -0.211667,0.550335 -0.486834,1.270002 -0.275167,0.719668 -0.613834,1.587503 -0.317501,0.867835 -0.656168,1.820336 h 4.16984 q -0.338667,-0.952501 -0.656168,-1.820336 -0.3175,-0.867835 -0.613834,-1.587503 -0.275167,-0.719667 -0.486834,-1.270002 -0.211667,-0.550334 -0.338667,-0.867834 z"
       id="text2"
       style="font-weight:bold;font-size:21.1667px;line-height:1;font-family:Ubuntu;-inkscape-font-specification:'Ubuntu Bold';text-align:center;text-anchor:middle;fill:#fab40a;stroke-width:1.05833;stroke-linecap:square;stroke-linejoin:round"
       aria-label="N/A" />
    <path
       id="path2"
       style="fill:#be8704;fill-opacity:1;stroke-width:0.88613;stroke-linecap:square;stroke-linejoin:round"
       d="m 26.271523,24.648681 a 30.223312,18.311335 0 0 0 -0.577742,0.02274 L 21.516258,36.70686 h 3.238045 l 4.136699,-11.987899 a 30.223312,18.311335 0 0 0 -2.619479,-0.07028 z m -5.708179,0.36897 a 30.223312,18.311335 0 0 0 -3.280419,0.494543 v 1.267623 C 17.044909,26.422793 16.772651,26.038705 16.519147,25.66929 a 30.223312,18.311335 0 0 0 -2.828768,0.676445 c 0.349424,0.482949 0.694691,0.971158 1.030945,1.471228 1.100667,1.63689 2.124135,3.29515 3.06958,4.974373 h 2.77244 z m 12.387358,0.08423 c -0.407865,1.047697 -0.824494,2.142902 -1.25367,3.307809 -0.493889,1.340556 -1.015979,2.801199 -1.566313,4.381645 h 3.429248 c 0.155223,-0.508001 0.324535,-1.030091 0.50798,-1.566314 0.197555,-0.536222 0.388096,-1.072464 0.571541,-1.608687 h 5.714897 l 0.550354,1.608687 c 0.197555,0.536223 0.373944,1.058313 0.529166,1.566313 h 3.534668 c -0.550334,-1.580445 -1.072423,-3.041088 -1.566313,-4.381645 -0.0796,-0.216056 -0.157961,-0.417394 -0.237194,-0.629418 a 30.223312,18.311335 0 0 0 -3.784782,-1.319817 c 0.06467,0.180454 0.125333,0.345977 0.191203,0.531234 h -4.170289 c 0.171828,-0.483265 0.336057,-0.934872 0.499712,-1.385445 A 30.223312,18.311335 0 0 0 32.950702,25.101883 Z M 11.207843,27.087292 A 30.223312,18.311335 0 0 0 7.9480937,28.40194 v 4.389396 h 3.2597493 z" />
  </g>
</svg>
