<?xml version="1.0" encoding="UTF-8" standalone="no"?>
<!-- Created with Inkscape (http://www.inkscape.org/) -->

<svg
   width="200"
   height="200"
   viewBox="0 0 52.916665 52.916666"
   version="1.1"
   id="svg1"
   inkscape:version="1.3.2 (091e20ef0f, 2023-11-25, custom)"
   sodipodi:docname="rainy-2-night.svg"
   xmlns:inkscape="http://www.inkscape.org/namespaces/inkscape"
   xmlns:sodipodi="http://sodipodi.sourceforge.net/DTD/sodipodi-0.dtd"
   xmlns:xlink="http://www.w3.org/1999/xlink"
   xmlns="http://www.w3.org/2000/svg"
   xmlns:svg="http://www.w3.org/2000/svg">
  <sodipodi:namedview
     id="namedview1"
     pagecolor="#ffffff"
     bordercolor="#000000"
     borderopacity="0.25"
     inkscape:showpageshadow="2"
     inkscape:pageopacity="0.0"
     inkscape:pagecheckerboard="0"
     inkscape:deskcolor="#d1d1d1"
     inkscape:document-units="mm"
     inkscape:zoom="2.56"
     inkscape:cx="98.828125"
     inkscape:cy="51.953125"
     inkscape:window-width="1920"
     inkscape:window-height="1012"
     inkscape:window-x="0"
     inkscape:window-y="31"
     inkscape:window-maximized="1"
     inkscape:current-layer="layer1" />
  <defs
     id="defs1">
    <linearGradient
       x1="0"
       y1="0"
       x2="1"
       y2="0"
       gradientUnits="userSpaceOnUse"
       gradientTransform="matrix(466.421,466.421,466.421,-466.421,1157.15,3169.41)"
       spreadMethod="pad"
       id="linearGradient163">
      <stop
         style="stop-opacity:1;stop-color:#e8e8e7"
         offset="0"
         id="stop162" />
      <stop
         style="stop-opacity:1;stop-color:#fcfcfc"
         offset="1"
         id="stop163" />
    </linearGradient>
    <clipPath
       clipPathUnits="userSpaceOnUse"
       id="clipPath163">
      <path
         d="m 1705.69,3462.67 -2.01,1.58 -0.3,0.27 -67.91,54.59 9.41,86.62 c 1.58,14.56 -3.52,29.07 -13.89,39.44 -10.37,10.38 -24.88,15.48 -39.45,13.88 l -86.59,-9.42 -54.61,67.92 c -9.18,11.43 -23.05,18.08 -37.72,18.08 -14.66,0 -28.53,-6.65 -37.7,-18.08 l -54.6,-67.92 -86.61,9.42 c -14.59,1.6 -29.08,-3.5 -39.44,-13.88 -10.36,-10.37 -15.48,-24.88 -13.9,-39.44 l 9.41,-86.61 -65.08,-52.33 -2.63,-2.05 -2.33,-1.89 c -11.41,-9.18 -18.04,-23.03 -18.07,-37.65 -0.01,-14.64 6.59,-28.49 17.98,-37.69 l 69.77,-56.41 -9.05,-83.19 -0.09,-2 -0.21,-1.8 c -1.56,-14.55 3.55,-29.05 13.91,-39.39 10.35,-10.36 24.87,-15.47 39.4,-13.89 l 85.36,9.21 56.36,-69.19 c 9.19,-11.29 22.97,-17.84 37.52,-17.84 h 0.06 c 14.58,0.03 28.37,6.59 37.54,17.91 l 56.13,69.26 85.11,-9.39 c 14.61,-1.62 29.11,3.48 39.51,13.83 9.55,9.57 14.59,22.67 14.08,36.08 0.1,2.4 0.09,4.78 -0.18,7.2 l -9.04,83.1 69.92,56.19 c 11.43,9.18 18.08,23.06 18.08,37.74 -0.01,14.69 -6.68,28.57 -18.14,37.74"
         id="path163" />
    </clipPath>
    <clipPath
       clipPathUnits="userSpaceOnUse"
       id="clipPath171">
      <path
         d="m 1412.62,3269.84 c -86.06,0 -155.93,69.26 -156.94,155.07 -0.01,0.63 -0.02,1.26 -0.02,1.89 0,-2.84 0.09,-5.68 0.24,-8.49 49.14,5.53 101.82,8.56 156.72,8.56 54.91,0 107.62,-3.03 156.77,-8.56 -4.41,-82.73 -72.9,-148.47 -156.77,-148.47 m 156.78,148.59 c 0.13,2.77 0.22,5.57 0.22,8.37 0,-0.63 0,-1.26 -0.01,-1.89 -0.03,-2.17 -0.1,-4.33 -0.21,-6.48"
         transform="matrix(0.00301023,0,0,-0.00574053,-3.7564721,19.719288)"
         id="path171" />
    </clipPath>
    <linearGradient
       inkscape:collect="always"
       xlink:href="#linearGradient1224"
       id="linearGradient1225"
       x1="-156.12976"
       y1="175.55699"
       x2="-179.3593"
       y2="195.3158"
       gradientUnits="userSpaceOnUse"
       gradientTransform="matrix(0.52916666,0,0,0.52916666,123.28556,-69.67178)" />
    <linearGradient
       id="linearGradient1224"
       inkscape:collect="always">
      <stop
         style="stop-color:#23435c;stop-opacity:1;"
         offset="0"
         id="stop1224" />
      <stop
         style="stop-color:#346991;stop-opacity:1;"
         offset="1"
         id="stop1225" />
    </linearGradient>
  </defs>
  <g
     inkscape:label="Capa 1"
     inkscape:groupmode="layer"
     id="layer1">
    <path
       id="path1082-1"
       d="m 44.396737,26.18115 c 0,-9.172226 -6.56943,-16.8606634 -15.61747,-18.2816504 -1.139476,-0.1778 -2.281767,0.283633 -2.976743,1.20297 -0.694267,0.9200464 -0.826204,2.1463004 -0.3429,3.1926374 0.750009,1.621367 1.1303,3.350684 1.1303,5.142093 0,0.20955 -0.0057,0.4191 -0.01693,0.625824 l -0.0042,0.06491 c -0.359124,6.439604 -5.71147,11.5697 -12.23927,11.5697 -0.638529,0 -1.283404,-0.0508 -1.918404,-0.150987 l -0.140409,-0.01201 -0.14605,-0.02185 c -1.128887,-0.175683 -2.2613035,0.277283 -2.9562745,1.1811 -0.695679,0.90452 -0.843846,2.115254 -0.385233,3.160183 2.9414575,6.69925 9.8552005,11.200691 17.2028535,11.200691 9.980084,0 18.410767,-8.396817 18.410767,-18.33527 0,-0.0882 -0.0042,-0.17498 -0.0042,-0.262467 0,-0.09243 0.0042,-0.183446 0.0042,-0.27587"
       style="fill:#ffffff;fill-opacity:1;fill-rule:nonzero;stroke:none;stroke-width:0.0705554" />
    <path
       id="path2"
       style="fill:#ffffff;fill-opacity:1;stroke-width:2.36738;stroke-linecap:square;stroke-linejoin:round"
       d="m 30.312554,39.441285 c -1.108742,-0.04487 -2.000869,0.714275 -2.754514,1.431772 -1.245288,1.048067 -2.488115,2.213832 -3.069277,3.775884 -0.706782,1.669262 -0.752147,3.705913 0.276844,5.256821 1.228164,2.010273 3.888808,3.019415 6.125638,2.229469 1.980354,-0.641201 3.471931,-2.519431 3.659029,-4.592092 0.309388,-2.134833 -0.404738,-4.242821 -1.153414,-6.210305 -0.526717,-0.976403 -1.455886,-1.873742 -2.629551,-1.885347 -0.151273,-0.01159 -0.303207,-0.0099 -0.454755,-0.0062 z" />
    <path
       id="path1227"
       style="fill:#ffffff;fill-opacity:1;stroke-width:2.36738;stroke-linecap:square;stroke-linejoin:round"
       d="m 23.514378,39.359847 c -1.108742,-0.04487 -2.000869,0.714275 -2.754514,1.431772 -1.245288,1.048067 -2.488115,2.213832 -3.069277,3.775884 -0.706782,1.669262 -0.752147,3.705913 0.276844,5.256821 1.228164,2.010273 3.888808,3.019415 6.125638,2.229469 1.980354,-0.641201 3.471931,-2.519431 3.659029,-4.592092 0.309388,-2.134833 -0.404738,-4.242821 -1.153414,-6.210305 -0.526717,-0.976403 -1.455886,-1.873742 -2.629551,-1.885347 -0.151273,-0.01159 -0.303207,-0.0099 -0.454755,-0.0062 z" />
    <path
       id="path1224"
       style="fill:#ffffff;fill-opacity:1;stroke-width:2.11667;stroke-linecap:square;stroke-linejoin:round"
       d="m 30.016838,17.670687 c -2.46109,0.0489 -4.857559,1.389962 -6.173268,3.472656 -2.081006,0.329703 -3.999585,1.56836 -5.153173,3.3321 -3.033009,0.321379 -5.798191,2.633091 -6.468857,5.637895 -0.728154,2.881313 0.564992,6.122348 3.06015,7.730951 0.246163,0.182626 0.5851,0.270489 0.624369,0.621802 1.163775,2.771453 4.12469,4.650264 7.128441,4.524323 0.307473,0.02132 0.642657,-0.08883 0.930302,-0.04138 3.223863,2.387181 7.791307,2.812139 11.374718,0.985308 0.934137,-0.45393 1.799023,-1.046459 2.571411,-1.740059 3.046042,0.20691 6.16993,-1.609693 7.356655,-4.448307 2.664481,-1.491742 4.176998,-4.788969 3.523276,-7.781486 -0.628544,-3.138673 -3.50302,-5.653421 -6.699361,-5.854351 -0.299233,-0.08352 -0.712179,0.113681 -0.873279,-0.231018 -1.140941,-1.311773 -2.745475,-2.212553 -4.46071,-2.498038 -1.355286,-2.338594 -4.042511,-3.807587 -6.740674,-3.710368 z" />
    <path
       id="path1084-0"
       d="m 28.153077,11.16824 c 0.908759,1.962854 1.416759,4.147254 1.416759,6.452304 0,8.495596 -6.886225,15.383229 -15.380409,15.383229 -0.819854,0 -1.622774,-0.06491 -2.404533,-0.188383 2.440517,5.272616 7.773813,8.933037 13.96365,8.933037 8.497003,0 15.383229,-6.888337 15.383229,-15.383229 0,-7.679971 -5.625396,-14.042671 -12.978696,-15.196958"
       style="fill:#fab40a;fill-opacity:1;fill-rule:nonzero;stroke:none;stroke-width:0.0705554" />
    <path
       id="path1216"
       style="fill:url(#linearGradient1225);fill-opacity:1;stroke-width:2.11667;stroke-linecap:square;stroke-linejoin:round"
       d="m 30.223372,20.83586 a 4.3520875,4.1894453 0 0 0 -4.279842,3.467488 4.3520875,4.1894453 0 0 0 -0.887798,-0.08888 4.3520875,4.1894453 0 0 0 -4.300517,3.560508 4.3520875,4.1894453 0 0 0 -1.215427,-0.168465 4.3520875,4.1894453 0 0 0 -4.352189,4.189925 4.3520875,4.1894453 0 0 0 3.317626,4.059698 4.3520875,4.1894453 0 0 0 4.336685,3.972888 4.3520875,4.1894453 0 0 0 1.878954,-0.416512 7.9374999,7.9374999 0 0 0 5.754688,2.494936 7.9374999,7.9374999 0 0 0 6.316927,-3.164665 4.3520875,4.1894453 0 0 0 1.569932,0.294555 4.3520875,4.1894453 0 0 0 4.307749,-3.591512 4.3520875,4.1894453 0 0 0 3.095414,-4.00802 4.3520875,4.1894453 0 0 0 -4.352184,-4.189926 4.3520875,4.1894453 0 0 0 -1.71876,0.347266 4.3520875,4.1894453 0 0 0 -4.217829,-3.1564 4.3520875,4.1894453 0 0 0 -0.931211,0.10749 4.3520875,4.1894453 0 0 0 -4.322218,-3.71037 z" />
    <path
       id="path1222"
       style="fill:#23435c;fill-opacity:1;stroke-width:2.11667;stroke-linecap:square;stroke-linejoin:round"
       d="m 31.413135,29.512861 a 29.489175,13.783931 0 0 0 -16.222266,2.307871 4.3520875,4.1894453 0 0 0 3.314526,4.034895 4.3520875,4.1894453 0 0 0 4.33669,3.972883 4.3520875,4.1894453 0 0 0 1.878954,-0.416512 7.9374999,7.9374999 0 0 0 5.754687,2.494936 7.9374999,7.9374999 0 0 0 6.316927,-3.164665 4.3520875,4.1894453 0 0 0 1.569927,0.294555 4.3520875,4.1894453 0 0 0 4.30775,-3.591512 4.3520875,4.1894453 0 0 0 3.095418,-4.00802 4.3520875,4.1894453 0 0 0 -0.0083,-0.179837 29.489175,13.783931 0 0 0 -14.344342,-1.744594 z" />
    <path
       id="path1225"
       style="fill:#5da6df;fill-opacity:1;stroke-width:2.36738;stroke-linecap:square;stroke-linejoin:round"
       d="m 23.680801,42.440873 c -2.25162,2.033111 -2.788894,2.233051 -3.272356,4.034414 -0.302557,1.129173 0.367543,2.28982 1.496711,2.592377 1.129172,0.302561 2.289815,-0.367538 2.592376,-1.496706 0.491586,-1.77501 -0.2766,-3.445907 -0.816731,-5.130085 z"
       sodipodi:nodetypes="ccscc" />
    <path
       id="path1226"
       style="fill:#5898d8;fill-opacity:1;stroke-width:2.36738;stroke-linecap:square;stroke-linejoin:round"
       d="m 20.527481,46.283453 a 4.6084947,2.8800134 10 0 0 -0.06408,0.0021 c -0.01815,0.06261 -0.03683,0.123328 -0.05478,0.190167 -0.302557,1.129172 0.367379,2.289529 1.496552,2.592091 1.129167,0.302561 2.289529,-0.36738 2.592086,-1.496547 0.0011,-0.0042 0.0021,-0.0083 0.0032,-0.01238 a 4.6084947,2.8800134 10 0 0 -2.781226,-1.164785 4.6084947,2.8800134 10 0 0 -1.191657,-0.110591 z" />
    <path
       id="path3"
       style="fill:#5da6df;fill-opacity:1;stroke-width:2.36738;stroke-linecap:square;stroke-linejoin:round"
       d="m 30.478977,42.522311 c -2.25162,2.033111 -2.788894,2.233051 -3.272356,4.034414 -0.302557,1.129173 0.367543,2.28982 1.496711,2.592377 1.129172,0.302561 2.289815,-0.367538 2.592376,-1.496706 0.491586,-1.77501 -0.2766,-3.445907 -0.816731,-5.130085 z"
       sodipodi:nodetypes="ccscc" />
    <path
       id="path4"
       style="fill:#5898d8;fill-opacity:1;stroke-width:2.36738;stroke-linecap:square;stroke-linejoin:round"
       d="m 27.325657,46.364891 a 4.6084947,2.8800134 10 0 0 -0.06408,0.0021 c -0.01815,0.06261 -0.03683,0.123328 -0.05478,0.190167 -0.302557,1.129172 0.367379,2.289529 1.496552,2.592091 1.129167,0.302561 2.289529,-0.36738 2.592086,-1.496547 0.0011,-0.0042 0.0021,-0.0083 0.0032,-0.01238 a 4.6084947,2.8800134 10 0 0 -2.781226,-1.164785 4.6084947,2.8800134 10 0 0 -1.191657,-0.110591 z" />
  </g>
</svg>
