<?xml version="1.0" encoding="UTF-8" standalone="no"?>
<!-- Created with Inkscape (http://www.inkscape.org/) -->

<svg
   width="200"
   height="200"
   viewBox="0 0 52.916665 52.916666"
   version="1.1"
   id="svg1"
   inkscape:version="1.3.2 (091e20ef0f, 2023-11-25, custom)"
   sodipodi:docname="snowy-3-night.svg"
   xmlns:inkscape="http://www.inkscape.org/namespaces/inkscape"
   xmlns:sodipodi="http://sodipodi.sourceforge.net/DTD/sodipodi-0.dtd"
   xmlns:xlink="http://www.w3.org/1999/xlink"
   xmlns="http://www.w3.org/2000/svg"
   xmlns:svg="http://www.w3.org/2000/svg">
  <sodipodi:namedview
     id="namedview1"
     pagecolor="#ffffff"
     bordercolor="#000000"
     borderopacity="0.25"
     inkscape:showpageshadow="2"
     inkscape:pageopacity="0.0"
     inkscape:pagecheckerboard="0"
     inkscape:deskcolor="#d1d1d1"
     inkscape:document-units="mm"
     inkscape:zoom="2.56"
     inkscape:cx="98.828125"
     inkscape:cy="51.953125"
     inkscape:window-width="1920"
     inkscape:window-height="1012"
     inkscape:window-x="0"
     inkscape:window-y="31"
     inkscape:window-maximized="1"
     inkscape:current-layer="layer1" />
  <defs
     id="defs1">
    <linearGradient
       x1="0"
       y1="0"
       x2="1"
       y2="0"
       gradientUnits="userSpaceOnUse"
       gradientTransform="matrix(466.421,466.421,466.421,-466.421,1157.15,3169.41)"
       spreadMethod="pad"
       id="linearGradient163">
      <stop
         style="stop-opacity:1;stop-color:#e8e8e7"
         offset="0"
         id="stop162" />
      <stop
         style="stop-opacity:1;stop-color:#fcfcfc"
         offset="1"
         id="stop163" />
    </linearGradient>
    <clipPath
       clipPathUnits="userSpaceOnUse"
       id="clipPath163">
      <path
         d="m 1705.69,3462.67 -2.01,1.58 -0.3,0.27 -67.91,54.59 9.41,86.62 c 1.58,14.56 -3.52,29.07 -13.89,39.44 -10.37,10.38 -24.88,15.48 -39.45,13.88 l -86.59,-9.42 -54.61,67.92 c -9.18,11.43 -23.05,18.08 -37.72,18.08 -14.66,0 -28.53,-6.65 -37.7,-18.08 l -54.6,-67.92 -86.61,9.42 c -14.59,1.6 -29.08,-3.5 -39.44,-13.88 -10.36,-10.37 -15.48,-24.88 -13.9,-39.44 l 9.41,-86.61 -65.08,-52.33 -2.63,-2.05 -2.33,-1.89 c -11.41,-9.18 -18.04,-23.03 -18.07,-37.65 -0.01,-14.64 6.59,-28.49 17.98,-37.69 l 69.77,-56.41 -9.05,-83.19 -0.09,-2 -0.21,-1.8 c -1.56,-14.55 3.55,-29.05 13.91,-39.39 10.35,-10.36 24.87,-15.47 39.4,-13.89 l 85.36,9.21 56.36,-69.19 c 9.19,-11.29 22.97,-17.84 37.52,-17.84 h 0.06 c 14.58,0.03 28.37,6.59 37.54,17.91 l 56.13,69.26 85.11,-9.39 c 14.61,-1.62 29.11,3.48 39.51,13.83 9.55,9.57 14.59,22.67 14.08,36.08 0.1,2.4 0.09,4.78 -0.18,7.2 l -9.04,83.1 69.92,56.19 c 11.43,9.18 18.08,23.06 18.08,37.74 -0.01,14.69 -6.68,28.57 -18.14,37.74"
         id="path163" />
    </clipPath>
    <clipPath
       clipPathUnits="userSpaceOnUse"
       id="clipPath171">
      <path
         d="m 1412.62,3269.84 c -86.06,0 -155.93,69.26 -156.94,155.07 -0.01,0.63 -0.02,1.26 -0.02,1.89 0,-2.84 0.09,-5.68 0.24,-8.49 49.14,5.53 101.82,8.56 156.72,8.56 54.91,0 107.62,-3.03 156.77,-8.56 -4.41,-82.73 -72.9,-148.47 -156.77,-148.47 m 156.78,148.59 c 0.13,2.77 0.22,5.57 0.22,8.37 0,-0.63 0,-1.26 -0.01,-1.89 -0.03,-2.17 -0.1,-4.33 -0.21,-6.48"
         transform="matrix(0.00301023,0,0,-0.00574053,-3.7564721,19.719288)"
         id="path171" />
    </clipPath>
    <linearGradient
       inkscape:collect="always"
       xlink:href="#linearGradient1224"
       id="linearGradient1225"
       x1="-156.12976"
       y1="175.55699"
       x2="-179.3593"
       y2="195.3158"
       gradientUnits="userSpaceOnUse"
       gradientTransform="matrix(0.52916666,0,0,0.52916666,123.28556,-69.67178)" />
    <linearGradient
       id="linearGradient1224"
       inkscape:collect="always">
      <stop
         style="stop-color:#23435c;stop-opacity:1;"
         offset="0"
         id="stop1224" />
      <stop
         style="stop-color:#346991;stop-opacity:1;"
         offset="1"
         id="stop1225" />
    </linearGradient>
  </defs>
  <g
     inkscape:label="Capa 1"
     inkscape:groupmode="layer"
     id="layer1">
    <path
       id="path220"
       style="fill:#ffffff;fill-opacity:1;stroke-width:2.64422;stroke-linecap:square;stroke-linejoin:round"
       d="m 17.772872,36.733398 c -0.851212,0.0417 -1.679479,0.364998 -2.345076,0.888831 -0.57286,0.193288 -0.970798,0.686128 -1.545145,0.868087 -0.436245,0.258778 -0.860018,0.53177 -1.320747,0.744733 -0.20737,0.155872 -0.423064,0.219361 -0.610897,0.48731 -0.592926,0.409337 -0.969184,1.114652 -1.162843,1.808379 -0.19239,0.587825 -0.134012,1.212861 -0.104516,1.812629 -0.09794,0.450458 0.04159,0.910844 0.01381,1.351735 -0.115083,0.559356 0.05112,1.121161 -0.05112,1.679236 -0.08373,1.628495 0.999294,3.205687 2.524252,3.755655 0.345302,0.34935 0.846883,0.453559 1.244795,0.70058 1.060048,0.768979 2.165356,1.373679 3.481531,1.517374 2.140505,-0.134736 3.05599,-1.459171 4.031472,-1.764347 0.444701,-0.260033 0.866367,-0.553821 1.345977,-0.748162 1.238716,-0.733944 2.041822,-2.177574 1.894512,-3.626745 -0.05704,-0.480509 0.08678,-0.968481 -0.02715,-1.452313 -0.03186,-0.464471 0.08941,-0.938144 0.01265,-1.409436 -0.0053,-0.615871 0.08997,-1.249802 -0.122989,-1.848982 -0.31325,-1.157425 -1.220004,-2.111386 -2.330608,-2.543514 -0.361845,-0.349001 -0.853636,-0.505301 -1.284653,-0.726551 -0.468402,-0.386387 -1.057137,-0.573791 -1.5308,-0.951034 -0.632264,-0.374613 -1.378659,-0.564515 -2.112412,-0.543465 z m -5.044651,2.845303 c -0.154321,0.01222 -0.992812,0.224642 -0.560933,0.05541 0.176308,-0.105817 0.367332,-0.05244 0.560933,-0.05541 z"
       sodipodi:nodetypes="sccccccccccccccccccccssccc" />
    <path
       id="path221"
       style="fill:#ffffff;fill-opacity:1;stroke-width:1.69231;stroke-linecap:square;stroke-linejoin:round"
       d="m 29.085349,40.247126 c -0.679238,0.09653 -1.379527,0.264218 -1.936887,0.69279 -0.682509,0.485527 -1.465972,0.803196 -2.171436,1.24795 -1.09474,0.777176 -1.657582,2.190665 -1.449953,3.509449 0.04545,0.864446 -0.0888,1.731899 0.01032,2.592726 0.227341,1.217893 1.107663,2.263108 2.25833,2.715154 0.659469,0.34643 1.270746,0.771488 1.92023,1.132676 1.191556,0.614955 2.704232,0.436393 3.757136,-0.37801 0.69759,-0.442992 1.455695,-0.793607 2.157672,-1.229916 1.051755,-0.760677 1.563153,-2.115359 1.436153,-3.387122 0.0059,-0.464147 -0.02567,-0.925443 -0.0037,-1.388025 0.04122,-0.781912 -0.0021,-1.591273 -0.391352,-2.292265 -0.392816,-0.88909 -1.241377,-1.417087 -2.068068,-1.849257 -0.608404,-0.279348 -1.153398,-0.670836 -1.730089,-1.006274 -0.558064,-0.250989 -1.173062,-0.39433 -1.78843,-0.359876 z"
       sodipodi:nodetypes="cccccccccccccccc" />
    <path
       id="path220-2"
       style="fill:#ffffff;fill-opacity:1;stroke-width:2.64422;stroke-linecap:square;stroke-linejoin:round"
       d="m 40.341091,35.768565 c -0.851212,0.0417 -1.679479,0.364998 -2.345076,0.888831 -0.57286,0.193288 -0.970798,0.686128 -1.545145,0.868087 -0.436245,0.258778 -0.860018,0.53177 -1.320747,0.744733 -0.20737,0.155872 -0.423064,0.219361 -0.610897,0.48731 -0.592926,0.409337 -0.969184,1.114652 -1.162843,1.808379 -0.19239,0.587825 -0.134012,1.212861 -0.104516,1.812629 -0.09794,0.450458 0.04159,0.910844 0.01381,1.351735 -0.115083,0.559356 0.05112,1.121161 -0.05112,1.679236 -0.08373,1.628495 0.999294,3.205687 2.524252,3.755655 0.345302,0.34935 0.846883,0.453559 1.244795,0.70058 1.060048,0.768979 2.165356,1.373679 3.481531,1.517374 2.140505,-0.134736 3.05599,-1.459171 4.031472,-1.764347 0.444701,-0.260033 0.866367,-0.553821 1.345977,-0.748162 1.238716,-0.733944 2.041822,-2.177574 1.894512,-3.626745 -0.05704,-0.480509 0.08678,-0.968481 -0.02715,-1.452313 -0.03186,-0.464471 0.08941,-0.938144 0.01265,-1.409436 -0.0053,-0.615871 0.08997,-1.249802 -0.122989,-1.848982 -0.31325,-1.157425 -1.220004,-2.111386 -2.330608,-2.543514 -0.361845,-0.349001 -0.853636,-0.505301 -1.284653,-0.726551 -0.468402,-0.386387 -1.057137,-0.573791 -1.5308,-0.951034 -0.632264,-0.374613 -1.378659,-0.564515 -2.112412,-0.543465 z m -5.044651,2.845303 c -0.154321,0.01222 -0.992812,0.224642 -0.560933,0.05541 0.176308,-0.105817 0.367332,-0.05244 0.560933,-0.05541 z"
       sodipodi:nodetypes="sccccccccccccccccccccssccc" />
    <path
       id="path1082-1"
       d="m 44.396737,26.18115 c 0,-9.172226 -6.56943,-16.8606634 -15.61747,-18.2816504 -1.139476,-0.1778 -2.281767,0.283633 -2.976743,1.20297 -0.694267,0.9200464 -0.826204,2.1463004 -0.3429,3.1926374 0.750009,1.621367 1.1303,3.350684 1.1303,5.142093 0,0.20955 -0.0057,0.4191 -0.01693,0.625824 l -0.0042,0.06491 c -0.359124,6.439604 -5.71147,11.5697 -12.23927,11.5697 -0.638529,0 -1.283404,-0.0508 -1.918404,-0.150987 l -0.140409,-0.01201 -0.14605,-0.02185 c -1.128887,-0.175683 -2.2613035,0.277283 -2.9562745,1.1811 -0.695679,0.90452 -0.843846,2.115254 -0.385233,3.160183 2.9414575,6.69925 9.8552005,11.200691 17.2028535,11.200691 9.980084,0 18.410767,-8.396817 18.410767,-18.33527 0,-0.0882 -0.0042,-0.17498 -0.0042,-0.262467 0,-0.09243 0.0042,-0.183446 0.0042,-0.27587"
       style="fill:#ffffff;fill-opacity:1;fill-rule:nonzero;stroke:none;stroke-width:0.0705554" />
    <path
       id="path1224"
       style="fill:#ffffff;fill-opacity:1;stroke-width:2.11667;stroke-linecap:square;stroke-linejoin:round"
       d="m 30.016838,17.670687 c -2.46109,0.0489 -4.857559,1.389962 -6.173268,3.472656 -2.081006,0.329703 -3.999585,1.56836 -5.153173,3.3321 -3.033009,0.321379 -5.798191,2.633091 -6.468857,5.637895 -0.728154,2.881313 0.564992,6.122348 3.06015,7.730951 0.246163,0.182626 0.5851,0.270489 0.624369,0.621802 1.163775,2.771453 4.12469,4.650264 7.128441,4.524323 0.307473,0.02132 0.642657,-0.08883 0.930302,-0.04138 3.223863,2.387181 7.791307,2.812139 11.374718,0.985308 0.934137,-0.45393 1.799023,-1.046459 2.571411,-1.740059 3.046042,0.20691 6.16993,-1.609693 7.356655,-4.448307 2.664481,-1.491742 4.176998,-4.788969 3.523276,-7.781486 -0.628544,-3.138673 -3.50302,-5.653421 -6.699361,-5.854351 -0.299233,-0.08352 -0.712179,0.113681 -0.873279,-0.231018 -1.140941,-1.311773 -2.745475,-2.212553 -4.46071,-2.498038 -1.355286,-2.338594 -4.042511,-3.807587 -6.740674,-3.710368 z" />
    <path
       id="path1084-0"
       d="m 28.153077,11.16824 c 0.908759,1.962854 1.416759,4.147254 1.416759,6.452304 0,8.495596 -6.886225,15.383229 -15.380409,15.383229 -0.819854,0 -1.622774,-0.06491 -2.404533,-0.188383 2.440517,5.272616 7.773813,8.933037 13.96365,8.933037 8.497003,0 15.383229,-6.888337 15.383229,-15.383229 0,-7.679971 -5.625396,-14.042671 -12.978696,-15.196958"
       style="fill:#fab40a;fill-opacity:1;fill-rule:nonzero;stroke:none;stroke-width:0.0705554" />
    <path
       id="path1216"
       style="fill:url(#linearGradient1225);fill-opacity:1;stroke-width:2.11667;stroke-linecap:square;stroke-linejoin:round"
       d="m 30.223372,20.83586 a 4.3520875,4.1894453 0 0 0 -4.279842,3.467488 4.3520875,4.1894453 0 0 0 -0.887798,-0.08888 4.3520875,4.1894453 0 0 0 -4.300517,3.560508 4.3520875,4.1894453 0 0 0 -1.215427,-0.168465 4.3520875,4.1894453 0 0 0 -4.352189,4.189925 4.3520875,4.1894453 0 0 0 3.317626,4.059698 4.3520875,4.1894453 0 0 0 4.336685,3.972888 4.3520875,4.1894453 0 0 0 1.878954,-0.416512 7.9374999,7.9374999 0 0 0 5.754688,2.494936 7.9374999,7.9374999 0 0 0 6.316927,-3.164665 4.3520875,4.1894453 0 0 0 1.569932,0.294555 4.3520875,4.1894453 0 0 0 4.307749,-3.591512 4.3520875,4.1894453 0 0 0 3.095414,-4.00802 4.3520875,4.1894453 0 0 0 -4.352184,-4.189926 4.3520875,4.1894453 0 0 0 -1.71876,0.347266 4.3520875,4.1894453 0 0 0 -4.217829,-3.1564 4.3520875,4.1894453 0 0 0 -0.931211,0.10749 4.3520875,4.1894453 0 0 0 -4.322218,-3.71037 z" />
    <path
       id="path1222"
       style="fill:#23435c;fill-opacity:1;stroke-width:2.11667;stroke-linecap:square;stroke-linejoin:round"
       d="m 31.413135,29.512861 a 29.489175,13.783931 0 0 0 -16.222266,2.307871 4.3520875,4.1894453 0 0 0 3.314526,4.034895 4.3520875,4.1894453 0 0 0 4.33669,3.972883 4.3520875,4.1894453 0 0 0 1.878954,-0.416512 7.9374999,7.9374999 0 0 0 5.754687,2.494936 7.9374999,7.9374999 0 0 0 6.316927,-3.164665 4.3520875,4.1894453 0 0 0 1.569927,0.294555 4.3520875,4.1894453 0 0 0 4.30775,-3.591512 4.3520875,4.1894453 0 0 0 3.095418,-4.00802 4.3520875,4.1894453 0 0 0 -0.0083,-0.179837 29.489175,13.783931 0 0 0 -14.344342,-1.744594 z" />
    <path
       id="rect1"
       style="fill:#60aee4;fill-opacity:1;stroke-width:2.64422;stroke-linecap:square;stroke-linejoin:round"
       d="m 17.913308,39.902408 a 0.66145832,0.66145832 0 0 0 -0.07028,0.0042 0.66145832,0.66145832 0 0 0 -0.0042,0 0.66145832,0.66145832 0 0 0 -0.0155,0.0021 0.66145832,0.66145832 0 0 0 -0.05581,0.01032 0.66145832,0.66145832 0 0 1 -0.0011,0 0.66145832,0.66145832 0 0 0 -0.0021,0.0011 0.66145832,0.66145832 0 0 0 -0.04752,0.01344 0.66145832,0.66145832 0 0 0 -0.01238,0.0032 0.66145832,0.66145832 0 0 0 -0.0072,0.0021 0.66145832,0.66145832 0 0 0 -0.0021,0.0011 0.66145832,0.66145832 0 0 0 -0.0032,0.0011 0.66145832,0.66145832 0 0 0 -0.0517,0.02069 0.66145832,0.66145832 0 0 0 -0.03101,0.01551 0.66145832,0.66145832 0 0 0 -0.04032,0.0217 0.66145832,0.66145832 0 0 0 -0.0083,0.0053 0.66145832,0.66145832 0 0 0 -0.0062,0.0042 0.66145832,0.66145832 0 0 0 -0.0217,0.01651 0.66145832,0.66145832 0 0 0 -0.01445,0.01032 0.66145832,0.66145832 0 0 0 -0.01445,0.01032 0.66145832,0.66145832 0 0 0 -0.0032,0.0021 0.66145832,0.66145832 0 0 0 -0.0053,0.0042 0.66145832,0.66145832 0 0 0 -0.04239,0.0372 0.66145832,0.66145832 0 0 0 -0.0083,0.0072 0.66145832,0.66145832 0 0 0 -0.0073,0.0083 0.66145832,0.66145832 0 0 0 -0.0372,0.04239 0.66145832,0.66145832 0 0 0 -0.0042,0.0053 0.66145832,0.66145832 0 0 0 -0.0021,0.0032 0.66145832,0.66145832 0 0 0 -0.01032,0.01445 0.66145832,0.66145832 0 0 0 -0.01032,0.01445 0.66145832,0.66145832 0 0 0 -0.01651,0.0217 0.66145832,0.66145832 0 0 0 -0.0042,0.0062 0.66145832,0.66145832 0 0 0 -0.0053,0.0083 0.66145832,0.66145832 0 0 0 -0.01757,0.03408 0.66145832,0.66145832 0 0 0 -0.0042,0.0062 0.66145832,0.66145832 0 0 0 -0.0155,0.03101 0.66145832,0.66145832 0 0 0 -0.02069,0.0517 0.66145832,0.66145832 0 0 0 -0.0011,0.0032 0.66145832,0.66145832 0 0 0 -0.0011,0.0021 0.66145832,0.66145832 0 0 0 -0.0021,0.0072 0.66145832,0.66145832 0 0 0 -0.0032,0.01238 0.66145832,0.66145832 0 0 0 -0.01344,0.04752 0.66145832,0.66145832 0 0 0 -0.0011,0.0021 0.66145832,0.66145832 0 0 1 0,0.0011 0.66145832,0.66145832 0 0 0 -0.01032,0.05581 0.66145832,0.66145832 0 0 0 -0.0021,0.01551 0.66145832,0.66145832 0 0 0 0,0.0042 0.66145832,0.66145832 0 0 0 -0.0042,0.07028 v 0.08682 l -0.07648,-0.04445 a 0.66145832,0.66145832 0 0 0 -0.903304,0.241845 0.66145832,0.66145832 0 0 0 0.241845,0.904336 l 0.737939,0.425815 v 1.20923 l -1.046961,-0.60462 v -0.852662 a 0.66145832,0.66145832 0 0 0 -0.661459,-0.661459 0.66145832,0.66145832 0 0 0 -0.661458,0.661459 v 0.08888 l -0.07545,-0.04339 a 0.66145832,0.66145832 0 0 0 -0.06201,-0.03207 0.66145832,0.66145832 0 0 0 -0.0011,0 0.66145832,0.66145832 0 0 0 -0.0011,-0.0011 0.66145832,0.66145832 0 0 0 -0.0011,0 0.66145832,0.66145832 0 0 0 -0.0011,-0.0011 0.66145832,0.66145832 0 0 0 -0.01445,-0.0062 0.66145832,0.66145832 0 0 0 -0.0062,-0.0021 0.66145832,0.66145832 0 0 0 -0.04032,-0.01344 0.66145832,0.66145832 0 0 0 -0.0072,-0.0032 0.66145832,0.66145832 0 0 0 -0.0011,0 0.66145832,0.66145832 0 0 0 -0.0021,-0.0011 0.66145832,0.66145832 0 0 0 -0.06718,-0.01651 0.66145832,0.66145832 0 0 0 -0.05581,-0.0093 0.66145832,0.66145832 0 0 0 -0.0053,0 0.66145832,0.66145832 0 0 0 -0.03413,-0.0021 0.66145832,0.66145832 0 0 0 -0.03101,-0.0011 0.66145832,0.66145832 0 0 0 -0.01445,0 0.66145832,0.66145832 0 0 0 -0.01032,0 0.66145832,0.66145832 0 0 0 -0.0072,0.0011 0.66145832,0.66145832 0 0 0 -0.0093,0 0.66145832,0.66145832 0 0 0 -0.06304,0.0072 0.66145832,0.66145832 0 0 0 -0.04546,0.0093 0.66145832,0.66145832 0 0 0 -0.01032,0.0021 0.66145832,0.66145832 0 0 0 -0.01032,0.0021 0.66145832,0.66145832 0 0 0 -0.01032,0.0042 0.66145832,0.66145832 0 0 0 -0.0083,0.0021 0.66145832,0.66145832 0 0 0 -0.04239,0.01445 0.66145832,0.66145832 0 0 0 -0.0032,0.0011 0.66145832,0.66145832 0 0 0 -0.0062,0.0021 0.66145832,0.66145832 0 0 0 -0.0032,0.0021 0.66145832,0.66145832 0 0 0 -0.05787,0.02482 0.66145832,0.66145832 0 0 0 -0.0053,0.0021 0.66145832,0.66145832 0 0 0 -0.0011,0.0021 0.66145832,0.66145832 0 0 0 -0.0021,0.0011 0.66145832,0.66145832 0 0 0 -0.0072,0.0032 0.66145832,0.66145832 0 0 0 -0.03619,0.0217 0.66145832,0.66145832 0 0 0 -0.0021,0.0021 0.66145832,0.66145832 0 0 0 -0.01344,0.0083 0.66145832,0.66145832 0 0 0 -0.01551,0.01138 0.66145832,0.66145832 0 0 0 -0.01445,0.01032 0.66145832,0.66145832 0 0 0 -0.02995,0.02376 0.66145832,0.66145832 0 0 0 -0.0021,0.0011 0.66145832,0.66145832 0 0 0 -0.0021,0.0032 0.66145832,0.66145832 0 0 0 -0.0011,0.0011 0.66145832,0.66145832 0 0 0 -0.0083,0.0062 0.66145832,0.66145832 0 0 0 -0.0053,0.0062 0.66145832,0.66145832 0 0 0 -0.03514,0.03514 0.66145832,0.66145832 0 0 0 -0.0021,0.0011 0.66145832,0.66145832 0 0 0 0,0.0011 0.66145832,0.66145832 0 0 0 -0.0372,0.04339 0.66145832,0.66145832 0 0 0 -0.0093,0.01238 0.66145832,0.66145832 0 0 0 -0.0021,0.0032 0.66145832,0.66145832 0 0 0 -0.03926,0.05891 0.66145832,0.66145832 0 0 0 -0.03101,0.06305 0.66145832,0.66145832 0 0 0 -0.0021,0.0032 0.66145832,0.66145832 0 0 0 -0.0062,0.01445 0.66145832,0.66145832 0 0 0 -0.01863,0.05374 0.66145832,0.66145832 0 0 1 -0.0011,0.0011 0.66145832,0.66145832 0 0 0 0,0.0021 0.66145832,0.66145832 0 0 0 -0.01238,0.04858 0.66145832,0.66145832 0 0 0 -0.0032,0.01138 0.66145832,0.66145832 0 0 0 -0.0021,0.0083 0.66145832,0.66145832 0 0 0 0,0.0021 0.66145832,0.66145832 0 0 0 -0.0011,0.0032 0.66145832,0.66145832 0 0 0 -0.0072,0.05478 0.66145832,0.66145832 0 0 0 -0.0021,0.03514 0.66145832,0.66145832 0 0 0 -0.0021,0.04545 0.66145832,0.66145832 0 0 0 0.0011,0.0093 0.66145832,0.66145832 0 0 0 0,0.0083 0.66145832,0.66145832 0 0 0 0.0032,0.02688 0.66145832,0.66145832 0 0 0 0.0021,0.01757 0.66145832,0.66145832 0 0 0 0.0021,0.01757 0.66145832,0.66145832 0 0 0 0,0.0042 0.66145832,0.66145832 0 0 0 0.0011,0.0062 0.66145832,0.66145832 0 0 0 0.01138,0.05477 0.66145832,0.66145832 0 0 0 0.0021,0.01138 0.66145832,0.66145832 0 0 0 0.0032,0.01032 0.66145832,0.66145832 0 0 0 0.01863,0.05375 0.66145832,0.66145832 0 0 0 0.0021,0.0062 0.66145832,0.66145832 0 0 0 0.0021,0.0032 0.66145832,0.66145832 0 0 0 0.0072,0.01551 0.66145832,0.66145832 0 0 0 0.0072,0.01651 0.66145832,0.66145832 0 0 0 0.01032,0.02482 0.66145832,0.66145832 0 0 0 0.0032,0.0073 0.66145832,0.66145832 0 0 0 0.0053,0.0083 0.66145832,0.66145832 0 0 0 0.02069,0.03201 0.66145832,0.66145832 0 0 0 0.0032,0.0072 0.66145832,0.66145832 0 0 0 0.01863,0.02895 0.66145832,0.66145832 0 0 0 0.03514,0.04339 0.66145832,0.66145832 0 0 0 0.0021,0.0032 0.66145832,0.66145832 0 0 0 0.0011,0.0011 0.66145832,0.66145832 0 0 0 0.0053,0.0062 0.66145832,0.66145832 0 0 0 0.0093,0.0083 0.66145832,0.66145832 0 0 0 0.03413,0.03619 0.66145832,0.66145832 0 0 0 0.0011,0.0011 0.66145832,0.66145832 0 0 1 0.0011,0.0011 0.66145832,0.66145832 0 0 0 0.04339,0.0372 0.66145832,0.66145832 0 0 0 0.01238,0.0093 0.66145832,0.66145832 0 0 0 0.0042,0.0021 0.66145832,0.66145832 0 0 0 0.05788,0.03826 l 0.07545,0.04339 -0.07648,0.04445 a 0.66145832,0.66145832 0 0 0 -0.241845,0.903304 0.66145832,0.66145832 0 0 0 0.903303,0.242877 l 0.73795,-0.426853 1.046966,0.604616 -1.046966,0.604615 -0.737939,-0.426847 a 0.66145832,0.66145832 0 0 0 -0.903304,0.242877 0.66145832,0.66145832 0 0 0 0.241845,0.903303 l 0.07648,0.04445 -0.07545,0.04339 a 0.66145832,0.66145832 0 0 0 -0.05788,0.03826 0.66145832,0.66145832 0 0 0 -0.0042,0.0021 0.66145832,0.66145832 0 0 0 -0.01238,0.0093 0.66145832,0.66145832 0 0 0 -0.04339,0.0372 0.66145832,0.66145832 0 0 0 -0.0011,0.0011 0.66145832,0.66145832 0 0 0 -0.0011,0.0011 0.66145832,0.66145832 0 0 0 -0.03413,0.03619 0.66145832,0.66145832 0 0 0 -0.0093,0.0083 0.66145832,0.66145832 0 0 0 -0.0053,0.0062 0.66145832,0.66145832 0 0 0 -0.0011,0.0011 0.66145832,0.66145832 0 0 0 -0.0021,0.0032 0.66145832,0.66145832 0 0 0 -0.03514,0.04339 0.66145832,0.66145832 0 0 0 -0.01863,0.02894 0.66145832,0.66145832 0 0 0 -0.0032,0.0073 0.66145832,0.66145832 0 0 0 -0.02069,0.03207 0.66145832,0.66145832 0 0 0 -0.0053,0.0083 0.66145832,0.66145832 0 0 0 -0.0032,0.0072 0.66145832,0.66145832 0 0 0 -0.01032,0.02482 0.66145832,0.66145832 0 0 0 -0.0073,0.01651 0.66145832,0.66145832 0 0 0 -0.0072,0.01551 0.66145832,0.66145832 0 0 0 -0.0021,0.0032 0.66145832,0.66145832 0 0 0 -0.0021,0.0062 0.66145832,0.66145832 0 0 0 -0.01863,0.05375 0.66145832,0.66145832 0 0 0 -0.0032,0.01032 0.66145832,0.66145832 0 0 0 -0.0021,0.01138 0.66145832,0.66145832 0 0 0 -0.01138,0.05477 0.66145832,0.66145832 0 0 0 -0.0011,0.0062 0.66145832,0.66145832 0 0 0 0,0.0042 0.66145832,0.66145832 0 0 0 -0.0021,0.01757 0.66145832,0.66145832 0 0 0 -0.0021,0.01757 0.66145832,0.66145832 0 0 0 -0.0032,0.02688 0.66145832,0.66145832 0 0 0 0,0.0083 0.66145832,0.66145832 0 0 0 -0.0011,0.0093 0.66145832,0.66145832 0 0 0 0.0021,0.04545 0.66145832,0.66145832 0 0 0 0.0021,0.03514 0.66145832,0.66145832 0 0 0 0.0072,0.05478 0.66145832,0.66145832 0 0 0 0.0011,0.0032 0.66145832,0.66145832 0 0 0 0,0.0021 0.66145832,0.66145832 0 0 0 0.0021,0.0083 0.66145832,0.66145832 0 0 0 0.0032,0.01138 0.66145832,0.66145832 0 0 0 0.01238,0.04858 0.66145832,0.66145832 0 0 0 0,0.0021 0.66145832,0.66145832 0 0 0 0.0011,0.0011 0.66145832,0.66145832 0 0 0 0.01863,0.05374 0.66145832,0.66145832 0 0 0 0.0062,0.01445 0.66145832,0.66145832 0 0 0 0.0021,0.0032 0.66145832,0.66145832 0 0 0 0.03101,0.06304 0.66145832,0.66145832 0 0 0 0.03927,0.05891 0.66145832,0.66145832 0 0 0 0.0021,0.0032 0.66145832,0.66145832 0 0 0 0.0093,0.01238 0.66145832,0.66145832 0 0 0 0.0372,0.04339 0.66145832,0.66145832 0 0 1 0,0.0011 0.66145832,0.66145832 0 0 0 0.0021,0.0011 0.66145832,0.66145832 0 0 0 0.03514,0.03514 0.66145832,0.66145832 0 0 0 0.0053,0.0062 0.66145832,0.66145832 0 0 0 0.0083,0.0062 0.66145832,0.66145832 0 0 0 0.0011,0.0021 0.66145832,0.66145832 0 0 0 0.0011,0 0.66145832,0.66145832 0 0 0 0.0032,0.0032 0.66145832,0.66145832 0 0 0 0.02895,0.02376 0.66145832,0.66145832 0 0 0 0.01551,0.01032 0.66145832,0.66145832 0 0 0 0.02895,0.01963 0.66145832,0.66145832 0 0 0 0.0021,0.0021 0.66145832,0.66145832 0 0 0 0.03619,0.0217 0.66145832,0.66145832 0 0 0 0.0093,0.0042 0.66145832,0.66145832 0 0 0 0.0011,0.0021 0.66145832,0.66145832 0 0 0 0.0053,0.0021 0.66145832,0.66145832 0 0 0 0.05788,0.02482 0.66145832,0.66145832 0 0 0 0.0032,0.0021 0.66145832,0.66145832 0 0 0 0.0021,0.0011 0.66145832,0.66145832 0 0 0 0.0042,0.0011 0.66145832,0.66145832 0 0 0 0.0032,0.0011 0.66145832,0.66145832 0 0 0 0.04239,0.01445 0.66145832,0.66145832 0 0 0 0.0083,0.0021 0.66145832,0.66145832 0 0 0 0.01032,0.0042 0.66145832,0.66145832 0 0 0 0.01032,0.0021 0.66145832,0.66145832 0 0 0 0.01032,0.0021 0.66145832,0.66145832 0 0 0 0.04546,0.0083 0.66145832,0.66145832 0 0 0 0.06304,0.0083 0.66145832,0.66145832 0 0 0 0.0093,0 0.66145832,0.66145832 0 0 0 0.0072,0.0011 0.66145832,0.66145832 0 0 0 0.01032,0 0.66145832,0.66145832 0 0 0 0.01445,0 0.66145832,0.66145832 0 0 0 0.03101,-0.0011 0.66145832,0.66145832 0 0 0 0.03413,-0.0021 0.66145832,0.66145832 0 0 0 0.0053,0 0.66145832,0.66145832 0 0 0 0.05581,-0.0093 0.66145832,0.66145832 0 0 0 0.06718,-0.01757 0.66145832,0.66145832 0 0 0 0.0011,0 0.66145832,0.66145832 0 0 0 0.0011,0 0.66145832,0.66145832 0 0 1 0.0011,0 0.66145832,0.66145832 0 0 0 0.0072,-0.0032 0.66145832,0.66145832 0 0 0 0.04032,-0.01344 0.66145832,0.66145832 0 0 0 0.0062,-0.0021 0.66145832,0.66145832 0 0 0 0.01445,-0.0062 0.66145832,0.66145832 0 0 1 0.0011,-0.0011 0.66145832,0.66145832 0 0 1 0.0011,0 0.66145832,0.66145832 0 0 1 0.0011,-0.0011 0.66145832,0.66145832 0 0 1 0.0011,0 0.66145832,0.66145832 0 0 0 0.06201,-0.03207 l 0.07544,-0.04339 v 0.08888 a 0.66145832,0.66145832 0 0 0 0.661458,0.661459 0.66145832,0.66145832 0 0 0 0.661459,-0.661459 v -0.852662 l 1.046966,-0.604615 v 1.20923 l -0.737986,0.425815 a 0.66145832,0.66145832 0 0 0 -0.241845,0.904336 0.66145832,0.66145832 0 0 0 0.903303,0.241845 l 0.07648,-0.04445 v 0.08682 a 0.66145832,0.66145832 0 0 0 0.0042,0.07028 0.66145832,0.66145832 0 0 0 0,0.0042 0.66145832,0.66145832 0 0 0 0.0021,0.0155 0.66145832,0.66145832 0 0 0 0.01032,0.05581 0.66145832,0.66145832 0 0 0 0,0.0011 0.66145832,0.66145832 0 0 0 0.0011,0.0021 0.66145832,0.66145832 0 0 0 0.01344,0.04752 0.66145832,0.66145832 0 0 0 0.0032,0.01238 0.66145832,0.66145832 0 0 0 0.0021,0.0072 0.66145832,0.66145832 0 0 0 0.0011,0.0021 0.66145832,0.66145832 0 0 0 0.0011,0.0032 0.66145832,0.66145832 0 0 0 0.02069,0.0517 0.66145832,0.66145832 0 0 0 0.0155,0.03101 0.66145832,0.66145832 0 0 0 0.0042,0.0062 0.66145832,0.66145832 0 0 0 0.01757,0.03413 0.66145832,0.66145832 0 0 0 0.0053,0.0083 0.66145832,0.66145832 0 0 0 0.0042,0.0062 0.66145832,0.66145832 0 0 0 0.01651,0.0217 0.66145832,0.66145832 0 0 0 0.01032,0.01445 0.66145832,0.66145832 0 0 0 0.01032,0.01445 0.66145832,0.66145832 0 0 0 0.0021,0.0032 0.66145832,0.66145832 0 0 0 0.0042,0.0053 0.66145832,0.66145832 0 0 0 0.0372,0.04239 0.66145832,0.66145832 0 0 0 0.0072,0.0083 0.66145832,0.66145832 0 0 0 0.0083,0.0072 0.66145832,0.66145832 0 0 0 0.04239,0.0372 0.66145832,0.66145832 0 0 0 0.0053,0.0042 0.66145832,0.66145832 0 0 0 0.0032,0.0021 0.66145832,0.66145832 0 0 0 0.01445,0.01032 0.66145832,0.66145832 0 0 0 0.01445,0.01032 0.66145832,0.66145832 0 0 0 0.0217,0.01651 0.66145832,0.66145832 0 0 0 0.0062,0.0042 0.66145832,0.66145832 0 0 0 0.0083,0.0053 0.66145832,0.66145832 0 0 0 0.04032,0.0217 0.66145832,0.66145832 0 0 0 0.03101,0.0155 0.66145832,0.66145832 0 0 0 0.0517,0.02069 0.66145832,0.66145832 0 0 0 0.0032,0.0011 0.66145832,0.66145832 0 0 0 0.0021,0.0011 0.66145832,0.66145832 0 0 0 0.0072,0.0021 0.66145832,0.66145832 0 0 0 0.01238,0.0032 0.66145832,0.66145832 0 0 0 0.04752,0.01344 0.66145832,0.66145832 0 0 0 0.0021,0.0011 0.66145832,0.66145832 0 0 0 0.0011,0 0.66145832,0.66145832 0 0 0 0.05581,0.01032 0.66145832,0.66145832 0 0 0 0.01551,0.0021 0.66145832,0.66145832 0 0 0 0.0042,0 0.66145832,0.66145832 0 0 0 0.07028,0.0042 0.66145832,0.66145832 0 0 0 0.07028,-0.0042 0.66145832,0.66145832 0 0 0 0.0042,0 0.66145832,0.66145832 0 0 0 0.01551,-0.0021 0.66145832,0.66145832 0 0 0 0.0558,-0.01032 0.66145832,0.66145832 0 0 1 0.0011,0 0.66145832,0.66145832 0 0 0 0.0021,-0.0011 0.66145832,0.66145832 0 0 0 0.04752,-0.01344 0.66145832,0.66145832 0 0 0 0.0083,-0.0011 0.66145832,0.66145832 0 0 0 0.0093,-0.0042 0.66145832,0.66145832 0 0 0 0.0021,0 0.66145832,0.66145832 0 0 0 0.0011,-0.0011 0.66145832,0.66145832 0 0 0 0.0042,-0.0011 0.66145832,0.66145832 0 0 0 0.03514,-0.01344 0.66145832,0.66145832 0 0 0 0.01651,-0.0072 0.66145832,0.66145832 0 0 0 0.03101,-0.0155 0.66145832,0.66145832 0 0 0 0.0032,-0.0011 0.66145832,0.66145832 0 0 0 0.0372,-0.02069 0.66145832,0.66145832 0 0 0 0.0083,-0.0053 0.66145832,0.66145832 0 0 0 0.0021,-0.0011 0.66145832,0.66145832 0 0 0 0.0042,-0.0032 0.66145832,0.66145832 0 0 0 0.05064,-0.0372 0.66145832,0.66145832 0 0 0 0.0032,-0.0021 0.66145832,0.66145832 0 0 0 0.0021,-0.0011 0.66145832,0.66145832 0 0 0 0.0032,-0.0032 0.66145832,0.66145832 0 0 0 0.0021,-0.0021 0.66145832,0.66145832 0 0 0 0.03408,-0.02995 0.66145832,0.66145832 0 0 0 0.0062,-0.0053 0.66145832,0.66145832 0 0 0 0.0083,-0.0072 0.66145832,0.66145832 0 0 0 0.0072,-0.0083 0.66145832,0.66145832 0 0 0 0.0072,-0.0072 0.66145832,0.66145832 0 0 0 0.02995,-0.03514 0.66145832,0.66145832 0 0 0 0.03826,-0.0517 0.66145832,0.66145832 0 0 0 0.0053,-0.0072 0.66145832,0.66145832 0 0 0 0.0042,-0.0062 0.66145832,0.66145832 0 0 0 0.0053,-0.0083 0.66145832,0.66145832 0 0 0 0.0073,-0.01344 0.66145832,0.66145832 0 0 0 0.01445,-0.02688 0.66145832,0.66145832 0 0 0 0.0155,-0.03101 0.66145832,0.66145832 0 0 0 0.0021,-0.0042 0.66145832,0.66145832 0 0 0 0.02069,-0.0527 0.66145832,0.66145832 0 0 0 0.01863,-0.06718 0.66145832,0.66145832 0 0 0 0,-0.0011 0.66145832,0.66145832 0 0 0 0.0011,-0.0011 0.66145832,0.66145832 0 0 1 0,-0.0011 0.66145832,0.66145832 0 0 0 0.0011,-0.0072 0.66145832,0.66145832 0 0 0 0.0083,-0.04133 0.66145832,0.66145832 0 0 0 0.0011,-0.0072 0.66145832,0.66145832 0 0 0 0.0021,-0.0155 0.66145832,0.66145832 0 0 1 0,-0.0011 0.66145832,0.66145832 0 0 1 0,-0.0011 0.66145832,0.66145832 0 0 1 0,-0.0011 0.66145832,0.66145832 0 0 1 0,-0.0011 0.66145832,0.66145832 0 0 0 0.0042,-0.07028 v -0.08682 l 0.07649,0.04445 a 0.66145832,0.66145832 0 0 0 0.903293,-0.241872 0.66145832,0.66145832 0 0 0 -0.241845,-0.904335 l -0.738061,-0.426223 v -1.209225 l 1.046967,0.60461 v 0.852662 a 0.66145832,0.66145832 0 0 0 0.661458,0.661459 0.66145832,0.66145832 0 0 0 0.661459,-0.661459 v -0.08888 l 0.07545,0.04339 a 0.66145832,0.66145832 0 0 0 0.06201,0.03202 0.66145832,0.66145832 0 0 0 0.0042,0.0021 0.66145832,0.66145832 0 0 0 0.01445,0.0062 0.66145832,0.66145832 0 0 0 0.05375,0.01863 0.66145832,0.66145832 0 0 0 0.0011,0 0.66145832,0.66145832 0 0 0 0.0021,0.0011 0.66145832,0.66145832 0 0 0 0.04752,0.01138 0.66145832,0.66145832 0 0 0 0.01238,0.0042 0.66145832,0.66145832 0 0 0 0.0072,0.0011 0.66145832,0.66145832 0 0 0 0.0021,0.0011 0.66145832,0.66145832 0 0 0 0.0032,0 0.66145832,0.66145832 0 0 0 0.05581,0.0083 0.66145832,0.66145832 0 0 0 0.03408,0.0021 0.66145832,0.66145832 0 0 0 0.0072,-0.0011 0.66145832,0.66145832 0 0 0 0.03826,0.0021 0.66145832,0.66145832 0 0 0 0.01032,0 0.66145832,0.66145832 0 0 0 0.0072,-0.0011 0.66145832,0.66145832 0 0 0 0.02688,-0.0032 0.66145832,0.66145832 0 0 0 0.01757,-0.0021 0.66145832,0.66145832 0 0 0 0.01757,-0.0011 0.66145832,0.66145832 0 0 0 0.0042,0 0.66145832,0.66145832 0 0 0 0.0062,-0.0011 0.66145832,0.66145832 0 0 0 0.05581,-0.01138 0.66145832,0.66145832 0 0 0 0.01032,-0.0021 0.66145832,0.66145832 0 0 0 0.01032,-0.0042 0.66145832,0.66145832 0 0 0 0.05375,-0.01757 0.66145832,0.66145832 0 0 0 0.0062,-0.0021 0.66145832,0.66145832 0 0 0 0.0032,-0.0021 0.66145832,0.66145832 0 0 0 0.01651,-0.0072 0.66145832,0.66145832 0 0 0 0.01651,-0.0072 0.66145832,0.66145832 0 0 0 0.02482,-0.01032 0.66145832,0.66145832 0 0 0 0.0062,-0.0042 0.66145832,0.66145832 0 0 0 0.0093,-0.0042 0.66145832,0.66145832 0 0 0 0.03826,-0.02376 0.66145832,0.66145832 0 0 0 0.02895,-0.01963 0.66145832,0.66145832 0 0 0 0.04445,-0.03408 0.66145832,0.66145832 0 0 0 0.0021,-0.0021 0.66145832,0.66145832 0 0 0 0.0021,-0.0011 0.66145832,0.66145832 0 0 0 0.0053,-0.0062 0.66145832,0.66145832 0 0 0 0.0093,-0.0083 0.66145832,0.66145832 0 0 0 0.03514,-0.03514 0.66145832,0.66145832 0 0 0 0.0021,-0.0011 0.66145832,0.66145832 0 0 0 0,-0.0011 0.66145832,0.66145832 0 0 0 0.0372,-0.04339 0.66145832,0.66145832 0 0 0 0.0093,-0.01238 0.66145832,0.66145832 0 0 0 0.0021,-0.0032 0.66145832,0.66145832 0 0 0 0.03926,-0.05891 0.66145832,0.66145832 0 0 0 0.03101,-0.06305 0.66145832,0.66145832 0 0 0 0.0021,-0.0032 0.66145832,0.66145832 0 0 0 0.0062,-0.01445 0.66145832,0.66145832 0 0 0 0.01863,-0.05374 0.66145832,0.66145832 0 0 1 0.0011,-0.0011 0.66145832,0.66145832 0 0 0 0,-0.0021 0.66145832,0.66145832 0 0 0 0.01238,-0.04858 0.66145832,0.66145832 0 0 0 0.0032,-0.0072 0.66145832,0.66145832 0 0 0 0.0011,-0.01032 0.66145832,0.66145832 0 0 0 0.0011,-0.0021 0.66145832,0.66145832 0 0 0 0,-0.0011 0.66145832,0.66145832 0 0 0 0.0011,-0.0042 0.66145832,0.66145832 0 0 0 0.0053,-0.0372 0.66145832,0.66145832 0 0 0 0.0021,-0.01757 0.66145832,0.66145832 0 0 0 0.0021,-0.03514 0.66145832,0.66145832 0 0 0 0.0011,-0.0032 0.66145832,0.66145832 0 0 0 0.0011,-0.04239 0.66145832,0.66145832 0 0 0 -0.0011,-0.0093 0.66145832,0.66145832 0 0 0 0.0011,-0.0032 0.66145832,0.66145832 0 0 0 -0.0011,-0.0053 0.66145832,0.66145832 0 0 0 -0.0072,-0.06201 0.66145832,0.66145832 0 0 0 0,-0.0042 0.66145832,0.66145832 0 0 0 0,-0.0021 0.66145832,0.66145832 0 0 0 -0.0011,-0.0042 0.66145832,0.66145832 0 0 0 -0.0011,-0.0032 0.66145832,0.66145832 0 0 0 -0.0083,-0.04445 0.66145832,0.66145832 0 0 0 -0.0021,-0.0072 0.66145832,0.66145832 0 0 0 -0.0021,-0.01138 0.66145832,0.66145832 0 0 0 -0.0032,-0.01032 0.66145832,0.66145832 0 0 0 -0.0032,-0.0093 0.66145832,0.66145832 0 0 0 -0.01551,-0.04445 0.66145832,0.66145832 0 0 0 -0.02482,-0.05891 0.66145832,0.66145832 0 0 0 -0.0042,-0.0073 0.66145832,0.66145832 0 0 0 -0.0032,-0.0072 0.66145832,0.66145832 0 0 0 -0.0053,-0.0082 0.66145832,0.66145832 0 0 0 -0.0072,-0.01344 0.66145832,0.66145832 0 0 0 -0.01651,-0.02582 0.66145832,0.66145832 0 0 0 -0.01863,-0.02895 0.66145832,0.66145832 0 0 0 -0.0032,-0.0042 0.66145832,0.66145832 0 0 0 -0.03514,-0.04445 0.66145832,0.66145832 0 0 0 -0.04858,-0.04958 0.66145832,0.66145832 0 0 0 -0.0011,0 0.66145832,0.66145832 0 0 0 0,-0.0011 0.66145832,0.66145832 0 0 1 -0.0011,-0.0011 0.66145832,0.66145832 0 0 0 -0.0062,-0.0042 0.66145832,0.66145832 0 0 0 -0.03207,-0.02789 0.66145832,0.66145832 0 0 0 -0.0053,-0.0053 0.66145832,0.66145832 0 0 0 -0.01238,-0.0093 0.66145832,0.66145832 0 0 1 -0.0011,0 0.66145832,0.66145832 0 0 1 -0.0011,-0.0011 0.66145832,0.66145832 0 0 1 -0.0011,0 0.66145832,0.66145832 0 0 1 -0.0011,-0.0011 0.66145832,0.66145832 0 0 0 -0.05788,-0.03826 l -0.07545,-0.04339 0.07649,-0.04445 a 0.66145832,0.66145832 0 0 0 0.241961,-0.903319 0.66145832,0.66145832 0 0 0 -0.903303,-0.242877 l -0.737939,0.426847 -1.046967,-0.604615 1.046967,-0.604616 0.737939,0.426853 a 0.66145832,0.66145832 0 0 0 0.903303,-0.242883 0.66145832,0.66145832 0 0 0 -0.241845,-0.903303 l -0.07648,-0.04445 0.07545,-0.04339 a 0.66145832,0.66145832 0 0 0 0.05787,-0.03826 0.66145832,0.66145832 0 0 0 0.0011,-0.0011 0.66145832,0.66145832 0 0 0 0.0011,0 0.66145832,0.66145832 0 0 0 0.0011,-0.0011 0.66145832,0.66145832 0 0 0 0.0011,0 0.66145832,0.66145832 0 0 0 0.01238,-0.0093 0.66145832,0.66145832 0 0 0 0.0053,-0.0053 0.66145832,0.66145832 0 0 0 0.03207,-0.02789 0.66145832,0.66145832 0 0 0 0.0062,-0.0042 0.66145832,0.66145832 0 0 0 0.0011,-0.0011 0.66145832,0.66145832 0 0 0 0.0011,-0.0011 0.66145832,0.66145832 0 0 0 0.04858,-0.05064 0.66145832,0.66145832 0 0 0 0.03514,-0.04339 0.66145832,0.66145832 0 0 0 0.0032,-0.0042 0.66145832,0.66145832 0 0 0 0.01863,-0.02895 0.66145832,0.66145832 0 0 0 0.01651,-0.02582 0.66145832,0.66145832 0 0 0 0.0072,-0.01344 0.66145832,0.66145832 0 0 0 0.0053,-0.0083 0.66145832,0.66145832 0 0 0 0.0032,-0.0072 0.66145832,0.66145832 0 0 0 0.0042,-0.0072 0.66145832,0.66145832 0 0 0 0.02482,-0.05891 0.66145832,0.66145832 0 0 0 0.0155,-0.04445 0.66145832,0.66145832 0 0 0 0.0032,-0.0093 0.66145832,0.66145832 0 0 0 0.0032,-0.01032 0.66145832,0.66145832 0 0 0 0.0021,-0.01138 0.66145832,0.66145832 0 0 0 0.0021,-0.0073 0.66145832,0.66145832 0 0 0 0.0083,-0.04445 0.66145832,0.66145832 0 0 0 0.0011,-0.0032 0.66145832,0.66145832 0 0 0 0.0011,-0.0062 0.66145832,0.66145832 0 0 0 0,-0.0042 0.66145832,0.66145832 0 0 0 0.0072,-0.06201 0.66145832,0.66145832 0 0 0 0.0011,-0.0053 0.66145832,0.66145832 0 0 0 -0.0011,-0.0032 0.66145832,0.66145832 0 0 0 0,-0.0021 0.66145832,0.66145832 0 0 0 0.0011,-0.0072 0.66145832,0.66145832 0 0 0 -0.0011,-0.04239 0.66145832,0.66145832 0 0 0 -0.0011,-0.0032 0.66145832,0.66145832 0 0 0 0,-0.0155 0.66145832,0.66145832 0 0 0 -0.0021,-0.01963 0.66145832,0.66145832 0 0 0 -0.0021,-0.01757 0.66145832,0.66145832 0 0 0 -0.0053,-0.0372 0.66145832,0.66145832 0 0 0 0,-0.0021 0.66145832,0.66145832 0 0 0 -0.0011,-0.0042 0.66145832,0.66145832 0 0 0 -0.0011,-0.0011 0.66145832,0.66145832 0 0 0 -0.0011,-0.01032 0.66145832,0.66145832 0 0 0 -0.0032,-0.0073 0.66145832,0.66145832 0 0 0 -0.01238,-0.04858 0.66145832,0.66145832 0 0 0 0,-0.0021 0.66145832,0.66145832 0 0 0 -0.0011,-0.0011 0.66145832,0.66145832 0 0 0 -0.01863,-0.05374 0.66145832,0.66145832 0 0 0 -0.0062,-0.01445 0.66145832,0.66145832 0 0 0 -0.0021,-0.0032 0.66145832,0.66145832 0 0 0 -0.03101,-0.06305 0.66145832,0.66145832 0 0 0 -0.03927,-0.05891 0.66145832,0.66145832 0 0 0 -0.0021,-0.0032 0.66145832,0.66145832 0 0 0 -0.0093,-0.01238 0.66145832,0.66145832 0 0 0 -0.0372,-0.04339 0.66145832,0.66145832 0 0 1 0,-0.0011 0.66145832,0.66145832 0 0 0 -0.0021,-0.0011 0.66145832,0.66145832 0 0 0 -0.03514,-0.03514 0.66145832,0.66145832 0 0 0 -0.0093,-0.0083 0.66145832,0.66145832 0 0 0 -0.0053,-0.0062 0.66145832,0.66145832 0 0 0 -0.0021,-0.0011 0.66145832,0.66145832 0 0 0 -0.0021,-0.0021 0.66145832,0.66145832 0 0 0 -0.04445,-0.03413 0.66145832,0.66145832 0 0 0 -0.02895,-0.01963 0.66145832,0.66145832 0 0 0 -0.03826,-0.02376 0.66145832,0.66145832 0 0 0 -0.0093,-0.0042 0.66145832,0.66145832 0 0 0 -0.0062,-0.0042 0.66145832,0.66145832 0 0 0 -0.02482,-0.01032 0.66145832,0.66145832 0 0 0 -0.01651,-0.0072 0.66145832,0.66145832 0 0 0 -0.01651,-0.0073 0.66145832,0.66145832 0 0 0 -0.0032,-0.0021 0.66145832,0.66145832 0 0 0 -0.0062,-0.0021 0.66145832,0.66145832 0 0 0 -0.05374,-0.01757 0.66145832,0.66145832 0 0 0 -0.01032,-0.0042 0.66145832,0.66145832 0 0 0 -0.01032,-0.0021 0.66145832,0.66145832 0 0 0 -0.05581,-0.01138 0.66145832,0.66145832 0 0 0 -0.0062,-0.0011 0.66145832,0.66145832 0 0 0 -0.0042,0 0.66145832,0.66145832 0 0 0 -0.01757,-0.0011 0.66145832,0.66145832 0 0 0 -0.01757,-0.0021 0.66145832,0.66145832 0 0 0 -0.02688,-0.0032 0.66145832,0.66145832 0 0 0 -0.0072,-0.0011 0.66145832,0.66145832 0 0 0 -0.01032,0 0.66145832,0.66145832 0 0 0 -0.03826,0.0021 0.66145832,0.66145832 0 0 0 -0.0072,-0.0011 0.66145832,0.66145832 0 0 0 -0.03413,0.0021 0.66145832,0.66145832 0 0 0 -0.05581,0.0083 0.66145832,0.66145832 0 0 0 -0.0032,0 0.66145832,0.66145832 0 0 0 -0.0021,0.0011 0.66145832,0.66145832 0 0 0 -0.0072,0.0011 0.66145832,0.66145832 0 0 0 -0.01238,0.0042 0.66145832,0.66145832 0 0 0 -0.04752,0.01138 0.66145832,0.66145832 0 0 0 -0.0021,0.0011 0.66145832,0.66145832 0 0 1 -0.0011,0 0.66145832,0.66145832 0 0 0 -0.05374,0.01863 0.66145832,0.66145832 0 0 0 -0.01445,0.0062 0.66145832,0.66145832 0 0 0 -0.0042,0.0021 0.66145832,0.66145832 0 0 0 -0.06201,0.03207 l -0.07545,0.04339 v -0.08888 a 0.66145832,0.66145832 0 0 0 -0.661458,-0.661459 0.66145832,0.66145832 0 0 0 -0.661458,0.661459 v 0.852651 l -1.047084,0.604838 V 42.17798 l 0.737939,-0.425815 a 0.66145832,0.66145832 0 0 0 0.241845,-0.90434 0.66145832,0.66145832 0 0 0 -0.903303,-0.241845 l -0.07648,0.04445 v -0.08681 a 0.66145832,0.66145832 0 0 0 -0.0042,-0.07028 0.66145832,0.66145832 0 0 0 0,-0.0011 0.66145832,0.66145832 0 0 0 0,-0.0011 0.66145832,0.66145832 0 0 0 0,-0.0011 0.66145832,0.66145832 0 0 0 0,-0.0011 0.66145832,0.66145832 0 0 0 -0.0021,-0.0155 0.66145832,0.66145832 0 0 0 -0.0011,-0.0073 0.66145832,0.66145832 0 0 0 -0.0083,-0.04133 0.66145832,0.66145832 0 0 0 -0.0011,-0.0073 0.66145832,0.66145832 0 0 0 0,-0.0011 0.66145832,0.66145832 0 0 0 -0.0011,-0.0021 0.66145832,0.66145832 0 0 0 -0.01863,-0.06718 0.66145832,0.66145832 0 0 0 -0.02069,-0.05271 0.66145832,0.66145832 0 0 0 -0.0021,-0.0042 0.66145832,0.66145832 0 0 0 -0.01551,-0.03101 0.66145832,0.66145832 0 0 0 -0.01445,-0.02688 0.66145832,0.66145832 0 0 0 -0.0073,-0.01344 0.66145832,0.66145832 0 0 0 -0.0053,-0.0083 0.66145832,0.66145832 0 0 0 -0.0042,-0.0062 0.66145832,0.66145832 0 0 0 -0.0053,-0.0073 0.66145832,0.66145832 0 0 0 -0.03826,-0.0517 0.66145832,0.66145832 0 0 0 -0.02995,-0.03514 0.66145832,0.66145832 0 0 0 -0.0072,-0.0072 0.66145832,0.66145832 0 0 0 -0.0072,-0.0083 0.66145832,0.66145832 0 0 0 -0.0083,-0.0072 0.66145832,0.66145832 0 0 0 -0.0062,-0.0053 0.66145832,0.66145832 0 0 0 -0.03408,-0.02995 0.66145832,0.66145832 0 0 0 -0.0021,-0.0021 0.66145832,0.66145832 0 0 0 -0.0053,-0.0042 0.66145832,0.66145832 0 0 0 -0.0032,-0.0021 0.66145832,0.66145832 0 0 0 -0.05064,-0.0372 0.66145832,0.66145832 0 0 0 -0.0042,-0.0032 0.66145832,0.66145832 0 0 0 -0.0021,-0.0011 0.66145832,0.66145832 0 0 0 -0.0021,-0.0011 0.66145832,0.66145832 0 0 0 -0.0062,-0.0042 0.66145832,0.66145832 0 0 0 -0.0372,-0.02069 0.66145832,0.66145832 0 0 0 -0.0032,-0.0011 0.66145832,0.66145832 0 0 0 -0.01344,-0.0072 0.66145832,0.66145832 0 0 0 -0.01757,-0.0083 0.66145832,0.66145832 0 0 0 -0.01651,-0.0072 0.66145832,0.66145832 0 0 0 -0.03514,-0.01344 0.66145832,0.66145832 0 0 0 -0.0021,-0.0011 0.66145832,0.66145832 0 0 0 -0.0032,-0.0011 0.66145832,0.66145832 0 0 0 -0.0021,0 0.66145832,0.66145832 0 0 0 -0.0093,-0.0042 0.66145832,0.66145832 0 0 0 -0.0083,-0.0011 0.66145832,0.66145832 0 0 0 -0.04752,-0.01344 0.66145832,0.66145832 0 0 0 -0.0021,-0.0011 0.66145832,0.66145832 0 0 0 -0.0011,0 0.66145832,0.66145832 0 0 0 -0.05581,-0.01032 0.66145832,0.66145832 0 0 0 -0.0155,-0.0021 0.66145832,0.66145832 0 0 0 -0.0042,0 0.66145832,0.66145832 0 0 0 -0.07028,-0.0042 z" />
    <path
       id="path217"
       style="fill:#60aee4;fill-opacity:1;stroke-width:1.69231;stroke-linecap:square;stroke-linejoin:round"
       d="m 29.283295,43.409156 a 0.42333333,0.42333333 0 0 0 -0.04498,0.0026 0.42333333,0.42333333 0 0 0 -0.0026,0 0.42333333,0.42333333 0 0 0 -0.0099,0.0011 0.42333333,0.42333333 0 0 0 -0.03572,0.0066 0.42333333,0.42333333 0 0 1 -5.3e-4,0 0.42333333,0.42333333 0 0 0 -0.0011,5.29e-4 0.42333333,0.42333333 0 0 0 -0.03043,0.0086 0.42333333,0.42333333 0 0 0 -0.0079,0.0021 0.42333333,0.42333333 0 0 0 -0.0048,0.0011 0.42333333,0.42333333 0 0 0 -0.0011,5.29e-4 0.42333333,0.42333333 0 0 0 -0.0021,5.3e-4 0.42333333,0.42333333 0 0 0 -0.03307,0.01323 0.42333333,0.42333333 0 0 0 -0.01984,0.01 0.42333333,0.42333333 0 0 0 -0.02582,0.01392 0.42333333,0.42333333 0 0 0 -0.0053,0.0032 0.42333333,0.42333333 0 0 0 -0.0037,0.0027 0.42333333,0.42333333 0 0 0 -0.01392,0.01058 0.42333333,0.42333333 0 0 0 -0.0093,0.0066 0.42333333,0.42333333 0 0 0 -0.0093,0.0066 0.42333333,0.42333333 0 0 0 -0.0021,0.0011 0.42333333,0.42333333 0 0 0 -0.0032,0.0027 0.42333333,0.42333333 0 0 0 -0.02709,0.02381 0.42333333,0.42333333 0 0 0 -0.0053,0.0048 0.42333333,0.42333333 0 0 0 -0.0048,0.0053 0.42333333,0.42333333 0 0 0 -0.02381,0.02709 0.42333333,0.42333333 0 0 0 -0.0026,0.0032 0.42333333,0.42333333 0 0 0 -0.0011,0.0021 0.42333333,0.42333333 0 0 0 -0.0066,0.0093 0.42333333,0.42333333 0 0 0 -0.0066,0.0093 0.42333333,0.42333333 0 0 0 -0.01058,0.01392 0.42333333,0.42333333 0 0 0 -0.0026,0.0042 0.42333333,0.42333333 0 0 0 -0.0032,0.0053 0.42333333,0.42333333 0 0 0 -0.01127,0.0218 0.42333333,0.42333333 0 0 0 -0.0026,0.0042 0.42333333,0.42333333 0 0 0 -0.0099,0.01984 0.42333333,0.42333333 0 0 0 -0.01323,0.03307 0.42333333,0.42333333 0 0 0 -5.3e-4,0.0021 0.42333333,0.42333333 0 0 0 -5.29e-4,0.0011 0.42333333,0.42333333 0 0 0 -0.0016,0.0048 0.42333333,0.42333333 0 0 0 -0.0021,0.0079 0.42333333,0.42333333 0 0 0 -0.0086,0.03043 0.42333333,0.42333333 0 0 0 -5.3e-4,0.0016 0.42333333,0.42333333 0 0 1 0,5.29e-4 0.42333333,0.42333333 0 0 0 -0.0066,0.03572 0.42333333,0.42333333 0 0 0 -0.0011,0.01 0.42333333,0.42333333 0 0 0 0,0.0026 0.42333333,0.42333333 0 0 0 -0.0026,0.04498 v 0.05556 l -0.04895,-0.02842 a 0.42333333,0.42333333 0 0 0 -0.578115,0.154781 0.42333333,0.42333333 0 0 0 0.154782,0.578776 l 0.472187,0.272514 v 0.773906 l -0.670047,-0.387 v -0.545703 a 0.42333333,0.42333333 0 0 0 -0.423333,-0.423334 0.42333333,0.42333333 0 0 0 -0.423334,0.423334 v 0.05688 l -0.04831,-0.02778 a 0.42333333,0.42333333 0 0 0 -0.03969,-0.02048 0.42333333,0.42333333 0 0 0 -5.29e-4,0 0.42333333,0.42333333 0 0 0 -5.29e-4,-5.3e-4 0.42333333,0.42333333 0 0 0 -5.3e-4,0 0.42333333,0.42333333 0 0 0 -5.29e-4,-5.29e-4 0.42333333,0.42333333 0 0 0 -0.0093,-0.0037 0.42333333,0.42333333 0 0 0 -0.0037,-0.0011 0.42333333,0.42333333 0 0 0 -0.02577,-0.0086 0.42333333,0.42333333 0 0 0 -0.0048,-0.0021 0.42333333,0.42333333 0 0 0 -5.29e-4,0 0.42333333,0.42333333 0 0 0 -0.0011,-5.29e-4 0.42333333,0.42333333 0 0 0 -0.04302,-0.01058 0.42333333,0.42333333 0 0 0 -0.03572,-0.0059 0.42333333,0.42333333 0 0 0 -0.0032,0 0.42333333,0.42333333 0 0 0 -0.0218,-0.0011 0.42333333,0.42333333 0 0 0 -0.01984,-5.29e-4 0.42333333,0.42333333 0 0 0 -0.0093,0 0.42333333,0.42333333 0 0 0 -0.0066,0 0.42333333,0.42333333 0 0 0 -0.0048,5.29e-4 0.42333333,0.42333333 0 0 0 -0.0059,0 0.42333333,0.42333333 0 0 0 -0.04038,0.0048 0.42333333,0.42333333 0 0 0 -0.0291,0.0059 0.42333333,0.42333333 0 0 0 -0.0066,0.0011 0.42333333,0.42333333 0 0 0 -0.0066,0.0011 0.42333333,0.42333333 0 0 0 -0.0066,0.0027 0.42333333,0.42333333 0 0 0 -0.0053,0.0011 0.42333333,0.42333333 0 0 0 -0.02709,0.0093 0.42333333,0.42333333 0 0 0 -0.0021,5.29e-4 0.42333333,0.42333333 0 0 0 -0.0037,0.0011 0.42333333,0.42333333 0 0 0 -0.0021,0.0011 0.42333333,0.42333333 0 0 0 -0.03704,0.01588 0.42333333,0.42333333 0 0 0 -0.0032,0.0011 0.42333333,0.42333333 0 0 0 -5.29e-4,0.0011 0.42333333,0.42333333 0 0 0 -0.0011,5.29e-4 0.42333333,0.42333333 0 0 0 -0.0048,0.0021 0.42333333,0.42333333 0 0 0 -0.02318,0.01392 0.42333333,0.42333333 0 0 0 -0.0011,0.0011 0.42333333,0.42333333 0 0 0 -0.0086,0.0053 0.42333333,0.42333333 0 0 0 -0.0099,0.0072 0.42333333,0.42333333 0 0 0 -0.0093,0.0066 0.42333333,0.42333333 0 0 0 -0.01921,0.01524 0.42333333,0.42333333 0 0 0 -0.0011,5.29e-4 0.42333333,0.42333333 0 0 0 -0.0011,0.0021 0.42333333,0.42333333 0 0 0 -5.29e-4,5.3e-4 0.42333333,0.42333333 0 0 0 -0.0053,0.0042 0.42333333,0.42333333 0 0 0 -0.0032,0.0037 0.42333333,0.42333333 0 0 0 -0.02249,0.02249 0.42333333,0.42333333 0 0 0 -0.0011,5.29e-4 0.42333333,0.42333333 0 0 0 0,5.29e-4 0.42333333,0.42333333 0 0 0 -0.02381,0.02778 0.42333333,0.42333333 0 0 0 -0.0059,0.0079 0.42333333,0.42333333 0 0 0 -0.0011,0.0021 0.42333333,0.42333333 0 0 0 -0.02513,0.03768 0.42333333,0.42333333 0 0 0 -0.01984,0.04038 0.42333333,0.42333333 0 0 0 -0.0011,0.0021 0.42333333,0.42333333 0 0 0 -0.0037,0.0093 0.42333333,0.42333333 0 0 0 -0.01191,0.0344 0.42333333,0.42333333 0 0 1 -5.3e-4,5.29e-4 0.42333333,0.42333333 0 0 0 0,0.0011 0.42333333,0.42333333 0 0 0 -0.0079,0.03111 0.42333333,0.42333333 0 0 0 -0.0021,0.0072 0.42333333,0.42333333 0 0 0 -0.0011,0.0053 0.42333333,0.42333333 0 0 0 0,0.0011 0.42333333,0.42333333 0 0 0 -5.29e-4,0.0021 0.42333333,0.42333333 0 0 0 -0.0048,0.03503 0.42333333,0.42333333 0 0 0 -0.0011,0.02249 0.42333333,0.42333333 0 0 0 -0.0011,0.0291 0.42333333,0.42333333 0 0 0 5.29e-4,0.0059 0.42333333,0.42333333 0 0 0 0,0.0053 0.42333333,0.42333333 0 0 0 0.0021,0.0172 0.42333333,0.42333333 0 0 0 0.0011,0.01122 0.42333333,0.42333333 0 0 0 0.0011,0.01127 0.42333333,0.42333333 0 0 0 0,0.0026 0.42333333,0.42333333 0 0 0 5.29e-4,0.0042 0.42333333,0.42333333 0 0 0 0.0073,0.03503 0.42333333,0.42333333 0 0 0 0.0011,0.0072 0.42333333,0.42333333 0 0 0 0.0021,0.0066 0.42333333,0.42333333 0 0 0 0.01191,0.0344 0.42333333,0.42333333 0 0 0 0.0011,0.0037 0.42333333,0.42333333 0 0 0 0.0011,0.0021 0.42333333,0.42333333 0 0 0 0.0048,0.0099 0.42333333,0.42333333 0 0 0 0.0048,0.01058 0.42333333,0.42333333 0 0 0 0.0066,0.01587 0.42333333,0.42333333 0 0 0 0.0021,0.0048 0.42333333,0.42333333 0 0 0 0.0032,0.0053 0.42333333,0.42333333 0 0 0 0.01323,0.02048 0.42333333,0.42333333 0 0 0 0.0021,0.0048 0.42333333,0.42333333 0 0 0 0.01191,0.01852 0.42333333,0.42333333 0 0 0 0.02249,0.02778 0.42333333,0.42333333 0 0 0 0.0011,0.0021 0.42333333,0.42333333 0 0 0 5.29e-4,5.29e-4 0.42333333,0.42333333 0 0 0 0.0032,0.0037 0.42333333,0.42333333 0 0 0 0.006,0.0053 0.42333333,0.42333333 0 0 0 0.0218,0.02313 0.42333333,0.42333333 0 0 0 5.29e-4,5.3e-4 0.42333333,0.42333333 0 0 1 5.3e-4,5.29e-4 0.42333333,0.42333333 0 0 0 0.02778,0.02381 0.42333333,0.42333333 0 0 0 0.0079,0.0059 0.42333333,0.42333333 0 0 0 0.0026,0.0011 0.42333333,0.42333333 0 0 0 0.03704,0.0245 l 0.04831,0.02778 -0.04895,0.02842 a 0.42333333,0.42333333 0 0 0 -0.154781,0.578114 0.42333333,0.42333333 0 0 0 0.578114,0.155443 l 0.472632,-0.273191 0.670057,0.386953 -0.670057,0.386953 -0.472281,-0.273182 a 0.42333333,0.42333333 0 0 0 -0.578115,0.155442 0.42333333,0.42333333 0 0 0 0.154781,0.578115 l 0.04895,0.02842 -0.04831,0.02778 a 0.42333333,0.42333333 0 0 0 -0.03704,0.0245 0.42333333,0.42333333 0 0 0 -0.0026,0.0016 0.42333333,0.42333333 0 0 0 -0.0079,0.0059 0.42333333,0.42333333 0 0 0 -0.02778,0.02381 0.42333333,0.42333333 0 0 0 -5.29e-4,5.29e-4 0.42333333,0.42333333 0 0 0 -5.29e-4,5.29e-4 0.42333333,0.42333333 0 0 0 -0.0218,0.02318 0.42333333,0.42333333 0 0 0 -0.006,0.0053 0.42333333,0.42333333 0 0 0 -0.0032,0.0037 0.42333333,0.42333333 0 0 0 -5.29e-4,5.29e-4 0.42333333,0.42333333 0 0 0 -0.0011,0.0021 0.42333333,0.42333333 0 0 0 -0.02249,0.02778 0.42333333,0.42333333 0 0 0 -0.01191,0.01852 0.42333333,0.42333333 0 0 0 -0.0021,0.0048 0.42333333,0.42333333 0 0 0 -0.01323,0.02048 0.42333333,0.42333333 0 0 0 -0.0032,0.0053 0.42333333,0.42333333 0 0 0 -0.0021,0.0048 0.42333333,0.42333333 0 0 0 -0.0066,0.01587 0.42333333,0.42333333 0 0 0 -0.0048,0.01058 0.42333333,0.42333333 0 0 0 -0.0048,0.0099 0.42333333,0.42333333 0 0 0 -0.0011,0.0021 0.42333333,0.42333333 0 0 0 -0.0011,0.0037 0.42333333,0.42333333 0 0 0 -0.01191,0.0344 0.42333333,0.42333333 0 0 0 -0.0021,0.0066 0.42333333,0.42333333 0 0 0 -0.0011,0.0072 0.42333333,0.42333333 0 0 0 -0.0073,0.03503 0.42333333,0.42333333 0 0 0 -5.3e-4,0.0042 0.42333333,0.42333333 0 0 0 0,0.0026 0.42333333,0.42333333 0 0 0 -0.0016,0.01122 0.42333333,0.42333333 0 0 0 -0.0011,0.01127 0.42333333,0.42333333 0 0 0 -0.0021,0.0172 0.42333333,0.42333333 0 0 0 0,0.0053 0.42333333,0.42333333 0 0 0 -5.29e-4,0.0059 0.42333333,0.42333333 0 0 0 0.0011,0.0291 0.42333333,0.42333333 0 0 0 0.0011,0.02249 0.42333333,0.42333333 0 0 0 0.0048,0.03503 0.42333333,0.42333333 0 0 0 5.29e-4,0.0021 0.42333333,0.42333333 0 0 0 0,0.0011 0.42333333,0.42333333 0 0 0 0.0011,0.0053 0.42333333,0.42333333 0 0 0 0.0021,0.0073 0.42333333,0.42333333 0 0 0 0.0079,0.03106 0.42333333,0.42333333 0 0 0 0,0.0011 0.42333333,0.42333333 0 0 0 5.29e-4,5.29e-4 0.42333333,0.42333333 0 0 0 0.01191,0.0344 0.42333333,0.42333333 0 0 0 0.0037,0.0093 0.42333333,0.42333333 0 0 0 0.0011,0.0021 0.42333333,0.42333333 0 0 0 0.01984,0.04037 0.42333333,0.42333333 0 0 0 0.02514,0.03768 0.42333333,0.42333333 0 0 0 0.0011,0.0021 0.42333333,0.42333333 0 0 0 0.006,0.0079 0.42333333,0.42333333 0 0 0 0.02381,0.02778 0.42333333,0.42333333 0 0 1 0,5.29e-4 0.42333333,0.42333333 0 0 0 0.0011,5.3e-4 0.42333333,0.42333333 0 0 0 0.02249,0.02249 0.42333333,0.42333333 0 0 0 0.0032,0.0037 0.42333333,0.42333333 0 0 0 0.0053,0.0037 0.42333333,0.42333333 0 0 0 5.29e-4,0.0011 0.42333333,0.42333333 0 0 0 5.29e-4,0 0.42333333,0.42333333 0 0 0 0.0021,0.0021 0.42333333,0.42333333 0 0 0 0.01852,0.01524 0.42333333,0.42333333 0 0 0 0.0099,0.0066 0.42333333,0.42333333 0 0 0 0.01852,0.01259 0.42333333,0.42333333 0 0 0 0.0011,0.0011 0.42333333,0.42333333 0 0 0 0.02318,0.01392 0.42333333,0.42333333 0 0 0 0.0059,0.0026 0.42333333,0.42333333 0 0 0 5.29e-4,0.0011 0.42333333,0.42333333 0 0 0 0.0032,0.0011 0.42333333,0.42333333 0 0 0 0.03704,0.01587 0.42333333,0.42333333 0 0 0 0.0021,0.0011 0.42333333,0.42333333 0 0 0 0.0011,5.29e-4 0.42333333,0.42333333 0 0 0 0.0026,5.29e-4 0.42333333,0.42333333 0 0 0 0.0021,5.29e-4 0.42333333,0.42333333 0 0 0 0.02709,0.0093 0.42333333,0.42333333 0 0 0 0.0053,0.0011 0.42333333,0.42333333 0 0 0 0.0066,0.0026 0.42333333,0.42333333 0 0 0 0.0066,0.0011 0.42333333,0.42333333 0 0 0 0.0066,0.0011 0.42333333,0.42333333 0 0 0 0.0291,0.0053 0.42333333,0.42333333 0 0 0 0.04032,0.0053 0.42333333,0.42333333 0 0 0 0.006,0 0.42333333,0.42333333 0 0 0 0.0048,5.29e-4 0.42333333,0.42333333 0 0 0 0.0066,0 0.42333333,0.42333333 0 0 0 0.0093,0 0.42333333,0.42333333 0 0 0 0.01984,-5.29e-4 0.42333333,0.42333333 0 0 0 0.02185,-0.0011 0.42333333,0.42333333 0 0 0 0.0032,0 0.42333333,0.42333333 0 0 0 0.03572,-0.0059 0.42333333,0.42333333 0 0 0 0.04302,-0.01127 0.42333333,0.42333333 0 0 0 5.29e-4,0 0.42333333,0.42333333 0 0 0 5.3e-4,0 0.42333333,0.42333333 0 0 1 5.29e-4,0 0.42333333,0.42333333 0 0 0 0.0048,-0.0021 0.42333333,0.42333333 0 0 0 0.02582,-0.0086 0.42333333,0.42333333 0 0 0 0.0037,-0.0011 0.42333333,0.42333333 0 0 0 0.0093,-0.0037 0.42333333,0.42333333 0 0 1 5.29e-4,-5.29e-4 0.42333333,0.42333333 0 0 1 5.3e-4,0 0.42333333,0.42333333 0 0 1 5.29e-4,-5.3e-4 0.42333333,0.42333333 0 0 1 5.29e-4,0 0.42333333,0.42333333 0 0 0 0.03969,-0.02048 l 0.04831,-0.02778 v 0.05689 a 0.42333333,0.42333333 0 0 0 0.423334,0.423333 0.42333333,0.42333333 0 0 0 0.423333,-0.423333 v -0.545703 l 0.670068,-0.387684 v 0.773907 l -0.472313,0.27252 a 0.42333333,0.42333333 0 0 0 -0.154781,0.578777 0.42333333,0.42333333 0 0 0 0.578114,0.154781 l 0.04895,-0.02842 v 0.05556 a 0.42333333,0.42333333 0 0 0 0.0026,0.04498 0.42333333,0.42333333 0 0 0 0,0.0026 0.42333333,0.42333333 0 0 0 0.0011,0.0099 0.42333333,0.42333333 0 0 0 0.0066,0.03572 0.42333333,0.42333333 0 0 0 0,5.29e-4 0.42333333,0.42333333 0 0 0 5.29e-4,0.0011 0.42333333,0.42333333 0 0 0 0.0086,0.03043 0.42333333,0.42333333 0 0 0 0.0021,0.0079 0.42333333,0.42333333 0 0 0 0.0011,0.0048 0.42333333,0.42333333 0 0 0 5.3e-4,0.0011 0.42333333,0.42333333 0 0 0 5.29e-4,0.0021 0.42333333,0.42333333 0 0 0 0.01323,0.03307 0.42333333,0.42333333 0 0 0 0.0099,0.01984 0.42333333,0.42333333 0 0 0 0.0026,0.0037 0.42333333,0.42333333 0 0 0 0.01122,0.0218 0.42333333,0.42333333 0 0 0 0.0032,0.0053 0.42333333,0.42333333 0 0 0 0.0026,0.0037 0.42333333,0.42333333 0 0 0 0.01058,0.01392 0.42333333,0.42333333 0 0 0 0.0066,0.0093 0.42333333,0.42333333 0 0 0 0.0066,0.0093 0.42333333,0.42333333 0 0 0 0.0011,0.0021 0.42333333,0.42333333 0 0 0 0.0026,0.0032 0.42333333,0.42333333 0 0 0 0.02381,0.02715 0.42333333,0.42333333 0 0 0 0.0048,0.0053 0.42333333,0.42333333 0 0 0 0.0053,0.0048 0.42333333,0.42333333 0 0 0 0.02715,0.02381 0.42333333,0.42333333 0 0 0 0.0032,0.0026 0.42333333,0.42333333 0 0 0 0.0021,0.0011 0.42333333,0.42333333 0 0 0 0.0093,0.0066 0.42333333,0.42333333 0 0 0 0.0093,0.0066 0.42333333,0.42333333 0 0 0 0.01392,0.01058 0.42333333,0.42333333 0 0 0 0.0037,0.0026 0.42333333,0.42333333 0 0 0 0.0053,0.0032 0.42333333,0.42333333 0 0 0 0.02577,0.01392 0.42333333,0.42333333 0 0 0 0.01984,0.0099 0.42333333,0.42333333 0 0 0 0.03307,0.01323 0.42333333,0.42333333 0 0 0 0.0021,5.29e-4 0.42333333,0.42333333 0 0 0 0.0011,5.29e-4 0.42333333,0.42333333 0 0 0 0.0048,0.0011 0.42333333,0.42333333 0 0 0 0.0079,0.0021 0.42333333,0.42333333 0 0 0 0.03043,0.0086 0.42333333,0.42333333 0 0 0 0.0011,5.29e-4 0.42333333,0.42333333 0 0 0 5.29e-4,0 0.42333333,0.42333333 0 0 0 0.03572,0.0066 0.42333333,0.42333333 0 0 0 0.0099,0.0011 0.42333333,0.42333333 0 0 0 0.0026,0 0.42333333,0.42333333 0 0 0 0.04498,0.0026 0.42333333,0.42333333 0 0 0 0.04498,-0.0026 0.42333333,0.42333333 0 0 0 0.0026,0 0.42333333,0.42333333 0 0 0 0.0099,-0.0011 0.42333333,0.42333333 0 0 0 0.03572,-0.0066 0.42333333,0.42333333 0 0 1 5.29e-4,0 0.42333333,0.42333333 0 0 0 0.0011,-5.29e-4 0.42333333,0.42333333 0 0 0 0.03043,-0.0086 0.42333333,0.42333333 0 0 0 0.0053,-5.29e-4 0.42333333,0.42333333 0 0 0 0.006,-0.0026 0.42333333,0.42333333 0 0 0 0.0011,0 0.42333333,0.42333333 0 0 0 5.29e-4,-5.29e-4 0.42333333,0.42333333 0 0 0 0.0026,-5.29e-4 0.42333333,0.42333333 0 0 0 0.02249,-0.0086 0.42333333,0.42333333 0 0 0 0.01058,-0.0048 0.42333333,0.42333333 0 0 0 0.01984,-0.0099 0.42333333,0.42333333 0 0 0 0.0021,-5.29e-4 0.42333333,0.42333333 0 0 0 0.02381,-0.01323 0.42333333,0.42333333 0 0 0 0.0053,-0.0032 0.42333333,0.42333333 0 0 0 0.0011,-5.29e-4 0.42333333,0.42333333 0 0 0 0.0026,-0.0021 0.42333333,0.42333333 0 0 0 0.03238,-0.02381 0.42333333,0.42333333 0 0 0 0.0021,-0.0011 0.42333333,0.42333333 0 0 0 0.0011,-5.29e-4 0.42333333,0.42333333 0 0 0 0.0021,-0.0021 0.42333333,0.42333333 0 0 0 0.0011,-0.0011 0.42333333,0.42333333 0 0 0 0.0218,-0.01916 0.42333333,0.42333333 0 0 0 0.0037,-0.0032 0.42333333,0.42333333 0 0 0 0.0053,-0.0048 0.42333333,0.42333333 0 0 0 0.0048,-0.0053 0.42333333,0.42333333 0 0 0 0.0048,-0.0048 0.42333333,0.42333333 0 0 0 0.01916,-0.02249 0.42333333,0.42333333 0 0 0 0.0245,-0.03307 0.42333333,0.42333333 0 0 0 0.0032,-0.0048 0.42333333,0.42333333 0 0 0 0.0026,-0.0037 0.42333333,0.42333333 0 0 0 0.0032,-0.0053 0.42333333,0.42333333 0 0 0 0.0048,-0.0086 0.42333333,0.42333333 0 0 0 0.0093,-0.0172 0.42333333,0.42333333 0 0 0 0.0099,-0.01984 0.42333333,0.42333333 0 0 0 0.0011,-0.0026 0.42333333,0.42333333 0 0 0 0.01323,-0.03371 0.42333333,0.42333333 0 0 0 0.01191,-0.04302 0.42333333,0.42333333 0 0 0 0,-5.29e-4 0.42333333,0.42333333 0 0 0 5.29e-4,-5.29e-4 0.42333333,0.42333333 0 0 1 0,-5.3e-4 0.42333333,0.42333333 0 0 0 5.29e-4,-0.0048 0.42333333,0.42333333 0 0 0 0.0053,-0.02646 0.42333333,0.42333333 0 0 0 5.29e-4,-0.0048 0.42333333,0.42333333 0 0 0 0.0011,-0.0099 0.42333333,0.42333333 0 0 1 0,-5.29e-4 0.42333333,0.42333333 0 0 1 0,-5.3e-4 0.42333333,0.42333333 0 0 1 0,-5.29e-4 0.42333333,0.42333333 0 0 1 0,-5.29e-4 0.42333333,0.42333333 0 0 0 0.0026,-0.04498 v -0.05556 l 0.04895,0.02842 a 0.42333333,0.42333333 0 0 0 0.578072,-0.154496 0.42333333,0.42333333 0 0 0 -0.154781,-0.578776 l -0.472356,-0.27278 v -0.773906 l 0.670058,0.386953 v 0.545703 a 0.42333333,0.42333333 0 0 0 0.423333,0.423333 0.42333333,0.42333333 0 0 0 0.423333,-0.423333 v -0.05688 l 0.04831,0.02778 a 0.42333333,0.42333333 0 0 0 0.03969,0.02048 0.42333333,0.42333333 0 0 0 0.0026,0.0011 0.42333333,0.42333333 0 0 0 0.0093,0.0042 0.42333333,0.42333333 0 0 0 0.0344,0.01191 0.42333333,0.42333333 0 0 0 5.29e-4,0 0.42333333,0.42333333 0 0 0 0.0011,5.3e-4 0.42333333,0.42333333 0 0 0 0.03043,0.0072 0.42333333,0.42333333 0 0 0 0.0079,0.0026 0.42333333,0.42333333 0 0 0 0.0048,5.29e-4 0.42333333,0.42333333 0 0 0 0.0011,5.29e-4 0.42333333,0.42333333 0 0 0 0.0021,0 0.42333333,0.42333333 0 0 0 0.03572,0.0053 0.42333333,0.42333333 0 0 0 0.0218,0.0011 0.42333333,0.42333333 0 0 0 0.0048,-5.29e-4 0.42333333,0.42333333 0 0 0 0.02445,0.0016 0.42333333,0.42333333 0 0 0 0.0066,0 0.42333333,0.42333333 0 0 0 0.0048,-5.29e-4 0.42333333,0.42333333 0 0 0 0.0172,-0.0021 0.42333333,0.42333333 0 0 0 0.01122,-0.0011 0.42333333,0.42333333 0 0 0 0.01127,-5.3e-4 0.42333333,0.42333333 0 0 0 0.0026,0 0.42333333,0.42333333 0 0 0 0.0042,-5.29e-4 0.42333333,0.42333333 0 0 0 0.03572,-0.0072 0.42333333,0.42333333 0 0 0 0.0066,-0.0011 0.42333333,0.42333333 0 0 0 0.0066,-0.0026 0.42333333,0.42333333 0 0 0 0.0344,-0.01127 0.42333333,0.42333333 0 0 0 0.0037,-0.0011 0.42333333,0.42333333 0 0 0 0.0021,-0.0011 0.42333333,0.42333333 0 0 0 0.01058,-0.0048 0.42333333,0.42333333 0 0 0 0.01058,-0.0048 0.42333333,0.42333333 0 0 0 0.01588,-0.0066 0.42333333,0.42333333 0 0 0 0.0037,-0.0026 0.42333333,0.42333333 0 0 0 0.006,-0.0026 0.42333333,0.42333333 0 0 0 0.0245,-0.01524 0.42333333,0.42333333 0 0 0 0.01852,-0.01259 0.42333333,0.42333333 0 0 0 0.02842,-0.0218 0.42333333,0.42333333 0 0 0 0.0011,-0.0016 0.42333333,0.42333333 0 0 0 0.0011,-5.29e-4 0.42333333,0.42333333 0 0 0 0.0032,-0.0037 0.42333333,0.42333333 0 0 0 0.006,-0.0053 0.42333333,0.42333333 0 0 0 0.02249,-0.02249 0.42333333,0.42333333 0 0 0 0.0011,-5.29e-4 0.42333333,0.42333333 0 0 0 0,-5.29e-4 0.42333333,0.42333333 0 0 0 0.02381,-0.02778 0.42333333,0.42333333 0 0 0 0.0059,-0.0079 0.42333333,0.42333333 0 0 0 0.0011,-0.0021 0.42333333,0.42333333 0 0 0 0.02513,-0.03768 0.42333333,0.42333333 0 0 0 0.01984,-0.04032 0.42333333,0.42333333 0 0 0 0.0011,-0.0021 0.42333333,0.42333333 0 0 0 0.0037,-0.0093 0.42333333,0.42333333 0 0 0 0.01191,-0.03439 0.42333333,0.42333333 0 0 1 5.29e-4,-5.3e-4 0.42333333,0.42333333 0 0 0 0,-0.0011 0.42333333,0.42333333 0 0 0 0.0079,-0.03111 0.42333333,0.42333333 0 0 0 0.0021,-0.0048 0.42333333,0.42333333 0 0 0 5.29e-4,-0.0066 0.42333333,0.42333333 0 0 0 5.29e-4,-0.0011 0.42333333,0.42333333 0 0 0 0,-5.3e-4 0.42333333,0.42333333 0 0 0 5.3e-4,-0.0026 0.42333333,0.42333333 0 0 0 0.0032,-0.02381 0.42333333,0.42333333 0 0 0 0.0011,-0.01127 0.42333333,0.42333333 0 0 0 0.0011,-0.02249 0.42333333,0.42333333 0 0 0 5.29e-4,-0.0021 0.42333333,0.42333333 0 0 0 5.3e-4,-0.02715 0.42333333,0.42333333 0 0 0 -5.3e-4,-0.0059 0.42333333,0.42333333 0 0 0 5.3e-4,-0.0021 0.42333333,0.42333333 0 0 0 -5.3e-4,-0.0032 0.42333333,0.42333333 0 0 0 -0.0048,-0.03969 0.42333333,0.42333333 0 0 0 0,-0.0026 0.42333333,0.42333333 0 0 0 0,-0.0011 0.42333333,0.42333333 0 0 0 -5.29e-4,-0.0026 0.42333333,0.42333333 0 0 0 -5.29e-4,-0.0021 0.42333333,0.42333333 0 0 0 -0.0053,-0.02842 0.42333333,0.42333333 0 0 0 -0.0011,-0.0048 0.42333333,0.42333333 0 0 0 -0.0011,-0.0073 0.42333333,0.42333333 0 0 0 -0.0021,-0.0066 0.42333333,0.42333333 0 0 0 -0.0021,-0.006 0.42333333,0.42333333 0 0 0 -0.0099,-0.02842 0.42333333,0.42333333 0 0 0 -0.01588,-0.03773 0.42333333,0.42333333 0 0 0 -0.0026,-0.0048 0.42333333,0.42333333 0 0 0 -0.0021,-0.0048 0.42333333,0.42333333 0 0 0 -0.0032,-0.0053 0.42333333,0.42333333 0 0 0 -0.0048,-0.0086 0.42333333,0.42333333 0 0 0 -0.01058,-0.01651 0.42333333,0.42333333 0 0 0 -0.01191,-0.01852 0.42333333,0.42333333 0 0 0 -0.0021,-0.0026 0.42333333,0.42333333 0 0 0 -0.02249,-0.02842 0.42333333,0.42333333 0 0 0 -0.03111,-0.03175 0.42333333,0.42333333 0 0 0 -5.29e-4,0 0.42333333,0.42333333 0 0 0 0,-5.3e-4 0.42333333,0.42333333 0 0 1 -5.3e-4,-5.29e-4 0.42333333,0.42333333 0 0 0 -0.0037,-0.0026 0.42333333,0.42333333 0 0 0 -0.02048,-0.01783 0.42333333,0.42333333 0 0 0 -0.0032,-0.0032 0.42333333,0.42333333 0 0 0 -0.0079,-0.0059 0.42333333,0.42333333 0 0 1 -5.29e-4,0 0.42333333,0.42333333 0 0 1 -5.29e-4,-5.29e-4 0.42333333,0.42333333 0 0 1 -5.3e-4,0 0.42333333,0.42333333 0 0 1 -5.29e-4,-5.29e-4 0.42333333,0.42333333 0 0 0 -0.03704,-0.0245 l -0.04831,-0.02778 0.04895,-0.02847 a 0.42333333,0.42333333 0 0 0 0.154307,-0.578571 0.42333333,0.42333333 0 0 0 -0.578115,-0.155443 l -0.472281,0.273182 -0.670058,-0.386952 0.670058,-0.386954 0.472281,0.273183 a 0.42333333,0.42333333 0 0 0 0.578115,-0.155443 0.42333333,0.42333333 0 0 0 -0.154782,-0.578115 l -0.04895,-0.02842 0.04831,-0.02778 a 0.42333333,0.42333333 0 0 0 0.03704,-0.0245 0.42333333,0.42333333 0 0 0 5.29e-4,-5.29e-4 0.42333333,0.42333333 0 0 0 5.29e-4,0 0.42333333,0.42333333 0 0 0 5.3e-4,-5.29e-4 0.42333333,0.42333333 0 0 0 5.29e-4,0 0.42333333,0.42333333 0 0 0 0.0079,-0.006 0.42333333,0.42333333 0 0 0 0.0032,-0.0032 0.42333333,0.42333333 0 0 0 0.02048,-0.01783 0.42333333,0.42333333 0 0 0 0.0037,-0.0026 0.42333333,0.42333333 0 0 0 5.29e-4,-5.29e-4 0.42333333,0.42333333 0 0 0 5.29e-4,-5.29e-4 0.42333333,0.42333333 0 0 0 0.03111,-0.03244 0.42333333,0.42333333 0 0 0 0.02249,-0.02778 0.42333333,0.42333333 0 0 0 0.0021,-0.0026 0.42333333,0.42333333 0 0 0 0.01191,-0.01852 0.42333333,0.42333333 0 0 0 0.01058,-0.01651 0.42333333,0.42333333 0 0 0 0.0048,-0.0086 0.42333333,0.42333333 0 0 0 0.0032,-0.0053 0.42333333,0.42333333 0 0 0 0.0021,-0.0048 0.42333333,0.42333333 0 0 0 0.0026,-0.0048 0.42333333,0.42333333 0 0 0 0.01588,-0.03768 0.42333333,0.42333333 0 0 0 0.0099,-0.02842 0.42333333,0.42333333 0 0 0 0.0021,-0.006 0.42333333,0.42333333 0 0 0 0.0021,-0.0066 0.42333333,0.42333333 0 0 0 0.0011,-0.0072 0.42333333,0.42333333 0 0 0 0.0011,-0.0048 0.42333333,0.42333333 0 0 0 0.0053,-0.02842 0.42333333,0.42333333 0 0 0 5.3e-4,-0.0021 0.42333333,0.42333333 0 0 0 5.29e-4,-0.0037 0.42333333,0.42333333 0 0 0 0,-0.0027 0.42333333,0.42333333 0 0 0 0.0048,-0.03969 0.42333333,0.42333333 0 0 0 5.29e-4,-0.0032 0.42333333,0.42333333 0 0 0 -5.29e-4,-0.0021 0.42333333,0.42333333 0 0 0 0,-0.0011 0.42333333,0.42333333 0 0 0 5.29e-4,-0.0048 0.42333333,0.42333333 0 0 0 -5.29e-4,-0.02709 0.42333333,0.42333333 0 0 0 -5.29e-4,-0.0021 0.42333333,0.42333333 0 0 0 0,-0.0099 0.42333333,0.42333333 0 0 0 -0.0011,-0.01259 0.42333333,0.42333333 0 0 0 -0.0011,-0.01127 0.42333333,0.42333333 0 0 0 -0.0032,-0.02381 0.42333333,0.42333333 0 0 0 0,-0.0011 0.42333333,0.42333333 0 0 0 -5.29e-4,-0.0026 0.42333333,0.42333333 0 0 0 -5.29e-4,-5.29e-4 0.42333333,0.42333333 0 0 0 -5.29e-4,-0.0066 0.42333333,0.42333333 0 0 0 -0.0021,-0.0048 0.42333333,0.42333333 0 0 0 -0.0079,-0.03112 0.42333333,0.42333333 0 0 0 0,-0.0011 0.42333333,0.42333333 0 0 0 -5.29e-4,-5.3e-4 0.42333333,0.42333333 0 0 0 -0.01191,-0.0344 0.42333333,0.42333333 0 0 0 -0.0037,-0.0093 0.42333333,0.42333333 0 0 0 -0.0011,-0.0021 0.42333333,0.42333333 0 0 0 -0.01984,-0.04032 0.42333333,0.42333333 0 0 0 -0.02513,-0.03773 0.42333333,0.42333333 0 0 0 -0.0016,-0.0021 0.42333333,0.42333333 0 0 0 -0.0059,-0.0079 0.42333333,0.42333333 0 0 0 -0.02381,-0.02778 0.42333333,0.42333333 0 0 1 0,-5.29e-4 0.42333333,0.42333333 0 0 0 -0.0011,-5.29e-4 0.42333333,0.42333333 0 0 0 -0.02249,-0.02249 0.42333333,0.42333333 0 0 0 -0.0059,-0.0053 0.42333333,0.42333333 0 0 0 -0.0032,-0.0037 0.42333333,0.42333333 0 0 0 -0.0011,-5.29e-4 0.42333333,0.42333333 0 0 0 -0.0011,-0.0011 0.42333333,0.42333333 0 0 0 -0.02842,-0.0218 0.42333333,0.42333333 0 0 0 -0.01852,-0.01259 0.42333333,0.42333333 0 0 0 -0.0245,-0.01524 0.42333333,0.42333333 0 0 0 -0.006,-0.0026 0.42333333,0.42333333 0 0 0 -0.0037,-0.0027 0.42333333,0.42333333 0 0 0 -0.01588,-0.0066 0.42333333,0.42333333 0 0 0 -0.01058,-0.0048 0.42333333,0.42333333 0 0 0 -0.01058,-0.0048 0.42333333,0.42333333 0 0 0 -0.0021,-0.0011 0.42333333,0.42333333 0 0 0 -0.0037,-0.0011 0.42333333,0.42333333 0 0 0 -0.0344,-0.01127 0.42333333,0.42333333 0 0 0 -0.0066,-0.0026 0.42333333,0.42333333 0 0 0 -0.0066,-0.0011 0.42333333,0.42333333 0 0 0 -0.03572,-0.0072 0.42333333,0.42333333 0 0 0 -0.0037,-5.29e-4 0.42333333,0.42333333 0 0 0 -0.0026,0 0.42333333,0.42333333 0 0 0 -0.01127,-5.29e-4 0.42333333,0.42333333 0 0 0 -0.01127,-0.0011 0.42333333,0.42333333 0 0 0 -0.0172,-0.0021 0.42333333,0.42333333 0 0 0 -0.0048,-5.3e-4 0.42333333,0.42333333 0 0 0 -0.0066,0 0.42333333,0.42333333 0 0 0 -0.02445,0.0011 0.42333333,0.42333333 0 0 0 -0.0048,-5.29e-4 0.42333333,0.42333333 0 0 0 -0.02186,0.0016 0.42333333,0.42333333 0 0 0 -0.03572,0.0053 0.42333333,0.42333333 0 0 0 -0.0021,0 0.42333333,0.42333333 0 0 0 -0.0011,5.29e-4 0.42333333,0.42333333 0 0 0 -0.0048,5.3e-4 0.42333333,0.42333333 0 0 0 -0.0079,0.0027 0.42333333,0.42333333 0 0 0 -0.03043,0.0072 0.42333333,0.42333333 0 0 0 -0.0011,5.29e-4 0.42333333,0.42333333 0 0 1 -5.29e-4,0 0.42333333,0.42333333 0 0 0 -0.0344,0.01191 0.42333333,0.42333333 0 0 0 -0.0093,0.0037 0.42333333,0.42333333 0 0 0 -0.0026,0.0011 0.42333333,0.42333333 0 0 0 -0.03969,0.02048 l -0.04812,0.02779 v -0.05689 a 0.42333333,0.42333333 0 0 0 -0.423333,-0.423334 0.42333333,0.42333333 0 0 0 -0.423333,0.423334 v 0.545698 l -0.670132,0.387096 v -0.773907 l 0.472281,-0.272526 a 0.42333333,0.42333333 0 0 0 0.154782,-0.578776 0.42333333,0.42333333 0 0 0 -0.578115,-0.154781 l -0.04895,0.02842 v -0.05556 a 0.42333333,0.42333333 0 0 0 -0.0026,-0.04498 0.42333333,0.42333333 0 0 0 0,-5.29e-4 0.42333333,0.42333333 0 0 0 0,-5.29e-4 0.42333333,0.42333333 0 0 0 0,-5.3e-4 0.42333333,0.42333333 0 0 0 0,-5.29e-4 0.42333333,0.42333333 0 0 0 -0.0011,-0.0099 0.42333333,0.42333333 0 0 0 -5.29e-4,-0.0048 0.42333333,0.42333333 0 0 0 -0.0053,-0.02646 0.42333333,0.42333333 0 0 0 -5.29e-4,-0.0048 0.42333333,0.42333333 0 0 0 0,-5.29e-4 0.42333333,0.42333333 0 0 0 -5.29e-4,-0.0011 0.42333333,0.42333333 0 0 0 -0.01191,-0.04297 0.42333333,0.42333333 0 0 0 -0.01323,-0.03376 0.42333333,0.42333333 0 0 0 -0.0011,-0.0027 0.42333333,0.42333333 0 0 0 -0.0099,-0.01984 0.42333333,0.42333333 0 0 0 -0.0093,-0.0172 0.42333333,0.42333333 0 0 0 -0.0048,-0.0086 0.42333333,0.42333333 0 0 0 -0.0032,-0.0053 0.42333333,0.42333333 0 0 0 -0.0026,-0.0037 0.42333333,0.42333333 0 0 0 -0.0032,-0.0048 0.42333333,0.42333333 0 0 0 -0.02445,-0.03307 0.42333333,0.42333333 0 0 0 -0.01916,-0.02249 0.42333333,0.42333333 0 0 0 -0.0048,-0.0048 0.42333333,0.42333333 0 0 0 -0.0048,-0.0053 0.42333333,0.42333333 0 0 0 -0.0053,-0.0048 0.42333333,0.42333333 0 0 0 -0.0037,-0.0032 0.42333333,0.42333333 0 0 0 -0.0218,-0.01916 0.42333333,0.42333333 0 0 0 -0.0011,-0.0011 0.42333333,0.42333333 0 0 0 -0.0032,-0.0027 0.42333333,0.42333333 0 0 0 -0.0021,-0.0011 0.42333333,0.42333333 0 0 0 -0.03239,-0.02381 0.42333333,0.42333333 0 0 0 -0.0026,-0.0021 0.42333333,0.42333333 0 0 0 -0.0011,-5.29e-4 0.42333333,0.42333333 0 0 0 -0.0011,-5.29e-4 0.42333333,0.42333333 0 0 0 -0.0042,-0.0026 0.42333333,0.42333333 0 0 0 -0.02381,-0.01323 0.42333333,0.42333333 0 0 0 -0.0021,-5.29e-4 0.42333333,0.42333333 0 0 0 -0.0086,-0.0048 0.42333333,0.42333333 0 0 0 -0.01127,-0.0053 0.42333333,0.42333333 0 0 0 -0.01058,-0.0048 0.42333333,0.42333333 0 0 0 -0.02249,-0.0086 0.42333333,0.42333333 0 0 0 -0.0011,-5.3e-4 0.42333333,0.42333333 0 0 0 -0.0021,-5.29e-4 0.42333333,0.42333333 0 0 0 -0.0011,0 0.42333333,0.42333333 0 0 0 -0.006,-0.0027 0.42333333,0.42333333 0 0 0 -0.0053,-5.29e-4 0.42333333,0.42333333 0 0 0 -0.03043,-0.0086 0.42333333,0.42333333 0 0 0 -0.0011,-5.29e-4 0.42333333,0.42333333 0 0 0 -5.3e-4,0 0.42333333,0.42333333 0 0 0 -0.03572,-0.0066 0.42333333,0.42333333 0 0 0 -0.0099,-0.0011 0.42333333,0.42333333 0 0 0 -0.0026,0 0.42333333,0.42333333 0 0 0 -0.04498,-0.0026 z" />
    <path
       id="rect1-6"
       style="fill:#60aee4;fill-opacity:1;stroke-width:2.64422;stroke-linecap:square;stroke-linejoin:round"
       d="m 40.481527,38.937575 a 0.66145832,0.66145832 0 0 0 -0.07028,0.0042 0.66145832,0.66145832 0 0 0 -0.0042,0 0.66145832,0.66145832 0 0 0 -0.0155,0.0021 0.66145832,0.66145832 0 0 0 -0.05581,0.01032 0.66145832,0.66145832 0 0 1 -0.0011,0 0.66145832,0.66145832 0 0 0 -0.0021,0.0011 0.66145832,0.66145832 0 0 0 -0.04752,0.01344 0.66145832,0.66145832 0 0 0 -0.01238,0.0032 0.66145832,0.66145832 0 0 0 -0.0072,0.0021 0.66145832,0.66145832 0 0 0 -0.0021,0.0011 0.66145832,0.66145832 0 0 0 -0.0032,0.0011 0.66145832,0.66145832 0 0 0 -0.0517,0.02069 0.66145832,0.66145832 0 0 0 -0.03101,0.01551 0.66145832,0.66145832 0 0 0 -0.04032,0.0217 0.66145832,0.66145832 0 0 0 -0.0083,0.0053 0.66145832,0.66145832 0 0 0 -0.0062,0.0042 0.66145832,0.66145832 0 0 0 -0.0217,0.01651 0.66145832,0.66145832 0 0 0 -0.01445,0.01032 0.66145832,0.66145832 0 0 0 -0.01445,0.01032 0.66145832,0.66145832 0 0 0 -0.0032,0.0021 0.66145832,0.66145832 0 0 0 -0.0053,0.0042 0.66145832,0.66145832 0 0 0 -0.04239,0.0372 0.66145832,0.66145832 0 0 0 -0.0083,0.0072 0.66145832,0.66145832 0 0 0 -0.0073,0.0083 0.66145832,0.66145832 0 0 0 -0.0372,0.04239 0.66145832,0.66145832 0 0 0 -0.0042,0.0053 0.66145832,0.66145832 0 0 0 -0.0021,0.0032 0.66145832,0.66145832 0 0 0 -0.01032,0.01445 0.66145832,0.66145832 0 0 0 -0.01032,0.01445 0.66145832,0.66145832 0 0 0 -0.01651,0.0217 0.66145832,0.66145832 0 0 0 -0.0042,0.0062 0.66145832,0.66145832 0 0 0 -0.0053,0.0083 0.66145832,0.66145832 0 0 0 -0.01757,0.03408 0.66145832,0.66145832 0 0 0 -0.0042,0.0062 0.66145832,0.66145832 0 0 0 -0.0155,0.03101 0.66145832,0.66145832 0 0 0 -0.02069,0.0517 0.66145832,0.66145832 0 0 0 -0.0011,0.0032 0.66145832,0.66145832 0 0 0 -0.0011,0.0021 0.66145832,0.66145832 0 0 0 -0.0021,0.0072 0.66145832,0.66145832 0 0 0 -0.0032,0.01238 0.66145832,0.66145832 0 0 0 -0.01344,0.04752 0.66145832,0.66145832 0 0 0 -0.0011,0.0021 0.66145832,0.66145832 0 0 1 0,0.0011 0.66145832,0.66145832 0 0 0 -0.01032,0.05581 0.66145832,0.66145832 0 0 0 -0.0021,0.01551 0.66145832,0.66145832 0 0 0 0,0.0042 0.66145832,0.66145832 0 0 0 -0.0042,0.07028 v 0.08682 l -0.07648,-0.04445 a 0.66145832,0.66145832 0 0 0 -0.903304,0.241845 0.66145832,0.66145832 0 0 0 0.241845,0.904336 l 0.737939,0.425815 v 1.20923 l -1.046961,-0.60462 v -0.852662 a 0.66145832,0.66145832 0 0 0 -0.661459,-0.661459 0.66145832,0.66145832 0 0 0 -0.661458,0.661459 v 0.08888 l -0.07545,-0.04339 a 0.66145832,0.66145832 0 0 0 -0.06201,-0.03207 0.66145832,0.66145832 0 0 0 -0.0011,0 0.66145832,0.66145832 0 0 0 -0.0011,-0.0011 0.66145832,0.66145832 0 0 0 -0.0011,0 0.66145832,0.66145832 0 0 0 -0.0011,-0.0011 0.66145832,0.66145832 0 0 0 -0.01445,-0.0062 0.66145832,0.66145832 0 0 0 -0.0062,-0.0021 0.66145832,0.66145832 0 0 0 -0.04032,-0.01344 0.66145832,0.66145832 0 0 0 -0.0072,-0.0032 0.66145832,0.66145832 0 0 0 -0.0011,0 0.66145832,0.66145832 0 0 0 -0.0021,-0.0011 0.66145832,0.66145832 0 0 0 -0.06718,-0.01651 0.66145832,0.66145832 0 0 0 -0.05581,-0.0093 0.66145832,0.66145832 0 0 0 -0.0053,0 0.66145832,0.66145832 0 0 0 -0.03413,-0.0021 0.66145832,0.66145832 0 0 0 -0.03101,-0.0011 0.66145832,0.66145832 0 0 0 -0.01445,0 0.66145832,0.66145832 0 0 0 -0.01032,0 0.66145832,0.66145832 0 0 0 -0.0072,0.0011 0.66145832,0.66145832 0 0 0 -0.0093,0 0.66145832,0.66145832 0 0 0 -0.06304,0.0072 0.66145832,0.66145832 0 0 0 -0.04546,0.0093 0.66145832,0.66145832 0 0 0 -0.01032,0.0021 0.66145832,0.66145832 0 0 0 -0.01032,0.0021 0.66145832,0.66145832 0 0 0 -0.01032,0.0042 0.66145832,0.66145832 0 0 0 -0.0083,0.0021 0.66145832,0.66145832 0 0 0 -0.04239,0.01445 0.66145832,0.66145832 0 0 0 -0.0032,0.0011 0.66145832,0.66145832 0 0 0 -0.0062,0.0021 0.66145832,0.66145832 0 0 0 -0.0032,0.0021 0.66145832,0.66145832 0 0 0 -0.05787,0.02482 0.66145832,0.66145832 0 0 0 -0.0053,0.0021 0.66145832,0.66145832 0 0 0 -0.0011,0.0021 0.66145832,0.66145832 0 0 0 -0.0021,0.0011 0.66145832,0.66145832 0 0 0 -0.0072,0.0032 0.66145832,0.66145832 0 0 0 -0.03619,0.0217 0.66145832,0.66145832 0 0 0 -0.0021,0.0021 0.66145832,0.66145832 0 0 0 -0.01344,0.0083 0.66145832,0.66145832 0 0 0 -0.01551,0.01138 0.66145832,0.66145832 0 0 0 -0.01445,0.01032 0.66145832,0.66145832 0 0 0 -0.02995,0.02376 0.66145832,0.66145832 0 0 0 -0.0021,0.0011 0.66145832,0.66145832 0 0 0 -0.0021,0.0032 0.66145832,0.66145832 0 0 0 -0.0011,0.0011 0.66145832,0.66145832 0 0 0 -0.0083,0.0062 0.66145832,0.66145832 0 0 0 -0.0053,0.0062 0.66145832,0.66145832 0 0 0 -0.03514,0.03514 0.66145832,0.66145832 0 0 0 -0.0021,0.0011 0.66145832,0.66145832 0 0 0 0,0.0011 0.66145832,0.66145832 0 0 0 -0.0372,0.04339 0.66145832,0.66145832 0 0 0 -0.0093,0.01238 0.66145832,0.66145832 0 0 0 -0.0021,0.0032 0.66145832,0.66145832 0 0 0 -0.03926,0.05891 0.66145832,0.66145832 0 0 0 -0.03101,0.06305 0.66145832,0.66145832 0 0 0 -0.0021,0.0032 0.66145832,0.66145832 0 0 0 -0.0062,0.01445 0.66145832,0.66145832 0 0 0 -0.01863,0.05374 0.66145832,0.66145832 0 0 1 -0.0011,0.0011 0.66145832,0.66145832 0 0 0 0,0.0021 0.66145832,0.66145832 0 0 0 -0.01238,0.04858 0.66145832,0.66145832 0 0 0 -0.0032,0.01138 0.66145832,0.66145832 0 0 0 -0.0021,0.0083 0.66145832,0.66145832 0 0 0 0,0.0021 0.66145832,0.66145832 0 0 0 -0.0011,0.0032 0.66145832,0.66145832 0 0 0 -0.0072,0.05478 0.66145832,0.66145832 0 0 0 -0.0021,0.03514 0.66145832,0.66145832 0 0 0 -0.0021,0.04545 0.66145832,0.66145832 0 0 0 0.0011,0.0093 0.66145832,0.66145832 0 0 0 0,0.0083 0.66145832,0.66145832 0 0 0 0.0032,0.02688 0.66145832,0.66145832 0 0 0 0.0021,0.01757 0.66145832,0.66145832 0 0 0 0.0021,0.01757 0.66145832,0.66145832 0 0 0 0,0.0042 0.66145832,0.66145832 0 0 0 0.0011,0.0062 0.66145832,0.66145832 0 0 0 0.01138,0.05477 0.66145832,0.66145832 0 0 0 0.0021,0.01138 0.66145832,0.66145832 0 0 0 0.0032,0.01032 0.66145832,0.66145832 0 0 0 0.01863,0.05375 0.66145832,0.66145832 0 0 0 0.0021,0.0062 0.66145832,0.66145832 0 0 0 0.0021,0.0032 0.66145832,0.66145832 0 0 0 0.0072,0.01551 0.66145832,0.66145832 0 0 0 0.0072,0.01651 0.66145832,0.66145832 0 0 0 0.01032,0.02482 0.66145832,0.66145832 0 0 0 0.0032,0.0073 0.66145832,0.66145832 0 0 0 0.0053,0.0083 0.66145832,0.66145832 0 0 0 0.02069,0.03201 0.66145832,0.66145832 0 0 0 0.0032,0.0072 0.66145832,0.66145832 0 0 0 0.01863,0.02895 0.66145832,0.66145832 0 0 0 0.03514,0.04339 0.66145832,0.66145832 0 0 0 0.0021,0.0032 0.66145832,0.66145832 0 0 0 0.0011,0.0011 0.66145832,0.66145832 0 0 0 0.0053,0.0062 0.66145832,0.66145832 0 0 0 0.0093,0.0083 0.66145832,0.66145832 0 0 0 0.03413,0.03619 0.66145832,0.66145832 0 0 0 0.0011,0.0011 0.66145832,0.66145832 0 0 1 0.0011,0.0011 0.66145832,0.66145832 0 0 0 0.04339,0.0372 0.66145832,0.66145832 0 0 0 0.01238,0.0093 0.66145832,0.66145832 0 0 0 0.0042,0.0021 0.66145832,0.66145832 0 0 0 0.05788,0.03826 l 0.07545,0.04339 -0.07648,0.04445 a 0.66145832,0.66145832 0 0 0 -0.241845,0.903304 0.66145832,0.66145832 0 0 0 0.903303,0.242877 l 0.73795,-0.426853 1.046966,0.604616 -1.046966,0.604615 -0.737939,-0.426847 a 0.66145832,0.66145832 0 0 0 -0.903304,0.242877 0.66145832,0.66145832 0 0 0 0.241845,0.903303 l 0.07648,0.04445 -0.07545,0.04339 a 0.66145832,0.66145832 0 0 0 -0.05788,0.03826 0.66145832,0.66145832 0 0 0 -0.0042,0.0021 0.66145832,0.66145832 0 0 0 -0.01238,0.0093 0.66145832,0.66145832 0 0 0 -0.04339,0.0372 0.66145832,0.66145832 0 0 0 -0.0011,0.0011 0.66145832,0.66145832 0 0 0 -0.0011,0.0011 0.66145832,0.66145832 0 0 0 -0.03413,0.03619 0.66145832,0.66145832 0 0 0 -0.0093,0.0083 0.66145832,0.66145832 0 0 0 -0.0053,0.0062 0.66145832,0.66145832 0 0 0 -0.0011,0.0011 0.66145832,0.66145832 0 0 0 -0.0021,0.0032 0.66145832,0.66145832 0 0 0 -0.03514,0.04339 0.66145832,0.66145832 0 0 0 -0.01863,0.02894 0.66145832,0.66145832 0 0 0 -0.0032,0.0073 0.66145832,0.66145832 0 0 0 -0.02069,0.03207 0.66145832,0.66145832 0 0 0 -0.0053,0.0083 0.66145832,0.66145832 0 0 0 -0.0032,0.0072 0.66145832,0.66145832 0 0 0 -0.01032,0.02482 0.66145832,0.66145832 0 0 0 -0.0073,0.01651 0.66145832,0.66145832 0 0 0 -0.0072,0.01551 0.66145832,0.66145832 0 0 0 -0.0021,0.0032 0.66145832,0.66145832 0 0 0 -0.0021,0.0062 0.66145832,0.66145832 0 0 0 -0.01863,0.05375 0.66145832,0.66145832 0 0 0 -0.0032,0.01032 0.66145832,0.66145832 0 0 0 -0.0021,0.01138 0.66145832,0.66145832 0 0 0 -0.01138,0.05477 0.66145832,0.66145832 0 0 0 -0.0011,0.0062 0.66145832,0.66145832 0 0 0 0,0.0042 0.66145832,0.66145832 0 0 0 -0.0021,0.01757 0.66145832,0.66145832 0 0 0 -0.0021,0.01757 0.66145832,0.66145832 0 0 0 -0.0032,0.02688 0.66145832,0.66145832 0 0 0 0,0.0083 0.66145832,0.66145832 0 0 0 -0.0011,0.0093 0.66145832,0.66145832 0 0 0 0.0021,0.04545 0.66145832,0.66145832 0 0 0 0.0021,0.03514 0.66145832,0.66145832 0 0 0 0.0072,0.05478 0.66145832,0.66145832 0 0 0 0.0011,0.0032 0.66145832,0.66145832 0 0 0 0,0.0021 0.66145832,0.66145832 0 0 0 0.0021,0.0083 0.66145832,0.66145832 0 0 0 0.0032,0.01138 0.66145832,0.66145832 0 0 0 0.01238,0.04858 0.66145832,0.66145832 0 0 0 0,0.0021 0.66145832,0.66145832 0 0 0 0.0011,0.0011 0.66145832,0.66145832 0 0 0 0.01863,0.05374 0.66145832,0.66145832 0 0 0 0.0062,0.01445 0.66145832,0.66145832 0 0 0 0.0021,0.0032 0.66145832,0.66145832 0 0 0 0.03101,0.06304 0.66145832,0.66145832 0 0 0 0.03927,0.05891 0.66145832,0.66145832 0 0 0 0.0021,0.0032 0.66145832,0.66145832 0 0 0 0.0093,0.01238 0.66145832,0.66145832 0 0 0 0.0372,0.04339 0.66145832,0.66145832 0 0 1 0,0.0011 0.66145832,0.66145832 0 0 0 0.0021,0.0011 0.66145832,0.66145832 0 0 0 0.03514,0.03514 0.66145832,0.66145832 0 0 0 0.0053,0.0062 0.66145832,0.66145832 0 0 0 0.0083,0.0062 0.66145832,0.66145832 0 0 0 0.0011,0.0021 0.66145832,0.66145832 0 0 0 0.0011,0 0.66145832,0.66145832 0 0 0 0.0032,0.0032 0.66145832,0.66145832 0 0 0 0.02895,0.02376 0.66145832,0.66145832 0 0 0 0.01551,0.01032 0.66145832,0.66145832 0 0 0 0.02895,0.01963 0.66145832,0.66145832 0 0 0 0.0021,0.0021 0.66145832,0.66145832 0 0 0 0.03619,0.0217 0.66145832,0.66145832 0 0 0 0.0093,0.0042 0.66145832,0.66145832 0 0 0 0.0011,0.0021 0.66145832,0.66145832 0 0 0 0.0053,0.0021 0.66145832,0.66145832 0 0 0 0.05788,0.02482 0.66145832,0.66145832 0 0 0 0.0032,0.0021 0.66145832,0.66145832 0 0 0 0.0021,0.0011 0.66145832,0.66145832 0 0 0 0.0042,0.0011 0.66145832,0.66145832 0 0 0 0.0032,0.0011 0.66145832,0.66145832 0 0 0 0.04239,0.01445 0.66145832,0.66145832 0 0 0 0.0083,0.0021 0.66145832,0.66145832 0 0 0 0.01032,0.0042 0.66145832,0.66145832 0 0 0 0.01032,0.0021 0.66145832,0.66145832 0 0 0 0.01032,0.0021 0.66145832,0.66145832 0 0 0 0.04546,0.0083 0.66145832,0.66145832 0 0 0 0.06304,0.0083 0.66145832,0.66145832 0 0 0 0.0093,0 0.66145832,0.66145832 0 0 0 0.0072,0.0011 0.66145832,0.66145832 0 0 0 0.01032,0 0.66145832,0.66145832 0 0 0 0.01445,0 0.66145832,0.66145832 0 0 0 0.03101,-0.0011 0.66145832,0.66145832 0 0 0 0.03413,-0.0021 0.66145832,0.66145832 0 0 0 0.0053,0 0.66145832,0.66145832 0 0 0 0.05581,-0.0093 0.66145832,0.66145832 0 0 0 0.06718,-0.01757 0.66145832,0.66145832 0 0 0 0.0011,0 0.66145832,0.66145832 0 0 0 0.0011,0 0.66145832,0.66145832 0 0 1 0.0011,0 0.66145832,0.66145832 0 0 0 0.0072,-0.0032 0.66145832,0.66145832 0 0 0 0.04032,-0.01344 0.66145832,0.66145832 0 0 0 0.0062,-0.0021 0.66145832,0.66145832 0 0 0 0.01445,-0.0062 0.66145832,0.66145832 0 0 1 0.0011,-0.0011 0.66145832,0.66145832 0 0 1 0.0011,0 0.66145832,0.66145832 0 0 1 0.0011,-0.0011 0.66145832,0.66145832 0 0 1 0.0011,0 0.66145832,0.66145832 0 0 0 0.06201,-0.03207 l 0.07544,-0.04339 v 0.08888 a 0.66145832,0.66145832 0 0 0 0.661458,0.661459 0.66145832,0.66145832 0 0 0 0.661459,-0.661459 v -0.852662 l 1.046966,-0.604615 v 1.20923 l -0.737986,0.425815 a 0.66145832,0.66145832 0 0 0 -0.241845,0.904336 0.66145832,0.66145832 0 0 0 0.903303,0.241845 l 0.07648,-0.04445 v 0.08682 a 0.66145832,0.66145832 0 0 0 0.0042,0.07028 0.66145832,0.66145832 0 0 0 0,0.0042 0.66145832,0.66145832 0 0 0 0.0021,0.0155 0.66145832,0.66145832 0 0 0 0.01032,0.05581 0.66145832,0.66145832 0 0 0 0,0.0011 0.66145832,0.66145832 0 0 0 0.0011,0.0021 0.66145832,0.66145832 0 0 0 0.01344,0.04752 0.66145832,0.66145832 0 0 0 0.0032,0.01238 0.66145832,0.66145832 0 0 0 0.0021,0.0072 0.66145832,0.66145832 0 0 0 0.0011,0.0021 0.66145832,0.66145832 0 0 0 0.0011,0.0032 0.66145832,0.66145832 0 0 0 0.02069,0.0517 0.66145832,0.66145832 0 0 0 0.0155,0.03101 0.66145832,0.66145832 0 0 0 0.0042,0.0062 0.66145832,0.66145832 0 0 0 0.01757,0.03413 0.66145832,0.66145832 0 0 0 0.0053,0.0083 0.66145832,0.66145832 0 0 0 0.0042,0.0062 0.66145832,0.66145832 0 0 0 0.01651,0.0217 0.66145832,0.66145832 0 0 0 0.01032,0.01445 0.66145832,0.66145832 0 0 0 0.01032,0.01445 0.66145832,0.66145832 0 0 0 0.0021,0.0032 0.66145832,0.66145832 0 0 0 0.0042,0.0053 0.66145832,0.66145832 0 0 0 0.0372,0.04239 0.66145832,0.66145832 0 0 0 0.0072,0.0083 0.66145832,0.66145832 0 0 0 0.0083,0.0072 0.66145832,0.66145832 0 0 0 0.04239,0.0372 0.66145832,0.66145832 0 0 0 0.0053,0.0042 0.66145832,0.66145832 0 0 0 0.0032,0.0021 0.66145832,0.66145832 0 0 0 0.01445,0.01032 0.66145832,0.66145832 0 0 0 0.01445,0.01032 0.66145832,0.66145832 0 0 0 0.0217,0.01651 0.66145832,0.66145832 0 0 0 0.0062,0.0042 0.66145832,0.66145832 0 0 0 0.0083,0.0053 0.66145832,0.66145832 0 0 0 0.04032,0.0217 0.66145832,0.66145832 0 0 0 0.03101,0.0155 0.66145832,0.66145832 0 0 0 0.0517,0.02069 0.66145832,0.66145832 0 0 0 0.0032,0.0011 0.66145832,0.66145832 0 0 0 0.0021,0.0011 0.66145832,0.66145832 0 0 0 0.0072,0.0021 0.66145832,0.66145832 0 0 0 0.01238,0.0032 0.66145832,0.66145832 0 0 0 0.04752,0.01344 0.66145832,0.66145832 0 0 0 0.0021,0.0011 0.66145832,0.66145832 0 0 0 0.0011,0 0.66145832,0.66145832 0 0 0 0.05581,0.01032 0.66145832,0.66145832 0 0 0 0.01551,0.0021 0.66145832,0.66145832 0 0 0 0.0042,0 0.66145832,0.66145832 0 0 0 0.07028,0.0042 0.66145832,0.66145832 0 0 0 0.07028,-0.0042 0.66145832,0.66145832 0 0 0 0.0042,0 0.66145832,0.66145832 0 0 0 0.01551,-0.0021 0.66145832,0.66145832 0 0 0 0.0558,-0.01032 0.66145832,0.66145832 0 0 1 0.0011,0 0.66145832,0.66145832 0 0 0 0.0021,-0.0011 0.66145832,0.66145832 0 0 0 0.04752,-0.01344 0.66145832,0.66145832 0 0 0 0.0083,-0.0011 0.66145832,0.66145832 0 0 0 0.0093,-0.0042 0.66145832,0.66145832 0 0 0 0.0021,0 0.66145832,0.66145832 0 0 0 0.0011,-0.0011 0.66145832,0.66145832 0 0 0 0.0042,-0.0011 0.66145832,0.66145832 0 0 0 0.03514,-0.01344 0.66145832,0.66145832 0 0 0 0.01651,-0.0072 0.66145832,0.66145832 0 0 0 0.03101,-0.0155 0.66145832,0.66145832 0 0 0 0.0032,-0.0011 0.66145832,0.66145832 0 0 0 0.0372,-0.02069 0.66145832,0.66145832 0 0 0 0.0083,-0.0053 0.66145832,0.66145832 0 0 0 0.0021,-0.0011 0.66145832,0.66145832 0 0 0 0.0042,-0.0032 0.66145832,0.66145832 0 0 0 0.05064,-0.0372 0.66145832,0.66145832 0 0 0 0.0032,-0.0021 0.66145832,0.66145832 0 0 0 0.0021,-0.0011 0.66145832,0.66145832 0 0 0 0.0032,-0.0032 0.66145832,0.66145832 0 0 0 0.0021,-0.0021 0.66145832,0.66145832 0 0 0 0.03408,-0.02995 0.66145832,0.66145832 0 0 0 0.0062,-0.0053 0.66145832,0.66145832 0 0 0 0.0083,-0.0072 0.66145832,0.66145832 0 0 0 0.0072,-0.0083 0.66145832,0.66145832 0 0 0 0.0072,-0.0072 0.66145832,0.66145832 0 0 0 0.02995,-0.03514 0.66145832,0.66145832 0 0 0 0.03826,-0.0517 0.66145832,0.66145832 0 0 0 0.0053,-0.0072 0.66145832,0.66145832 0 0 0 0.0042,-0.0062 0.66145832,0.66145832 0 0 0 0.0053,-0.0083 0.66145832,0.66145832 0 0 0 0.0073,-0.01344 0.66145832,0.66145832 0 0 0 0.01445,-0.02688 0.66145832,0.66145832 0 0 0 0.0155,-0.03101 0.66145832,0.66145832 0 0 0 0.0021,-0.0042 0.66145832,0.66145832 0 0 0 0.02069,-0.0527 0.66145832,0.66145832 0 0 0 0.01863,-0.06718 0.66145832,0.66145832 0 0 0 0,-0.0011 0.66145832,0.66145832 0 0 0 0.0011,-0.0011 0.66145832,0.66145832 0 0 1 0,-0.0011 0.66145832,0.66145832 0 0 0 0.0011,-0.0072 0.66145832,0.66145832 0 0 0 0.0083,-0.04133 0.66145832,0.66145832 0 0 0 0.0011,-0.0072 0.66145832,0.66145832 0 0 0 0.0021,-0.0155 0.66145832,0.66145832 0 0 1 0,-0.0011 0.66145832,0.66145832 0 0 1 0,-0.0011 0.66145832,0.66145832 0 0 1 0,-0.0011 0.66145832,0.66145832 0 0 1 0,-0.0011 0.66145832,0.66145832 0 0 0 0.0042,-0.07028 v -0.08682 l 0.07649,0.04445 a 0.66145832,0.66145832 0 0 0 0.903293,-0.241872 0.66145832,0.66145832 0 0 0 -0.241845,-0.904335 L 41.144521,45.92556 v -1.209225 l 1.046967,0.60461 v 0.852662 a 0.66145832,0.66145832 0 0 0 0.661458,0.661459 0.66145832,0.66145832 0 0 0 0.661459,-0.661459 v -0.08888 l 0.07545,0.04339 a 0.66145832,0.66145832 0 0 0 0.06201,0.03202 0.66145832,0.66145832 0 0 0 0.0042,0.0021 0.66145832,0.66145832 0 0 0 0.01445,0.0062 0.66145832,0.66145832 0 0 0 0.05375,0.01863 0.66145832,0.66145832 0 0 0 0.0011,0 0.66145832,0.66145832 0 0 0 0.0021,0.0011 0.66145832,0.66145832 0 0 0 0.04752,0.01138 0.66145832,0.66145832 0 0 0 0.01238,0.0042 0.66145832,0.66145832 0 0 0 0.0072,0.0011 0.66145832,0.66145832 0 0 0 0.0021,0.0011 0.66145832,0.66145832 0 0 0 0.0032,0 0.66145832,0.66145832 0 0 0 0.05581,0.0083 0.66145832,0.66145832 0 0 0 0.03408,0.0021 0.66145832,0.66145832 0 0 0 0.0072,-0.0011 0.66145832,0.66145832 0 0 0 0.03826,0.0021 0.66145832,0.66145832 0 0 0 0.01032,0 0.66145832,0.66145832 0 0 0 0.0072,-0.0011 0.66145832,0.66145832 0 0 0 0.02688,-0.0032 0.66145832,0.66145832 0 0 0 0.01757,-0.0021 0.66145832,0.66145832 0 0 0 0.01757,-0.0011 0.66145832,0.66145832 0 0 0 0.0042,0 0.66145832,0.66145832 0 0 0 0.0062,-0.0011 0.66145832,0.66145832 0 0 0 0.05581,-0.01138 0.66145832,0.66145832 0 0 0 0.01032,-0.0021 0.66145832,0.66145832 0 0 0 0.01032,-0.0042 0.66145832,0.66145832 0 0 0 0.05375,-0.01757 0.66145832,0.66145832 0 0 0 0.0062,-0.0021 0.66145832,0.66145832 0 0 0 0.0032,-0.0021 0.66145832,0.66145832 0 0 0 0.01651,-0.0072 0.66145832,0.66145832 0 0 0 0.01651,-0.0072 0.66145832,0.66145832 0 0 0 0.02482,-0.01032 0.66145832,0.66145832 0 0 0 0.0062,-0.0042 0.66145832,0.66145832 0 0 0 0.0093,-0.0042 0.66145832,0.66145832 0 0 0 0.03826,-0.02376 0.66145832,0.66145832 0 0 0 0.02895,-0.01963 0.66145832,0.66145832 0 0 0 0.04445,-0.03408 0.66145832,0.66145832 0 0 0 0.0021,-0.0021 0.66145832,0.66145832 0 0 0 0.0021,-0.0011 0.66145832,0.66145832 0 0 0 0.0053,-0.0062 0.66145832,0.66145832 0 0 0 0.0093,-0.0083 0.66145832,0.66145832 0 0 0 0.03514,-0.03514 0.66145832,0.66145832 0 0 0 0.0021,-0.0011 0.66145832,0.66145832 0 0 0 0,-0.0011 0.66145832,0.66145832 0 0 0 0.0372,-0.04339 0.66145832,0.66145832 0 0 0 0.0093,-0.01238 0.66145832,0.66145832 0 0 0 0.0021,-0.0032 0.66145832,0.66145832 0 0 0 0.03926,-0.05891 0.66145832,0.66145832 0 0 0 0.03101,-0.06305 0.66145832,0.66145832 0 0 0 0.0021,-0.0032 0.66145832,0.66145832 0 0 0 0.0062,-0.01445 0.66145832,0.66145832 0 0 0 0.01863,-0.05374 0.66145832,0.66145832 0 0 1 0.0011,-0.0011 0.66145832,0.66145832 0 0 0 0,-0.0021 0.66145832,0.66145832 0 0 0 0.01238,-0.04858 0.66145832,0.66145832 0 0 0 0.0032,-0.0072 0.66145832,0.66145832 0 0 0 0.0011,-0.01032 0.66145832,0.66145832 0 0 0 0.0011,-0.0021 0.66145832,0.66145832 0 0 0 0,-0.0011 0.66145832,0.66145832 0 0 0 0.0011,-0.0042 0.66145832,0.66145832 0 0 0 0.0053,-0.0372 0.66145832,0.66145832 0 0 0 0.0021,-0.01757 0.66145832,0.66145832 0 0 0 0.0021,-0.03514 0.66145832,0.66145832 0 0 0 0.0011,-0.0032 0.66145832,0.66145832 0 0 0 0.0011,-0.04239 0.66145832,0.66145832 0 0 0 -0.0011,-0.0093 0.66145832,0.66145832 0 0 0 0.0011,-0.0032 0.66145832,0.66145832 0 0 0 -0.0011,-0.0053 0.66145832,0.66145832 0 0 0 -0.0072,-0.06201 0.66145832,0.66145832 0 0 0 0,-0.0042 0.66145832,0.66145832 0 0 0 0,-0.0021 0.66145832,0.66145832 0 0 0 -0.0011,-0.0042 0.66145832,0.66145832 0 0 0 -0.0011,-0.0032 0.66145832,0.66145832 0 0 0 -0.0083,-0.04445 0.66145832,0.66145832 0 0 0 -0.0021,-0.0072 0.66145832,0.66145832 0 0 0 -0.0021,-0.01138 0.66145832,0.66145832 0 0 0 -0.0032,-0.01032 0.66145832,0.66145832 0 0 0 -0.0032,-0.0093 0.66145832,0.66145832 0 0 0 -0.01551,-0.04445 0.66145832,0.66145832 0 0 0 -0.02482,-0.05891 0.66145832,0.66145832 0 0 0 -0.0042,-0.0073 0.66145832,0.66145832 0 0 0 -0.0032,-0.0072 0.66145832,0.66145832 0 0 0 -0.0053,-0.0082 0.66145832,0.66145832 0 0 0 -0.0072,-0.01344 0.66145832,0.66145832 0 0 0 -0.01651,-0.02582 0.66145832,0.66145832 0 0 0 -0.01863,-0.02895 0.66145832,0.66145832 0 0 0 -0.0032,-0.0042 0.66145832,0.66145832 0 0 0 -0.03514,-0.04445 0.66145832,0.66145832 0 0 0 -0.04858,-0.04958 0.66145832,0.66145832 0 0 0 -0.0011,0 0.66145832,0.66145832 0 0 0 0,-0.0011 0.66145832,0.66145832 0 0 1 -0.0011,-0.0011 0.66145832,0.66145832 0 0 0 -0.0062,-0.0042 0.66145832,0.66145832 0 0 0 -0.03207,-0.02789 0.66145832,0.66145832 0 0 0 -0.0053,-0.0053 0.66145832,0.66145832 0 0 0 -0.01238,-0.0093 0.66145832,0.66145832 0 0 1 -0.0011,0 0.66145832,0.66145832 0 0 1 -0.0011,-0.0011 0.66145832,0.66145832 0 0 1 -0.0011,0 0.66145832,0.66145832 0 0 1 -0.0011,-0.0011 0.66145832,0.66145832 0 0 0 -0.05788,-0.03826 l -0.07545,-0.04339 0.07649,-0.04445 a 0.66145832,0.66145832 0 0 0 0.241961,-0.903319 0.66145832,0.66145832 0 0 0 -0.903303,-0.242877 l -0.737939,0.426847 -1.046967,-0.604615 1.046967,-0.604616 0.737939,0.426853 a 0.66145832,0.66145832 0 0 0 0.903303,-0.242883 0.66145832,0.66145832 0 0 0 -0.241845,-0.903303 l -0.07648,-0.04445 0.07545,-0.04339 a 0.66145832,0.66145832 0 0 0 0.05787,-0.03826 0.66145832,0.66145832 0 0 0 0.0011,-0.0011 0.66145832,0.66145832 0 0 0 0.0011,0 0.66145832,0.66145832 0 0 0 0.0011,-0.0011 0.66145832,0.66145832 0 0 0 0.0011,0 0.66145832,0.66145832 0 0 0 0.01238,-0.0093 0.66145832,0.66145832 0 0 0 0.0053,-0.0053 0.66145832,0.66145832 0 0 0 0.03207,-0.02789 0.66145832,0.66145832 0 0 0 0.0062,-0.0042 0.66145832,0.66145832 0 0 0 0.0011,-0.0011 0.66145832,0.66145832 0 0 0 0.0011,-0.0011 0.66145832,0.66145832 0 0 0 0.04858,-0.05064 0.66145832,0.66145832 0 0 0 0.03514,-0.04339 0.66145832,0.66145832 0 0 0 0.0032,-0.0042 0.66145832,0.66145832 0 0 0 0.01863,-0.02895 0.66145832,0.66145832 0 0 0 0.01651,-0.02582 0.66145832,0.66145832 0 0 0 0.0072,-0.01344 0.66145832,0.66145832 0 0 0 0.0053,-0.0083 0.66145832,0.66145832 0 0 0 0.0032,-0.0072 0.66145832,0.66145832 0 0 0 0.0042,-0.0072 0.66145832,0.66145832 0 0 0 0.02482,-0.05891 0.66145832,0.66145832 0 0 0 0.0155,-0.04445 0.66145832,0.66145832 0 0 0 0.0032,-0.0093 0.66145832,0.66145832 0 0 0 0.0032,-0.01032 0.66145832,0.66145832 0 0 0 0.0021,-0.01138 0.66145832,0.66145832 0 0 0 0.0021,-0.0073 0.66145832,0.66145832 0 0 0 0.0083,-0.04445 0.66145832,0.66145832 0 0 0 0.0011,-0.0032 0.66145832,0.66145832 0 0 0 0.0011,-0.0062 0.66145832,0.66145832 0 0 0 0,-0.0042 0.66145832,0.66145832 0 0 0 0.0072,-0.06201 0.66145832,0.66145832 0 0 0 0.0011,-0.0053 0.66145832,0.66145832 0 0 0 -0.0011,-0.0032 0.66145832,0.66145832 0 0 0 0,-0.0021 0.66145832,0.66145832 0 0 0 0.0011,-0.0072 0.66145832,0.66145832 0 0 0 -0.0011,-0.04239 0.66145832,0.66145832 0 0 0 -0.0011,-0.0032 0.66145832,0.66145832 0 0 0 0,-0.0155 0.66145832,0.66145832 0 0 0 -0.0021,-0.01963 0.66145832,0.66145832 0 0 0 -0.0021,-0.01757 0.66145832,0.66145832 0 0 0 -0.0053,-0.0372 0.66145832,0.66145832 0 0 0 0,-0.0021 0.66145832,0.66145832 0 0 0 -0.0011,-0.0042 0.66145832,0.66145832 0 0 0 -0.0011,-0.0011 0.66145832,0.66145832 0 0 0 -0.0011,-0.01032 0.66145832,0.66145832 0 0 0 -0.0032,-0.0073 0.66145832,0.66145832 0 0 0 -0.01238,-0.04858 0.66145832,0.66145832 0 0 0 0,-0.0021 0.66145832,0.66145832 0 0 0 -0.0011,-0.0011 0.66145832,0.66145832 0 0 0 -0.01863,-0.05374 0.66145832,0.66145832 0 0 0 -0.0062,-0.01445 0.66145832,0.66145832 0 0 0 -0.0021,-0.0032 0.66145832,0.66145832 0 0 0 -0.03101,-0.06305 0.66145832,0.66145832 0 0 0 -0.03927,-0.05891 0.66145832,0.66145832 0 0 0 -0.0021,-0.0032 0.66145832,0.66145832 0 0 0 -0.0093,-0.01238 0.66145832,0.66145832 0 0 0 -0.0372,-0.04339 0.66145832,0.66145832 0 0 1 0,-0.0011 0.66145832,0.66145832 0 0 0 -0.0021,-0.0011 0.66145832,0.66145832 0 0 0 -0.03514,-0.03514 0.66145832,0.66145832 0 0 0 -0.0093,-0.0083 0.66145832,0.66145832 0 0 0 -0.0053,-0.0062 0.66145832,0.66145832 0 0 0 -0.0021,-0.0011 0.66145832,0.66145832 0 0 0 -0.0021,-0.0021 0.66145832,0.66145832 0 0 0 -0.04445,-0.03413 0.66145832,0.66145832 0 0 0 -0.02895,-0.01963 0.66145832,0.66145832 0 0 0 -0.03826,-0.02376 0.66145832,0.66145832 0 0 0 -0.0093,-0.0042 0.66145832,0.66145832 0 0 0 -0.0062,-0.0042 0.66145832,0.66145832 0 0 0 -0.02482,-0.01032 0.66145832,0.66145832 0 0 0 -0.01651,-0.0072 0.66145832,0.66145832 0 0 0 -0.01651,-0.0073 0.66145832,0.66145832 0 0 0 -0.0032,-0.0021 0.66145832,0.66145832 0 0 0 -0.0062,-0.0021 0.66145832,0.66145832 0 0 0 -0.05374,-0.01757 0.66145832,0.66145832 0 0 0 -0.01032,-0.0042 0.66145832,0.66145832 0 0 0 -0.01032,-0.0021 0.66145832,0.66145832 0 0 0 -0.05581,-0.01138 0.66145832,0.66145832 0 0 0 -0.0062,-0.0011 0.66145832,0.66145832 0 0 0 -0.0042,0 0.66145832,0.66145832 0 0 0 -0.01757,-0.0011 0.66145832,0.66145832 0 0 0 -0.01757,-0.0021 0.66145832,0.66145832 0 0 0 -0.02688,-0.0032 0.66145832,0.66145832 0 0 0 -0.0072,-0.0011 0.66145832,0.66145832 0 0 0 -0.01032,0 0.66145832,0.66145832 0 0 0 -0.03826,0.0021 0.66145832,0.66145832 0 0 0 -0.0072,-0.0011 0.66145832,0.66145832 0 0 0 -0.03413,0.0021 0.66145832,0.66145832 0 0 0 -0.05581,0.0083 0.66145832,0.66145832 0 0 0 -0.0032,0 0.66145832,0.66145832 0 0 0 -0.0021,0.0011 0.66145832,0.66145832 0 0 0 -0.0072,0.0011 0.66145832,0.66145832 0 0 0 -0.01238,0.0042 0.66145832,0.66145832 0 0 0 -0.04752,0.01138 0.66145832,0.66145832 0 0 0 -0.0021,0.0011 0.66145832,0.66145832 0 0 1 -0.0011,0 0.66145832,0.66145832 0 0 0 -0.05374,0.01863 0.66145832,0.66145832 0 0 0 -0.01445,0.0062 0.66145832,0.66145832 0 0 0 -0.0042,0.0021 0.66145832,0.66145832 0 0 0 -0.06201,0.03207 l -0.07545,0.04339 v -0.08888 a 0.66145832,0.66145832 0 0 0 -0.661458,-0.661459 0.66145832,0.66145832 0 0 0 -0.661458,0.661459 v 0.852651 l -1.047084,0.604838 v -1.209226 l 0.737939,-0.425815 a 0.66145832,0.66145832 0 0 0 0.241845,-0.90434 0.66145832,0.66145832 0 0 0 -0.903303,-0.241845 l -0.07648,0.04445 v -0.08681 a 0.66145832,0.66145832 0 0 0 -0.0042,-0.07028 0.66145832,0.66145832 0 0 0 0,-0.0011 0.66145832,0.66145832 0 0 0 0,-0.0011 0.66145832,0.66145832 0 0 0 0,-0.0011 0.66145832,0.66145832 0 0 0 0,-0.0011 0.66145832,0.66145832 0 0 0 -0.0021,-0.0155 0.66145832,0.66145832 0 0 0 -0.0011,-0.0073 0.66145832,0.66145832 0 0 0 -0.0083,-0.04133 0.66145832,0.66145832 0 0 0 -0.0011,-0.0073 0.66145832,0.66145832 0 0 0 0,-0.0011 0.66145832,0.66145832 0 0 0 -0.0011,-0.0021 0.66145832,0.66145832 0 0 0 -0.01863,-0.06718 0.66145832,0.66145832 0 0 0 -0.02069,-0.05271 0.66145832,0.66145832 0 0 0 -0.0021,-0.0042 0.66145832,0.66145832 0 0 0 -0.01551,-0.03101 0.66145832,0.66145832 0 0 0 -0.01445,-0.02688 0.66145832,0.66145832 0 0 0 -0.0073,-0.01344 0.66145832,0.66145832 0 0 0 -0.0053,-0.0083 0.66145832,0.66145832 0 0 0 -0.0042,-0.0062 0.66145832,0.66145832 0 0 0 -0.0053,-0.0073 0.66145832,0.66145832 0 0 0 -0.03826,-0.0517 0.66145832,0.66145832 0 0 0 -0.02995,-0.03514 0.66145832,0.66145832 0 0 0 -0.0072,-0.0072 0.66145832,0.66145832 0 0 0 -0.0072,-0.0083 0.66145832,0.66145832 0 0 0 -0.0083,-0.0072 0.66145832,0.66145832 0 0 0 -0.0062,-0.0053 0.66145832,0.66145832 0 0 0 -0.03408,-0.02995 0.66145832,0.66145832 0 0 0 -0.0021,-0.0021 0.66145832,0.66145832 0 0 0 -0.0053,-0.0042 0.66145832,0.66145832 0 0 0 -0.0032,-0.0021 0.66145832,0.66145832 0 0 0 -0.05064,-0.0372 0.66145832,0.66145832 0 0 0 -0.0042,-0.0032 0.66145832,0.66145832 0 0 0 -0.0021,-0.0011 0.66145832,0.66145832 0 0 0 -0.0021,-0.0011 0.66145832,0.66145832 0 0 0 -0.0062,-0.0042 0.66145832,0.66145832 0 0 0 -0.0372,-0.02069 0.66145832,0.66145832 0 0 0 -0.0032,-0.0011 0.66145832,0.66145832 0 0 0 -0.01344,-0.0072 0.66145832,0.66145832 0 0 0 -0.01757,-0.0083 0.66145832,0.66145832 0 0 0 -0.01651,-0.0072 0.66145832,0.66145832 0 0 0 -0.03514,-0.01344 0.66145832,0.66145832 0 0 0 -0.0021,-0.0011 0.66145832,0.66145832 0 0 0 -0.0032,-0.0011 0.66145832,0.66145832 0 0 0 -0.0021,0 0.66145832,0.66145832 0 0 0 -0.0093,-0.0042 0.66145832,0.66145832 0 0 0 -0.0083,-0.0011 0.66145832,0.66145832 0 0 0 -0.04752,-0.01344 0.66145832,0.66145832 0 0 0 -0.0021,-0.0011 0.66145832,0.66145832 0 0 0 -0.0011,0 0.66145832,0.66145832 0 0 0 -0.05581,-0.01032 0.66145832,0.66145832 0 0 0 -0.0155,-0.0021 0.66145832,0.66145832 0 0 0 -0.0042,0 0.66145832,0.66145832 0 0 0 -0.07028,-0.0042 z" />
  </g>
</svg>
